{
.appVersion = "939";
classes = (
{
automatic = 1;

glyphs = (
{
color = 1;
glyphname = A;
lastChange = "2017-01-28 13:41:18 +0000";
layers = (
{
anchors = (
{
name = bottom;
position = "{252, 0}";
},
{
name = ogonek;
position = "{474, 10}";
},
{
name = top;
position = "{330, 636}";
}
);
background = {
paths = (
{
closed = 1;
nodes = (
"414 342 OFFCURVE",
"370 648 OFFCURVE",
"370 648 CURVE",
"362 648 LINE",
"306 631 LINE",
"58 120 LINE SMOOTH",
"30 62 OFFCURVE",
"9 46 OFFCURVE",
"-28 42 CURVE",
"-41 -3 LINE",
"-41 -3 OFFCURVE",
"19 0 OFFCURVE",
"64 0 CURVE SMOOTH",
"128 0 OFFCURVE",
"196 -7 OFFCURVE",
"196 -7 CURVE",
"206 34 LINE",
"206 37 LINE",
"150 37 LINE SMOOTH",
"113 37 OFFCURVE",
"97 48 OFFCURVE",
"97 73 CURVE SMOOTH",
"97 86 OFFCURVE",
"101 98 OFFCURVE",
"111 119 CURVE SMOOTH",
"160 227 LINE",
"184 230 OFFCURVE",
"229 235 OFFCURVE",
"267 235 CURVE SMOOTH",
"294 235 OFFCURVE",
"343 235 OFFCURVE",
"367 234 CURVE",
"385 121 LINE SMOOTH",
"387 108 OFFCURVE",
"389 93 OFFCURVE",
"389 83 CURVE SMOOTH",
"389 48 OFFCURVE",
"371 38 OFFCURVE",
"297 33 CURVE",
"289 -3 LINE",
"291 -10 LINE",
"291 -10 OFFCURVE",
"361 0 OFFCURVE",
"434 0 CURVE SMOOTH",
"466 0 OFFCURVE",
"535 -3 OFFCURVE",
"535 -3 CURVE",
"546 36 LINE",
"544 39 LINE",
"489 45 OFFCURVE",
"470 60 OFFCURVE",
"460 111 CURVE SMOOTH"
);
},
{
closed = 1;
nodes = (
"308 544 LINE",
"315 544 LINE",
"359 277 LINE",
"337 274 OFFCURVE",
"294 271 OFFCURVE",
"268 271 CURVE SMOOTH",
"183 271 LINE"
);
}
);
};
layerId = UUID0;
paths = (
{
closed = 1;
nodes = (
"414 342 OFFCURVE",
"370 648 OFFCURVE",
"370 648 CURVE",
"362 648 LINE",
"306 631 LINE",
"58 120 LINE SMOOTH",
"30 62 OFFCURVE",
"9 46 OFFCURVE",
"-28 42 CURVE",
"-41 -3 LINE",
"-41 -3 OFFCURVE",
"19 0 OFFCURVE",
"64 0 CURVE SMOOTH",
"128 0 OFFCURVE",
"196 -7 OFFCURVE",
"196 -7 CURVE",
"206 34 LINE",
"206 37 LINE",
"150 37 LINE SMOOTH",
"113 37 OFFCURVE",
"97 48 OFFCURVE",
"97 73 CURVE SMOOTH",
"97 86 OFFCURVE",
"101 98 OFFCURVE",
"111 119 CURVE SMOOTH",
"160 227 LINE",
"184 230 OFFCURVE",
"229 235 OFFCURVE",
"267 235 CURVE SMOOTH",
"294 235 OFFCURVE",
"343 235 OFFCURVE",
"367 234 CURVE",
"385 121 LINE SMOOTH",
"387 108 OFFCURVE",
"389 93 OFFCURVE",
"389 83 CURVE SMOOTH",
"389 48 OFFCURVE",
"371 38 OFFCURVE",
"297 33 CURVE",
"289 -3 LINE",
"291 -10 LINE",
"291 -10 OFFCURVE",
"361 0 OFFCURVE",
"434 0 CURVE SMOOTH",
"466 0 OFFCURVE",
"535 -3 OFFCURVE",
"535 -3 CURVE",
"546 36 LINE",
"544 39 LINE",
"489 45 OFFCURVE",
"470 60 OFFCURVE",
"460 111 CURVE SMOOTH"
);
},
{
closed = 1;
nodes = (
"308 544 LINE",
"315 544 LINE",
"359 277 LINE",
"337 274 OFFCURVE",
"294 271 OFFCURVE",
"268 271 CURVE SMOOTH",
"183 271 LINE"
);
}
);
width = 553;
},
{
anchors = (
{
name = bottom;
position = "{302, 0}";
},
{
name = ogonek;
position = "{576, 40}";
},
{
name = top;
position = "{381, 647}";
}
);
background = {
paths = (
{
closed = 1;
nodes = (
"579 261 OFFCURVE",
"531 646 OFFCURVE",
"531 646 CURVE",
"517 658 LINE",
"250 642 LINE",
"39 140 LINE SMOOTH",
"26 109 OFFCURVE",
"7 91 OFFCURVE",
"-16 85 CURVE",
"-33 -2 LINE",
"-33 -2 OFFCURVE",
"36 -1 OFFCURVE",
"97 -1 CURVE SMOOTH",
"156 -1 OFFCURVE",
"247 -4 OFFCURVE",
"247 -4 CURVE",
"265 79 LINE",
"258 89 LINE",
"231 89 LINE SMOOTH",
"215 89 OFFCURVE",
"208 93 OFFCURVE",
"208 104 CURVE SMOOTH",
"208 110 OFFCURVE",
"210 118 OFFCURVE",
"214 131 CURVE SMOOTH",
"227 175 LINE",
"227 175 OFFCURVE",
"286 180 OFFCURVE",
"304 180 CURVE SMOOTH",
"312 180 OFFCURVE",
"377 178 OFFCURVE",
"377 178 CURVE",
"377 139 LINE SMOOTH",
"377 131 OFFCURVE",
"377 125 OFFCURVE",
"377 121 CURVE SMOOTH",
"377 98 OFFCURVE",
"367 93 OFFCURVE",
"311 87 CURVE",
"295 3 LINE",
"302 -6 LINE",
"302 -6 OFFCURVE",
"397 -1 OFFCURVE",
"490 -1 CURVE SMOOTH",
"544 -1 OFFCURVE",
"628 -3 OFFCURVE",
"628 -3 CURVE",
"646 76 LINE",
"640 86 LINE",
"613 90 OFFCURVE",
"599 107 OFFCURVE",
"593 153 CURVE SMOOTH"
);
},
{
closed = 1;
nodes = (
"339 478 LINE",
"361 478 LINE",
"371 303 LINE",
"350 302 OFFCURVE",
"337 301 OFFCURVE",
"322 301 CURVE SMOOTH",
"274 301 LINE"
);
}
);
};
layerId = UUID1;
paths = (
{
closed = 1;
nodes = (
"579 261 OFFCURVE",
"531 646 OFFCURVE",
"531 646 CURVE",
"517 658 LINE",
"250 642 LINE",
"39 140 LINE SMOOTH",
"26 109 OFFCURVE",
"7 91 OFFCURVE",
"-16 85 CURVE",
"-33 -2 LINE",
"-33 -2 OFFCURVE",
"36 -1 OFFCURVE",
"97 -1 CURVE SMOOTH",
"156 -1 OFFCURVE",
"247 -4 OFFCURVE",
"247 -4 CURVE",
"265 79 LINE",
"258 89 LINE",
"231 89 LINE SMOOTH",
"215 89 OFFCURVE",
"208 93 OFFCURVE",
"208 104 CURVE SMOOTH",
"208 110 OFFCURVE",
"210 118 OFFCURVE",
"214 131 CURVE SMOOTH",
"227 175 LINE",
"227 175 OFFCURVE",
"286 180 OFFCURVE",
"304 180 CURVE SMOOTH",
"312 180 OFFCURVE",
"377 178 OFFCURVE",
"377 178 CURVE",
"377 139 LINE SMOOTH",
"377 131 OFFCURVE",
"377 125 OFFCURVE",
"377 121 CURVE SMOOTH",
"377 98 OFFCURVE",
"367 93 OFFCURVE",
"311 87 CURVE",
"295 3 LINE",
"302 -6 LINE",
"302 -6 OFFCURVE",
"397 -1 OFFCURVE",
"490 -1 CURVE SMOOTH",
"544 -1 OFFCURVE",
"628 -3 OFFCURVE",
"628 -3 CURVE",
"646 76 LINE",
"640 86 LINE",
"613 90 OFFCURVE",
"599 107 OFFCURVE",
"593 153 CURVE SMOOTH"
);
},
{
closed = 1;
nodes = (
"339 478 LINE",
"361 478 LINE",
"371 303 LINE",
"350 302 OFFCURVE",
"337 301 OFFCURVE",
"322 301 CURVE SMOOTH",
"274 301 LINE"
);
}
);
width = 661;
}
);
leftKerningGroup = A;
rightKerningGroup = A;
unicode = 0041;
},
{
color = 10;
glyphname = Abreveacute;
lastChange = "2017-01-28 13:41:38 +0000";
layers = (
{
background = {
paths = (
{
closed = 1;
nodes = (
"254 768 OFFCURVE",
"217 785 OFFCURVE",
"200 818 CURVE",
"192 818 LINE",
"176 808 LINE",
"190 759 OFFCURVE",
"227 710 OFFCURVE",
"296 710 CURVE SMOOTH",
"365 710 OFFCURVE",
"402 759 OFFCURVE",
"416 808 CURVE",
"400 818 LINE",
"392 818 LINE",
"375 785 OFFCURVE",
"338 768 OFFCURVE",
"296 768 CURVE SMOOTH"
);
}
);
};
components = (
{
alignment = -1;
name = A;
},
{
name = brevecomb_acutecomb;
transform = "{1, 0, 0, 1, 161, 184}";
}
);
layerId = UUID0;
width = 553;
},
{
background = {
paths = (
{
closed = 1;
nodes = (
"292 810 OFFCURVE",
"250 833 OFFCURVE",
"230 880 CURVE",
"203 873 LINE",
"163 811 LINE",
"184 743 OFFCURVE",
"239 675 OFFCURVE",
"341 675 CURVE SMOOTH",
"443 675 OFFCURVE",
"498 743 OFFCURVE",
"519 811 CURVE",
"479 873 LINE",
"452 880 LINE",
"432 833 OFFCURVE",
"390 810 OFFCURVE",
"341 810 CURVE SMOOTH"
);
}
);
};
components = (
{
alignment = -1;
name = A;
},
{
name = brevecomb_acutecomb;
transform = "{1, 0, 0, 1, 165, 175}";
}
);
layerId = UUID1;
width = 661;
}
);
leftKerningGroup = A;
rightKerningGroup = A;
unicode = 1EAE;
},
{
color = 10;
glyphname = Abrevegrave;
lastChange = "2017-01-28 13:41:38 +0000";
layers = (
{
background = {
paths = (
{
closed = 1;
nodes = (
"256 768 OFFCURVE",
"219 785 OFFCURVE",
"202 818 CURVE",
"194 818 LINE",
"178 808 LINE",
"192 759 OFFCURVE",
"229 710 OFFCURVE",
"298 710 CURVE SMOOTH",
"367 710 OFFCURVE",
"404 759 OFFCURVE",
"418 808 CURVE",
"402 818 LINE",
"394 818 LINE",
"377 785 OFFCURVE",
"340 768 OFFCURVE",
"298 768 CURVE SMOOTH"
);
}
);
};
components = (
{
alignment = -1;
name = A;
transform = "{1, 0, 0, 1, 2, 0}";
},
{
name = brevecomb_gravecomb;
transform = "{1, 0, 0, 1, 131, 184}";
}
);
layerId = UUID0;
width = 553;
},
{
background = {
paths = (
{
closed = 1;
nodes = (
"292 810 OFFCURVE",
"250 833 OFFCURVE",
"230 880 CURVE",
"203 873 LINE",
"163 811 LINE",
"184 743 OFFCURVE",
"239 675 OFFCURVE",
"341 675 CURVE SMOOTH",
"443 675 OFFCURVE",
"498 743 OFFCURVE",
"519 811 CURVE",
"479 873 LINE",
"452 880 LINE",
"432 833 OFFCURVE",
"390 810 OFFCURVE",
"341 810 CURVE SMOOTH"
);
}
);
};
components = (
{
alignment = -1;
name = A;
},
{
name = brevecomb_gravecomb;
transform = "{1, 0, 0, 1, 164, 175}";
}
);
layerId = UUID1;
width = 661;
}
);
leftKerningGroup = A;
rightKerningGroup = A;
unicode = 1EB0;
},
{
color = 10;
glyphname = Ahookabove;
lastChange = "2017-01-28 13:41:38 +0000";
layers = (
{
background = {
paths = (
{
closed = 1;
nodes = (
"254 768 OFFCURVE",
"217 785 OFFCURVE",
"200 818 CURVE",
"192 818 LINE",
"176 808 LINE",
"190 759 OFFCURVE",
"227 710 OFFCURVE",
"296 710 CURVE SMOOTH",
"365 710 OFFCURVE",
"402 759 OFFCURVE",
"416 808 CURVE",
"400 818 LINE",
"392 818 LINE",
"375 785 OFFCURVE",
"338 768 OFFCURVE",
"296 768 CURVE SMOOTH"
);
}
);
};
components = (
{
alignment = -1;
name = A;
},
{
name = hookabovecomb;
transform = "{1, 0, 0, 1, 187, 184}";
}
);
layerId = UUID0;
width = 553;
},
{
background = {
paths = (
{
closed = 1;
nodes = (
"292 810 OFFCURVE",
"250 833 OFFCURVE",
"230 880 CURVE",
"203 873 LINE",
"163 811 LINE",
"184 743 OFFCURVE",
"239 675 OFFCURVE",
"341 675 CURVE SMOOTH",
"443 675 OFFCURVE",
"498 743 OFFCURVE",
"519 811 CURVE",
"479 873 LINE",
"452 880 LINE",
"432 833 OFFCURVE",
"390 810 OFFCURVE",
"341 810 CURVE SMOOTH"
);
}
);
};
components = (
{
alignment = -1;
name = A;
},
{
name = hookabovecomb;
transform = "{1, 0, 0, 1, 178, 175}";
}
);
layerId = UUID1;
width = 661;
}
);
leftKerningGroup = A;
rightKerningGroup = A;
unicode = 1EA2;
},
{
color = 1;
glyphname = AE;
lastChange = "2017-01-28 13:41:29 +0000";
layers = (
{
anchors = (
{
name = top;
position = "{498, 647}";
}
);
layerId = UUID0;
paths = (
{
closed = 1;
nodes = (
"259 -3 LINE",
"260 -10 LINE",
"260 -10 OFFCURVE",
"329 0 OFFCURVE",
"403 0 CURVE SMOOTH",
"502 0 OFFCURVE",
"696 -5 OFFCURVE",
"694 -7 CURVE",
"699 -1 LINE",
"718 83 OFFCURVE",
"746 166 OFFCURVE",
"746 166 CURVE",
"743 171 LINE",
"699 166 LINE",
"670 56 OFFCURVE",
"652 44 OFFCURVE",
"514 44 CURVE SMOOTH",
"461 44 OFFCURVE",
"441 62 OFFCURVE",
"440 112 CURVE SMOOTH",
"434 283 LINE",
"542 292 LINE",
"625 294 LINE",
"644 346 LINE",
"640 351 LINE",
"550 338 LINE",
"434 327 LINE",
"432 557 LINE",
"432 580 OFFCURVE",
"442 588 OFFCURVE",
"501 588 CURVE SMOOTH",
"625 588 OFFCURVE",
"647 581 OFFCURVE",
"647 537 CURVE SMOOTH",
"647 512 OFFCURVE",
"638 474 OFFCURVE",
"638 474 CURVE",
"685 478 LINE",
"702 570 OFFCURVE",
"727 643 OFFCURVE",
"727 643 CURVE",
"725 649 LINE",
"668 640 OFFCURVE",
"592 637 OFFCURVE",
"437 637 CURVE SMOOTH",
"366 637 OFFCURVE",
"284 639 OFFCURVE",
"284 640 CURVE",
"271 597 LINE",
"273 593 LINE",
"273 593 OFFCURVE",
"294 595 OFFCURVE",
"306 595 CURVE SMOOTH",
"320 595 OFFCURVE",
"326 590 OFFCURVE",
"328 579 CURVE",
"37 121 LINE SMOOTH",
"2 65 OFFCURVE",
"-34 30 OFFCURVE",
"-34 30 CURVE",
"-32 -4 LINE",
"-32 -4 OFFCURVE",
"12 0 OFFCURVE",
"34 0 CURVE SMOOTH",
"95 0 OFFCURVE",
"166 -7 OFFCURVE",
"166 -7 CURVE",
"177 39 LINE",
"123 39 LINE SMOOTH",
"87 39 OFFCURVE",
"74 47 OFFCURVE",
"74 69 CURVE SMOOTH",
"74 82 OFFCURVE",
"78 92 OFFCURVE",
"95 120 CURVE SMOOTH",
"179 260 LINE",
"268 269 LINE",
"364 277 LINE",
"366 153 LINE SMOOTH",
"366 143 OFFCURVE",
"366 127 OFFCURVE",
"366 117 CURVE SMOOTH",
"366 70 OFFCURVE",
"328 39 OFFCURVE",
"265 35 CURVE"
);
},
{
closed = 1;
nodes = (
"212 310 LINE",
"353 540 LINE",
"362 540 LINE",
"363 321 LINE",
"292 315 LINE"
);
}
);
width = 781;
},
{
anchors = (
{
name = top;
position = "{499, 647}";
}
);
layerId = UUID1;
paths = (
{
closed = 1;
nodes = (
"296 3 LINE",
"302 -6 LINE",
"302 -6 OFFCURVE",
"387 -1 OFFCURVE",
"470 0 CURVE SMOOTH",
"664 0 OFFCURVE",
"824 -7 OFFCURVE",
"824 -7 CURVE",
"841 9 LINE",
"864 118 OFFCURVE",
"894 215 OFFCURVE",
"894 215 CURVE",
"883 230 LINE",
"754 221 LINE",
"731 131 OFFCURVE",
"714 114 OFFCURVE",
"643 114 CURVE SMOOTH",
"615 114 OFFCURVE",
"600 136 OFFCURVE",
"599 181 CURVE SMOOTH",
"598 254 LINE",
"660 266 LINE",
"756 278 LINE",
"781 394 LINE",
"766 411 LINE",
"665 385 LINE",
"595 372 LINE",
"589 503 LINE",
"589 519 OFFCURVE",
"599 527 OFFCURVE",
"623 527 CURVE SMOOTH",
"689 527 OFFCURVE",
"709 519 OFFCURVE",
"709 484 CURVE SMOOTH",
"709 467 OFFCURVE",
"702 435 OFFCURVE",
"702 435 CURVE",
"841 444 LINE",
"858 538 OFFCURVE",
"888 643 OFFCURVE",
"888 643 CURVE",
"877 659 LINE",
"841 654 OFFCURVE",
"681 648 OFFCURVE",
"538 647 CURVE SMOOTH",
"371 647 OFFCURVE",
"208 650 OFFCURVE",
"208 650 CURVE",
"189 571 LINE",
"200 557 LINE",
"200 557 OFFCURVE",
"214 559 OFFCURVE",
"225 559 CURVE SMOOTH",
"240 559 OFFCURVE",
"246 552 OFFCURVE",
"247 531 CURVE",
"46 140 LINE SMOOTH",
"30 109 OFFCURVE",
"10 91 OFFCURVE",
"-16 85 CURVE",
"-24 -2 LINE",
"-24 -2 OFFCURVE",
"12 -1 OFFCURVE",
"54 -1 CURVE SMOOTH",
"100 -1 OFFCURVE",
"246 -3 OFFCURVE",
"248 -4 CURVE",
"265 79 LINE",
"262 89 LINE SMOOTH",
"221 89 OFFCURVE",
"210 88 OFFCURVE",
"210 101 CURVE SMOOTH",
"210 107 OFFCURVE",
"214 116 OFFCURVE",
"219 130 CURVE SMOOTH",
"238 183 LINE",
"315 206 LINE",
"388 219 LINE",
"385 162 LINE SMOOTH",
"385 147 OFFCURVE",
"383 140 OFFCURVE",
"382 130 CURVE SMOOTH",
"379 101 OFFCURVE",
"366 93 OFFCURVE",
"312 87 CURVE"
);
},
{
closed = 1;
nodes = (
"304 324 LINE",
"375 478 LINE",
"397 478 LINE",
"393 337 LINE",
"344 328 LINE"
);
}
);
width = 916;
}
);
leftKerningGroup = A;
rightKerningGroup = E;
unicode = 00C6;
},
{
color = 1;
glyphname = B;
lastChange = "2017-01-28 13:41:19 +0000";
layers = (
{
anchors = (
{
name = bottom;
position = "{317, 0}";
},
{
name = top;
position = "{322, 647}";
}
);
background = {
paths = (
{
closed = 1;
nodes = (
"174 0 OFFCURVE",
"219 -10 OFFCURVE",
"262 -10 CURVE",
"388 -10 OFFCURVE",
"501 88 OFFCURVE",
"501 196 CURVE SMOOTH",
"501 264 OFFCURVE",
"452 316 OFFCURVE",
"368 335 CURVE",
"450 369 OFFCURVE",
"501 431 OFFCURVE",
"501 508 CURVE SMOOTH",
"501 593 OFFCURVE",
"431 640 OFFCURVE",
"320 640 CURVE SMOOTH",
"320 640 OFFCURVE",
"253 636 OFFCURVE",
"218 636 CURVE SMOOTH",
"182 636 OFFCURVE",
"114 639 OFFCURVE",
"114 639 CURVE",
"102 598 LINE",
"104 594 LINE",
"104 594 OFFCURVE",
"125 596 OFFCURVE",
"136 596 CURVE SMOOTH",
"165 596 OFFCURVE",
"170 585 OFFCURVE",
"165 542 CURVE SMOOTH",
"113 118 LINE SMOOTH",
"106 61 OFFCURVE",
"88 43 OFFCURVE",
"26 31 CURVE",
"16 -12 LINE",
"16 -12 OFFCURVE",
"76 0 OFFCURVE",
"125 0 CURVE SMOOTH"
);
},
{
closed = 1;
nodes = (
"303 302 LINE",
"381 288 OFFCURVE",
"420 245 OFFCURVE",
"420 180 CURVE SMOOTH",
"420 94 OFFCURVE",
"364 37 OFFCURVE",
"278 37 CURVE SMOOTH",
"197 37 OFFCURVE",
"169 56 OFFCURVE",
"175 108 CURVE SMOOTH",
"203 300 LINE"
);
},
{
closed = 1;
nodes = (
"223 437 OFFCURVE",
"236 512 OFFCURVE",
"247 579 CURVE SMOOTH",
"251 597 OFFCURVE",
"254 602 OFFCURVE",
"268 602 CURVE SMOOTH",
"374 602 OFFCURVE",
"424 566 OFFCURVE",
"424 491 CURVE SMOOTH",
"424 366 OFFCURVE",
"315 341 OFFCURVE",
"315 341 CURVE",
"302 341 OFFCURVE",
"210 349 OFFCURVE",
"210 349 CURVE"
);
}
);
};
layerId = UUID0;
paths = (
{
closed = 1;
nodes = (
"174 0 OFFCURVE",
"229 -10 OFFCURVE",
"272 -10 CURVE",
"398 -10 OFFCURVE",
"501 88 OFFCURVE",
"501 196 CURVE SMOOTH",
"501 264 OFFCURVE",
"452 316 OFFCURVE",
"368 335 CURVE",
"450 369 OFFCURVE",
"501 431 OFFCURVE",
"501 508 CURVE SMOOTH",
"501 593 OFFCURVE",
"421 640 OFFCURVE",
"310 640 CURVE SMOOTH",
"310 640 OFFCURVE",
"253 636 OFFCURVE",
"218 636 CURVE SMOOTH",
"182 636 OFFCURVE",
"114 639 OFFCURVE",
"114 639 CURVE",
"102 598 LINE",
"104 594 LINE",
"104 594 OFFCURVE",
"125 596 OFFCURVE",
"136 596 CURVE SMOOTH",
"165 596 OFFCURVE",
"170 585 OFFCURVE",
"165 542 CURVE SMOOTH",
"113 118 LINE SMOOTH",
"106 61 OFFCURVE",
"88 43 OFFCURVE",
"26 31 CURVE",
"16 -12 LINE",
"16 -12 OFFCURVE",
"76 0 OFFCURVE",
"125 0 CURVE SMOOTH"
);
},
{
closed = 1;
nodes = (
"303 302 LINE",
"381 288 OFFCURVE",
"420 245 OFFCURVE",
"420 180 CURVE SMOOTH",
"420 94 OFFCURVE",
"364 37 OFFCURVE",
"278 37 CURVE SMOOTH",
"197 37 OFFCURVE",
"169 56 OFFCURVE",
"175 108 CURVE SMOOTH",
"203 300 LINE"
);
},
{
closed = 1;
nodes = (
"223 437 OFFCURVE",
"236 512 OFFCURVE",
"247 579 CURVE SMOOTH",
"251 597 OFFCURVE",
"254 602 OFFCURVE",
"268 602 CURVE SMOOTH",
"374 602 OFFCURVE",
"424 566 OFFCURVE",
"424 491 CURVE SMOOTH",
"424 366 OFFCURVE",
"306 341 OFFCURVE",
"306 341 CURVE",
"293 341 OFFCURVE",
"210 349 OFFCURVE",
"210 349 CURVE"
);
}
);
width = 551;
},
{
anchors = (
{
name = bottom;
position = "{330, 0}";
},
{
name = top;
position = "{335, 647}";
}
);
background = {
paths = (
{
closed = 1;
nodes = (
"190 0 OFFCURVE",
"297 -7 OFFCURVE",
"320 -11 CURVE",
"524 -11 OFFCURVE",
"629 64 OFFCURVE",
"629 210 CURVE SMOOTH",
"629 268 OFFCURVE",
"593 314 OFFCURVE",
"525 343 CURVE",
"605 395 OFFCURVE",
"639 447 OFFCURVE",
"639 515 CURVE SMOOTH",
"639 603 OFFCURVE",
"560 654 OFFCURVE",
"424 654 CURVE SMOOTH",
"424 654 OFFCURVE",
"275 647 OFFCURVE",
"243 647 CURVE SMOOTH",
"212 647 OFFCURVE",
"76 649 OFFCURVE",
"76 649 CURVE",
"55 569 LINE",
"65 557 LINE",
"65 557 OFFCURVE",
"87 559 OFFCURVE",
"99 559 CURVE SMOOTH",
"115 559 OFFCURVE",
"122 543 OFFCURVE",
"119 513 CURVE SMOOTH",
"74 156 LINE SMOOTH",
"68 108 OFFCURVE",
"51 92 OFFCURVE",
"0 83 CURVE",
"-20 -7 LINE",
"-20 -7 OFFCURVE",
"98 0 OFFCURVE",
"160 0 CURVE SMOOTH"
);
},
{
closed = 1;
nodes = (
"361 260 LINE",
"394 248 OFFCURVE",
"411 225 OFFCURVE",
"411 195 CURVE SMOOTH",
"411 143 OFFCURVE",
"382 114 OFFCURVE",
"332 114 CURVE SMOOTH",
"283 114 OFFCURVE",
"264 128 OFFCURVE",
"269 160 CURVE SMOOTH",
"286 260 LINE"
);
},
{
closed = 1;
nodes = (
"304 389 OFFCURVE",
"316 470 OFFCURVE",
"326 514 CURVE SMOOTH",
"328 525 OFFCURVE",
"332 528 OFFCURVE",
"345 528 CURVE SMOOTH",
"401 528 OFFCURVE",
"427 509 OFFCURVE",
"427 470 CURVE SMOOTH",
"427 409 OFFCURVE",
"378 378 OFFCURVE",
"378 378 CURVE",
"356 378 OFFCURVE",
"304 389 OFFCURVE",
"304 389 CURVE"
);
}
);
};
layerId = UUID1;
paths = (
{
closed = 1;
nodes = (
"190 0 OFFCURVE",
"297 -7 OFFCURVE",
"320 -11 CURVE",
"524 -11 OFFCURVE",
"629 64 OFFCURVE",
"629 210 CURVE SMOOTH",
"629 268 OFFCURVE",
"593 314 OFFCURVE",
"525 343 CURVE",
"605 395 OFFCURVE",
"639 447 OFFCURVE",
"639 515 CURVE SMOOTH",
"639 603 OFFCURVE",
"560 654 OFFCURVE",
"424 654 CURVE SMOOTH",
"424 654 OFFCURVE",
"275 647 OFFCURVE",
"243 647 CURVE SMOOTH",
"212 647 OFFCURVE",
"76 649 OFFCURVE",
"76 649 CURVE",
"55 569 LINE",
"65 557 LINE",
"65 557 OFFCURVE",
"87 559 OFFCURVE",
"99 559 CURVE SMOOTH",
"115 559 OFFCURVE",
"122 543 OFFCURVE",
"119 513 CURVE SMOOTH",
"74 156 LINE SMOOTH",
"68 108 OFFCURVE",
"51 92 OFFCURVE",
"0 83 CURVE",
"-20 -7 LINE",
"-20 -7 OFFCURVE",
"98 0 OFFCURVE",
"160 0 CURVE SMOOTH"
);
},
{
closed = 1;
nodes = (
"361 260 LINE",
"394 248 OFFCURVE",
"411 225 OFFCURVE",
"411 195 CURVE SMOOTH",
"411 143 OFFCURVE",
"382 114 OFFCURVE",
"332 114 CURVE SMOOTH",
"283 114 OFFCURVE",
"264 128 OFFCURVE",
"269 160 CURVE SMOOTH",
"286 260 LINE"
);
},
{
closed = 1;
nodes = (
"304 389 OFFCURVE",
"316 470 OFFCURVE",
"326 514 CURVE SMOOTH",
"328 525 OFFCURVE",
"332 528 OFFCURVE",
"345 528 CURVE SMOOTH",
"401 528 OFFCURVE",
"427 509 OFFCURVE",
"427 470 CURVE SMOOTH",
"427 409 OFFCURVE",
"378 378 OFFCURVE",
"378 378 CURVE",
"356 378 OFFCURVE",
"304 389 OFFCURVE",
"304 389 CURVE"
);
}
);
width = 647;
}
);
leftKerningGroup = H;
rightKerningGroup = B;
unicode = 0042;
},
{
color = 1;
glyphname = C;
lastChange = "2017-01-28 13:41:31 +0000";
layers = (
{
anchors = (
{
name = bottom;
position = "{306, 0}";
},
{
name = top;
position = "{384, 636}";
}
);
background = {
paths = (
{
closed = 1;
nodes = (
"425 -12 OFFCURVE",
"502 28 OFFCURVE",
"502 28 CURVE",
"508 37 LINE",
"523 107 OFFCURVE",
"554 197 OFFCURVE",
"554 197 CURVE",
"511 193 LINE",
"473 84 OFFCURVE",
"413 33 OFFCURVE",
"325 33 CURVE SMOOTH",
"206 33 OFFCURVE",
"135 132 OFFCURVE",
"135 282 CURVE SMOOTH",
"135 469 OFFCURVE",
"239 594 OFFCURVE",
"386 594 CURVE SMOOTH",
"474 594 OFFCURVE",
"517 566 OFFCURVE",
"517 510 CURVE SMOOTH",
"517 490 OFFCURVE",
"508 451 OFFCURVE",
"508 451 CURVE",
"551 455 LINE",
"568 545 OFFCURVE",
"596 619 OFFCURVE",
"596 619 CURVE",
"593 625 LINE",
"593 625 OFFCURVE",
"499 648 OFFCURVE",
"420 648 CURVE SMOOTH",
"209 648 OFFCURVE",
"48 477 OFFCURVE",
"48 253 CURVE SMOOTH",
"48 91 OFFCURVE",
"153 -12 OFFCURVE",
"310 -12 CURVE SMOOTH"
);
}
);
};
layerId = UUID0;
paths = (
{
closed = 1;
nodes = (
"425 -12 OFFCURVE",
"502 28 OFFCURVE",
"502 28 CURVE",
"508 37 LINE",
"523 107 OFFCURVE",
"554 197 OFFCURVE",
"554 197 CURVE",
"511 193 LINE",
"473 84 OFFCURVE",
"413 33 OFFCURVE",
"325 33 CURVE SMOOTH",
"206 33 OFFCURVE",
"135 132 OFFCURVE",
"135 282 CURVE SMOOTH",
"135 469 OFFCURVE",
"239 594 OFFCURVE",
"386 594 CURVE SMOOTH",
"474 594 OFFCURVE",
"517 566 OFFCURVE",
"517 510 CURVE SMOOTH",
"517 490 OFFCURVE",
"508 451 OFFCURVE",
"508 451 CURVE",
"551 455 LINE",
"568 545 OFFCURVE",
"596 619 OFFCURVE",
"596 619 CURVE",
"593 625 LINE",
"593 625 OFFCURVE",
"499 648 OFFCURVE",
"420 648 CURVE SMOOTH",
"209 648 OFFCURVE",
"48 477 OFFCURVE",
"48 253 CURVE SMOOTH",
"48 91 OFFCURVE",
"153 -12 OFFCURVE",
"310 -12 CURVE SMOOTH"
);
}
);
width = 615;
},
{
anchors = (
{
name = bottom;
position = "{314, 0}";
},
{
name = top;
position = "{335, 647}";
}
);
background = {
paths = (
{
closed = 1;
nodes = (
"405 -11 OFFCURVE",
"505 27 OFFCURVE",
"505 27 CURVE",
"520 43 LINE",
"531 139 OFFCURVE",
"557 256 OFFCURVE",
"557 256 CURVE",
"402 246 LINE",
"383 154 OFFCURVE",
"365 130 OFFCURVE",
"316 130 CURVE SMOOTH",
"267 130 OFFCURVE",
"248 168 OFFCURVE",
"248 268 CURVE SMOOTH",
"248 450 OFFCURVE",
"276 521 OFFCURVE",
"349 521 CURVE SMOOTH",
"391 521 OFFCURVE",
"415 501 OFFCURVE",
"415 465 CURVE SMOOTH",
"415 447 OFFCURVE",
"404 390 OFFCURVE",
"404 390 CURVE",
"560 399 LINE",
"582 521 OFFCURVE",
"614 613 OFFCURVE",
"614 613 CURVE",
"608 633 LINE",
"608 633 OFFCURVE",
"469 659 OFFCURVE",
"386 659 CURVE SMOOTH",
"146 659 OFFCURVE",
"18 520 OFFCURVE",
"18 259 CURVE SMOOTH",
"18 86 OFFCURVE",
"112 -11 OFFCURVE",
"279 -11 CURVE SMOOTH"
);
}
);
};
layerId = UUID1;
paths = (
{
closed = 1;
nodes = (
"405 -11 OFFCURVE",
"505 27 OFFCURVE",
"505 27 CURVE",
"520 43 LINE",
"531 139 OFFCURVE",
"557 256 OFFCURVE",
"557 256 CURVE",
"402 246 LINE",
"383 154 OFFCURVE",
"365 130 OFFCURVE",
"316 130 CURVE SMOOTH",
"267 130 OFFCURVE",
"248 168 OFFCURVE",
"248 268 CURVE SMOOTH",
"248 450 OFFCURVE",
"276 521 OFFCURVE",
"349 521 CURVE SMOOTH",
"391 521 OFFCURVE",
"415 501 OFFCURVE",
"415 465 CURVE SMOOTH",
"415 447 OFFCURVE",
"404 390 OFFCURVE",
"404 390 CURVE",
"560 399 LINE",
"582 521 OFFCURVE",
"614 613 OFFCURVE",
"614 613 CURVE",
"608 633 LINE",
"608 633 OFFCURVE",
"469 659 OFFCURVE",
"386 659 CURVE SMOOTH",
"146 659 OFFCURVE",
"18 520 OFFCURVE",
"18 259 CURVE SMOOTH",
"18 86 OFFCURVE",
"112 -11 OFFCURVE",
"279 -11 CURVE SMOOTH"
);
}
);
width = 584;
}
);
leftKerningGroup = O;
rightKerningGroup = C;
unicode = 0043;
},
{
color = 1;
glyphname = D;
lastChange = "2017-01-28 13:41:37 +0000";
layers = (
{
anchors = (
{
name = bottom;
position = "{297, 0}";
},
{
name = center;
position = "{336, 318}";
},
{
name = top;
position = "{375, 636}";
}
);
background = {
paths = (
{
closed = 1;
nodes = (
"474 -12 OFFCURVE",
"640 165 OFFCURVE",
"640 376 CURVE SMOOTH",
"640 533 OFFCURVE",
"520 640 OFFCURVE",
"349 640 CURVE SMOOTH",
"349 640 OFFCURVE",
"257 636 OFFCURVE",
"213 636 CURVE SMOOTH",
"176 636 OFFCURVE",
"113 639 OFFCURVE",
"113 639 CURVE",
"102 598 LINE",
"103 594 LINE",
"103 594 OFFCURVE",
"125 596 OFFCURVE",
"137 596 CURVE SMOOTH",
"165 596 OFFCURVE",
"170 585 OFFCURVE",
"165 542 CURVE SMOOTH",
"113 117 LINE SMOOTH",
"106 61 OFFCURVE",
"88 43 OFFCURVE",
"26 31 CURVE",
"15 -12 LINE",
"15 -12 OFFCURVE",
"79 0 OFFCURVE",
"127 0 CURVE SMOOTH",
"175 0 OFFCURVE",
"273 -12 OFFCURVE",
"273 -12 CURVE"
);
},
{
closed = 1;
nodes = (
"460 596 OFFCURVE",
"554 509 OFFCURVE",
"554 356 CURVE SMOOTH",
"554 167 OFFCURVE",
"450 35 OFFCURVE",
"292 35 CURVE SMOOTH",
"206 35 OFFCURVE",
"178 50 OFFCURVE",
"178 107 CURVE SMOOTH",
"178 143 OFFCURVE",
"205 299 OFFCURVE",
"249 574 CURVE SMOOTH",
"252 592 OFFCURVE",
"259 596 OFFCURVE",
"285 596 CURVE SMOOTH"
);
}
);
};
layerId = UUID0;
paths = (
{
closed = 1;
nodes = (
"474 -12 OFFCURVE",
"640 165 OFFCURVE",
"640 376 CURVE SMOOTH",
"640 533 OFFCURVE",
"520 640 OFFCURVE",
"349 640 CURVE SMOOTH",
"349 640 OFFCURVE",
"257 636 OFFCURVE",
"213 636 CURVE SMOOTH",
"176 636 OFFCURVE",
"113 639 OFFCURVE",
"113 639 CURVE",
"102 598 LINE",
"103 594 LINE",
"103 594 OFFCURVE",
"125 596 OFFCURVE",
"137 596 CURVE SMOOTH",
"165 596 OFFCURVE",
"170 585 OFFCURVE",
"165 542 CURVE SMOOTH",
"113 117 LINE SMOOTH",
"106 61 OFFCURVE",
"88 43 OFFCURVE",
"26 31 CURVE",
"15 -12 LINE",
"15 -12 OFFCURVE",
"79 0 OFFCURVE",
"127 0 CURVE SMOOTH",
"175 0 OFFCURVE",
"273 -12 OFFCURVE",
"273 -12 CURVE"
);
},
{
closed = 1;
nodes = (
"460 596 OFFCURVE",
"554 509 OFFCURVE",
"554 356 CURVE SMOOTH",
"554 167 OFFCURVE",
"450 35 OFFCURVE",
"292 35 CURVE SMOOTH",
"206 35 OFFCURVE",
"178 50 OFFCURVE",
"178 107 CURVE SMOOTH",
"178 143 OFFCURVE",
"205 299 OFFCURVE",
"249 574 CURVE SMOOTH",
"252 592 OFFCURVE",
"259 596 OFFCURVE",
"285 596 CURVE SMOOTH"
);
}
);
width = 663;
},
{
anchors = (
{
name = bottom;
position = "{278, 0}";
},
{
name = center;
position = "{341, 324}";
},
{
name = top;
position = "{347, 647}";
}
);
background = {
paths = (
{
closed = 1;
nodes = (
"511 -12 OFFCURVE",
"665 153 OFFCURVE",
"665 402 CURVE SMOOTH",
"665 568 OFFCURVE",
"563 653 OFFCURVE",
"382 653 CURVE SMOOTH",
"382 653 OFFCURVE",
"274 647 OFFCURVE",
"229 647 CURVE SMOOTH",
"189 647 OFFCURVE",
"80 650 OFFCURVE",
"80 650 CURVE",
"61 569 LINE",
"69 555 LINE",
"69 555 OFFCURVE",
"86 557 OFFCURVE",
"100 557 CURVE SMOOTH",
"118 557 OFFCURVE",
"122 545 OFFCURVE",
"117 503 CURVE SMOOTH",
"76 168 LINE SMOOTH",
"67 110 OFFCURVE",
"51 93 OFFCURVE",
"4 85 CURVE",
"-16 -8 LINE",
"-16 -8 OFFCURVE",
"71 0 OFFCURVE",
"126 0 CURVE SMOOTH",
"187 0 OFFCURVE",
"279 -12 OFFCURVE",
"279 -12 CURVE"
);
},
{
closed = 1;
nodes = (
"411 526 OFFCURVE",
"435 493 OFFCURVE",
"435 398 CURVE SMOOTH",
"435 211 OFFCURVE",
"386 113 OFFCURVE",
"293 113 CURVE SMOOTH",
"274 113 OFFCURVE",
"267 121 OFFCURVE",
"267 145 CURVE SMOOTH",
"267 155 OFFCURVE",
"313 465 OFFCURVE",
"320 499 CURVE SMOOTH",
"324 520 OFFCURVE",
"329 526 OFFCURVE",
"343 526 CURVE SMOOTH"
);
}
);
};
layerId = UUID1;
paths = (
{
closed = 1;
nodes = (
"511 -12 OFFCURVE",
"665 153 OFFCURVE",
"665 402 CURVE SMOOTH",
"665 568 OFFCURVE",
"563 653 OFFCURVE",
"382 653 CURVE SMOOTH",
"382 653 OFFCURVE",
"274 647 OFFCURVE",
"229 647 CURVE SMOOTH",
"189 647 OFFCURVE",
"80 650 OFFCURVE",
"80 650 CURVE",
"61 569 LINE",
"69 555 LINE",
"69 555 OFFCURVE",
"86 557 OFFCURVE",
"100 557 CURVE SMOOTH",
"118 557 OFFCURVE",
"122 545 OFFCURVE",
"117 503 CURVE SMOOTH",
"76 168 LINE SMOOTH",
"67 110 OFFCURVE",
"51 93 OFFCURVE",
"4 85 CURVE",
"-16 -8 LINE",
"-16 -8 OFFCURVE",
"71 0 OFFCURVE",
"126 0 CURVE SMOOTH",
"187 0 OFFCURVE",
"279 -12 OFFCURVE",
"279 -12 CURVE"
);
},
{
closed = 1;
nodes = (
"411 526 OFFCURVE",
"435 493 OFFCURVE",
"435 398 CURVE SMOOTH",
"435 211 OFFCURVE",
"386 113 OFFCURVE",
"293 113 CURVE SMOOTH",
"274 113 OFFCURVE",
"267 121 OFFCURVE",
"267 145 CURVE SMOOTH",
"267 155 OFFCURVE",
"313 465 OFFCURVE",
"320 499 CURVE SMOOTH",
"324 520 OFFCURVE",
"329 526 OFFCURVE",
"343 526 CURVE SMOOTH"
);
}
);
width = 660;
}
);
leftKerningGroup = H;
rightKerningGroup = O;
unicode = 0044;
},
{
color = 0;
glyphname = Eth;
lastChange = "2017-01-28 13:41:10 +0000";
layers = (
{
components = (
{
name = D;
transform = "{1, 0, 0, 1, 19, 0}";
}
);
layerId = UUID0;
paths = (
{
closed = 1;
nodes = (
"204 343 LINE",
"40 343 LINE",
"29 311 LINE",
"35 304 LINE",
"199 304 LINE"
);
},
{
closed = 1;
nodes = (
"217 304 LINE",
"399 304 LINE",
"409 336 LINE",
"405 343 LINE",
"222 343 LINE"
);
}
);
width = 695;
},
{
components = (
{
name = D;
transform = "{1, 0, 0, 1, 20, 0}";
}
);
layerId = UUID1;
paths = (
{
closed = 1;
nodes = (
"133 363 LINE",
"35 363 LINE",
"11 274 LINE",
"20 266 LINE",
"121 266 LINE"
);
},
{
closed = 1;
nodes = (
"295 267 LINE",
"377 267 LINE",
"395 357 LINE",
"388 367 LINE",
"310 364 LINE"
);
}
);
width = 680;
}
);
rightKerningGroup = O;
unicode = 00D0;
},
{
color = 1;
glyphname = E;
lastChange = "2017-01-28 13:41:16 +0000";
layers = (
{
anchors = (
{
name = bottom;
position = "{243, 0}";
},
{
name = ogonek;
position = "{441, 10}";
},
{
name = top;
position = "{331, 636}";
},
{
name = topleft;
position = "{57, 636}";
}
);
background = {
paths = (
{
closed = 1;
nodes = (
"172 114 OFFCURVE",
"187 186 OFFCURVE",
"203 298 CURVE",
"219 301 OFFCURVE",
"249 305 OFFCURVE",
"277 305 CURVE SMOOTH",
"330 305 OFFCURVE",
"412 302 OFFCURVE",
"412 302 CURVE",
"432 358 LINE",
"429 362 LINE",
"429 362 OFFCURVE",
"345 351 OFFCURVE",
"311 351 CURVE SMOOTH",
"282 351 OFFCURVE",
"233 352 OFFCURVE",
"212 352 CURVE",
"243 551 LINE SMOOTH",
"249 589 OFFCURVE",
"253 590 OFFCURVE",
"316 590 CURVE SMOOTH",
"433 590 OFFCURVE",
"458 586 OFFCURVE",
"458 540 CURVE SMOOTH",
"458 514 OFFCURVE",
"449 475 OFFCURVE",
"449 475 CURVE",
"493 479 LINE",
"510 571 OFFCURVE",
"535 643 OFFCURVE",
"535 643 CURVE",
"533 648 LINE",
"469 639 OFFCURVE",
"398 636 OFFCURVE",
"244 636 CURVE SMOOTH",
"187 636 OFFCURVE",
"113 639 OFFCURVE",
"113 639 CURVE",
"102 597 LINE",
"103 594 LINE",
"103 594 OFFCURVE",
"125 596 OFFCURVE",
"136 596 CURVE SMOOTH",
"165 596 OFFCURVE",
"170 585 OFFCURVE",
"165 542 CURVE SMOOTH",
"112 117 LINE SMOOTH",
"105 60 OFFCURVE",
"86 41 OFFCURVE",
"27 33 CURVE",
"16 -10 LINE",
"16 -10 OFFCURVE",
"76 0 OFFCURVE",
"148 0 CURVE SMOOTH",
"238 0 OFFCURVE",
"437 -7 OFFCURVE",
"437 -7 CURVE",
"442 -2 LINE",
"461 82 OFFCURVE",
"489 164 OFFCURVE",
"489 164 CURVE",
"487 169 LINE",
"446 164 LINE",
"417 53 OFFCURVE",
"398 41 OFFCURVE",
"244 41 CURVE SMOOTH",
"188 41 OFFCURVE",
"172 45 OFFCURVE",
"172 80 CURVE SMOOTH"
);
}
);
};
layerId = UUID0;
paths = (
{
closed = 1;
nodes = (
"172 114 OFFCURVE",
"187 186 OFFCURVE",
"203 298 CURVE",
"219 301 OFFCURVE",
"249 305 OFFCURVE",
"277 305 CURVE SMOOTH",
"330 305 OFFCURVE",
"412 302 OFFCURVE",
"412 302 CURVE",
"432 358 LINE",
"429 362 LINE",
"429 362 OFFCURVE",
"345 351 OFFCURVE",
"311 351 CURVE SMOOTH",
"282 351 OFFCURVE",
"233 352 OFFCURVE",
"212 352 CURVE",
"243 551 LINE SMOOTH",
"249 589 OFFCURVE",
"253 590 OFFCURVE",
"316 590 CURVE SMOOTH",
"433 590 OFFCURVE",
"458 586 OFFCURVE",
"458 540 CURVE SMOOTH",
"458 514 OFFCURVE",
"449 475 OFFCURVE",
"449 475 CURVE",
"493 479 LINE",
"510 571 OFFCURVE",
"535 643 OFFCURVE",
"535 643 CURVE",
"533 648 LINE",
"469 639 OFFCURVE",
"398 636 OFFCURVE",
"244 636 CURVE SMOOTH",
"187 636 OFFCURVE",
"113 639 OFFCURVE",
"113 639 CURVE",
"102 597 LINE",
"103 594 LINE",
"103 594 OFFCURVE",
"125 596 OFFCURVE",
"136 596 CURVE SMOOTH",
"165 596 OFFCURVE",
"170 585 OFFCURVE",
"165 542 CURVE SMOOTH",
"112 117 LINE SMOOTH",
"105 60 OFFCURVE",
"86 41 OFFCURVE",
"27 33 CURVE",
"16 -10 LINE",
"16 -10 OFFCURVE",
"76 0 OFFCURVE",
"148 0 CURVE SMOOTH",
"238 0 OFFCURVE",
"437 -7 OFFCURVE",
"437 -7 CURVE",
"442 -2 LINE",
"461 82 OFFCURVE",
"489 164 OFFCURVE",
"489 164 CURVE",
"487 169 LINE",
"446 164 LINE",
"417 53 OFFCURVE",
"398 41 OFFCURVE",
"244 41 CURVE SMOOTH",
"188 41 OFFCURVE",
"172 45 OFFCURVE",
"172 80 CURVE SMOOTH"
);
}
);
width = 556;
},
{
anchors = (
{
name = bottom;
position = "{264, 0}";
},
{
name = ogonek;
position = "{488, 40}";
},
{
name = top;
position = "{353, 647}";
},
{
name = topleft;
position = "{70, 647}";
}
);
background = {
paths = (
{
closed = 1;
nodes = (
"269 173 OFFCURVE",
"278 226 OFFCURVE",
"283 260 CURVE",
"301 262 OFFCURVE",
"328 266 OFFCURVE",
"356 266 CURVE SMOOTH",
"400 266 OFFCURVE",
"471 263 OFFCURVE",
"471 263 CURVE",
"499 378 LINE",
"489 392 LINE",
"489 392 OFFCURVE",
"411 386 OFFCURVE",
"382 386 CURVE SMOOTH",
"355 386 OFFCURVE",
"322 387 OFFCURVE",
"303 387 CURVE",
"323 500 LINE SMOOTH",
"327 522 OFFCURVE",
"332 527 OFFCURVE",
"358 527 CURVE SMOOTH",
"424 527 OFFCURVE",
"444 519 OFFCURVE",
"444 484 CURVE SMOOTH",
"444 467 OFFCURVE",
"436 435 OFFCURVE",
"436 435 CURVE",
"576 444 LINE",
"592 538 OFFCURVE",
"623 643 OFFCURVE",
"623 643 CURVE",
"612 659 LINE",
"557 652 OFFCURVE",
"430 647 OFFCURVE",
"310 647 CURVE SMOOTH",
"220 647 OFFCURVE",
"80 650 OFFCURVE",
"80 650 CURVE",
"61 571 LINE",
"71 557 LINE",
"71 557 OFFCURVE",
"86 559 OFFCURVE",
"96 559 CURVE SMOOTH",
"117 559 OFFCURVE",
"121 548 OFFCURVE",
"116 505 CURVE SMOOTH",
"73 170 LINE SMOOTH",
"66 110 OFFCURVE",
"49 90 OFFCURVE",
"0 82 CURVE",
"-20 -10 LINE",
"-20 -10 OFFCURVE",
"88 0 OFFCURVE",
"190 0 CURVE SMOOTH",
"343 0 OFFCURVE",
"501 -7 OFFCURVE",
"501 -7 CURVE",
"518 9 LINE",
"541 118 OFFCURVE",
"571 215 OFFCURVE",
"571 215 CURVE",
"560 230 LINE",
"431 221 LINE",
"408 131 OFFCURVE",
"389 115 OFFCURVE",
"309 115 CURVE SMOOTH",
"279 115 OFFCURVE",
"269 121 OFFCURVE",
"269 151 CURVE SMOOTH"
);
}
);
};
layerId = UUID1;
paths = (
{
closed = 1;
nodes = (
"269 173 OFFCURVE",
"278 226 OFFCURVE",
"283 260 CURVE",
"301 262 OFFCURVE",
"328 266 OFFCURVE",
"356 266 CURVE SMOOTH",
"400 266 OFFCURVE",
"471 263 OFFCURVE",
"471 263 CURVE",
"499 378 LINE",
"489 392 LINE",
"489 392 OFFCURVE",
"411 386 OFFCURVE",
"382 386 CURVE SMOOTH",
"355 386 OFFCURVE",
"322 387 OFFCURVE",
"303 387 CURVE",
"323 500 LINE SMOOTH",
"327 522 OFFCURVE",
"332 527 OFFCURVE",
"358 527 CURVE SMOOTH",
"424 527 OFFCURVE",
"444 519 OFFCURVE",
"444 484 CURVE SMOOTH",
"444 467 OFFCURVE",
"436 435 OFFCURVE",
"436 435 CURVE",
"576 444 LINE",
"592 538 OFFCURVE",
"623 643 OFFCURVE",
"623 643 CURVE",
"612 659 LINE",
"557 652 OFFCURVE",
"430 647 OFFCURVE",
"310 647 CURVE SMOOTH",
"220 647 OFFCURVE",
"80 650 OFFCURVE",
"80 650 CURVE",
"61 571 LINE",
"71 557 LINE",
"71 557 OFFCURVE",
"86 559 OFFCURVE",
"96 559 CURVE SMOOTH",
"117 559 OFFCURVE",
"121 548 OFFCURVE",
"116 505 CURVE SMOOTH",
"73 170 LINE SMOOTH",
"66 110 OFFCURVE",
"49 90 OFFCURVE",
"0 82 CURVE",
"-20 -10 LINE",
"-20 -10 OFFCURVE",
"88 0 OFFCURVE",
"190 0 CURVE SMOOTH",
"343 0 OFFCURVE",
"501 -7 OFFCURVE",
"501 -7 CURVE",
"518 9 LINE",
"541 118 OFFCURVE",
"571 215 OFFCURVE",
"571 215 CURVE",
"560 230 LINE",
"431 221 LINE",
"408 131 OFFCURVE",
"389 115 OFFCURVE",
"309 115 CURVE SMOOTH",
"279 115 OFFCURVE",
"269 121 OFFCURVE",
"269 151 CURVE SMOOTH"
);
}
);
width = 586;
}
);
leftKerningGroup = H;
rightKerningGroup = E;
unicode = 0045;
},
{
color = 1;
glyphname = F;
lastChange = "2017-01-28 13:41:28 +0000";
layers = (
{
anchors = (
{
name = bottom;
position = "{169, 0}";
},
{
name = top;
position = "{305, 647}";
}
);
background = {
paths = (
{
closed = 1;
nodes = (
"200 280 LINE",
"217 283 OFFCURVE",
"246 287 OFFCURVE",
"275 287 CURVE SMOOTH",
"320 287 OFFCURVE",
"394 284 OFFCURVE",
"394 284 CURVE",
"413 341 LINE",
"411 345 LINE",
"411 345 OFFCURVE",
"339 334 OFFCURVE",
"309 334 CURVE SMOOTH",
"210 335 LINE",
"243 551 LINE SMOOTH",
"249 589 OFFCURVE",
"253 590 OFFCURVE",
"316 590 CURVE SMOOTH",
"416 590 OFFCURVE",
"440 586 OFFCURVE",
"440 541 CURVE SMOOTH",
"440 514 OFFCURVE",
"431 472 OFFCURVE",
"431 472 CURVE",
"474 476 LINE",
"491 568 OFFCURVE",
"517 643 OFFCURVE",
"517 643 CURVE",
"515 648 LINE",
"453 639 OFFCURVE",
"376 636 OFFCURVE",
"244 636 CURVE SMOOTH",
"187 636 OFFCURVE",
"113 639 OFFCURVE",
"113 639 CURVE",
"102 597 LINE",
"103 594 LINE",
"103 594 OFFCURVE",
"125 596 OFFCURVE",
"136 596 CURVE SMOOTH",
"165 596 OFFCURVE",
"170 585 OFFCURVE",
"165 542 CURVE SMOOTH",
"112 117 LINE SMOOTH",
"105 61 OFFCURVE",
"88 43 OFFCURVE",
"26 31 CURVE",
"16 -12 LINE",
"16 -12 OFFCURVE",
"77 0 OFFCURVE",
"124 0 CURVE SMOOTH",
"175 0 OFFCURVE",
"266 -4 OFFCURVE",
"266 -4 CURVE",
"279 39 LINE",
"278 43 LINE",
"278 43 OFFCURVE",
"229 40 OFFCURVE",
"209 40 CURVE SMOOTH",
"176 40 OFFCURVE",
"168 61 OFFCURVE",
"175 108 CURVE SMOOTH"
);
}
);
};
layerId = UUID0;
paths = (
{
closed = 1;
nodes = (
"200 280 LINE",
"217 283 OFFCURVE",
"246 287 OFFCURVE",
"275 287 CURVE SMOOTH",
"320 287 OFFCURVE",
"394 284 OFFCURVE",
"394 284 CURVE",
"413 341 LINE",
"411 345 LINE",
"411 345 OFFCURVE",
"339 334 OFFCURVE",
"309 334 CURVE SMOOTH",
"210 335 LINE",
"243 551 LINE SMOOTH",
"249 589 OFFCURVE",
"253 590 OFFCURVE",
"316 590 CURVE SMOOTH",
"416 590 OFFCURVE",
"440 586 OFFCURVE",
"440 541 CURVE SMOOTH",
"440 514 OFFCURVE",
"431 472 OFFCURVE",
"431 472 CURVE",
"474 476 LINE",
"491 568 OFFCURVE",
"517 643 OFFCURVE",
"517 643 CURVE",
"515 648 LINE",
"453 639 OFFCURVE",
"376 636 OFFCURVE",
"244 636 CURVE SMOOTH",
"187 636 OFFCURVE",
"113 639 OFFCURVE",
"113 639 CURVE",
"102 597 LINE",
"103 594 LINE",
"103 594 OFFCURVE",
"125 596 OFFCURVE",
"136 596 CURVE SMOOTH",
"165 596 OFFCURVE",
"170 585 OFFCURVE",
"165 542 CURVE SMOOTH",
"112 117 LINE SMOOTH",
"105 61 OFFCURVE",
"88 43 OFFCURVE",
"26 31 CURVE",
"16 -12 LINE",
"16 -12 OFFCURVE",
"77 0 OFFCURVE",
"124 0 CURVE SMOOTH",
"175 0 OFFCURVE",
"266 -4 OFFCURVE",
"266 -4 CURVE",
"279 39 LINE",
"278 43 LINE",
"278 43 OFFCURVE",
"229 40 OFFCURVE",
"209 40 CURVE SMOOTH",
"176 40 OFFCURVE",
"168 61 OFFCURVE",
"175 108 CURVE SMOOTH"
);
}
);
width = 479;
},
{
anchors = (
{
name = bottom;
position = "{182, 0}";
},
{
name = top;
position = "{318, 647}";
}
);
background = {
paths = (
{
closed = 1;
nodes = (
"281 243 LINE",
"298 245 OFFCURVE",
"326 249 OFFCURVE",
"354 249 CURVE SMOOTH",
"397 249 OFFCURVE",
"465 246 OFFCURVE",
"465 246 CURVE",
"493 361 LINE",
"482 375 LINE",
"482 375 OFFCURVE",
"408 369 OFFCURVE",
"380 369 CURVE SMOOTH",
"300 370 LINE",
"323 500 LINE SMOOTH",
"327 522 OFFCURVE",
"332 527 OFFCURVE",
"358 527 CURVE SMOOTH",
"405 527 OFFCURVE",
"421 517 OFFCURVE",
"421 484 CURVE SMOOTH",
"421 467 OFFCURVE",
"414 436 OFFCURVE",
"414 436 CURVE",
"554 444 LINE",
"569 536 OFFCURVE",
"595 643 OFFCURVE",
"595 643 CURVE",
"584 659 LINE",
"534 652 OFFCURVE",
"419 647 OFFCURVE",
"310 647 CURVE SMOOTH",
"220 647 OFFCURVE",
"80 650 OFFCURVE",
"80 650 CURVE",
"61 571 LINE",
"71 557 LINE",
"71 557 OFFCURVE",
"86 559 OFFCURVE",
"96 559 CURVE SMOOTH",
"117 559 OFFCURVE",
"121 548 OFFCURVE",
"116 505 CURVE SMOOTH",
"73 170 LINE SMOOTH",
"65 110 OFFCURVE",
"49 90 OFFCURVE",
"0 82 CURVE",
"-20 -10 LINE",
"-20 -10 OFFCURVE",
"88 0 OFFCURVE",
"191 0 CURVE SMOOTH",
"236 0 OFFCURVE",
"349 -3 OFFCURVE",
"349 -3 CURVE",
"375 105 LINE",
"361 123 LINE",
"361 123 OFFCURVE",
"335 115 OFFCURVE",
"305 115 CURVE SMOOTH",
"272 115 OFFCURVE",
"266 127 OFFCURVE",
"272 175 CURVE SMOOTH"
);
}
);
};
layerId = UUID1;
paths = (
{
closed = 1;
nodes = (
"281 243 LINE",
"298 245 OFFCURVE",
"326 249 OFFCURVE",
"354 249 CURVE SMOOTH",
"397 249 OFFCURVE",
"465 246 OFFCURVE",
"465 246 CURVE",
"493 361 LINE",
"482 375 LINE",
"482 375 OFFCURVE",
"408 369 OFFCURVE",
"380 369 CURVE SMOOTH",
"300 370 LINE",
"323 500 LINE SMOOTH",
"327 522 OFFCURVE",
"332 527 OFFCURVE",
"358 527 CURVE SMOOTH",
"405 527 OFFCURVE",
"421 517 OFFCURVE",
"421 484 CURVE SMOOTH",
"421 467 OFFCURVE",
"414 436 OFFCURVE",
"414 436 CURVE",
"554 444 LINE",
"569 536 OFFCURVE",
"595 643 OFFCURVE",
"595 643 CURVE",
"584 659 LINE",
"534 652 OFFCURVE",
"419 647 OFFCURVE",
"310 647 CURVE SMOOTH",
"220 647 OFFCURVE",
"80 650 OFFCURVE",
"80 650 CURVE",
"61 571 LINE",
"71 557 LINE",
"71 557 OFFCURVE",
"86 559 OFFCURVE",
"96 559 CURVE SMOOTH",
"117 559 OFFCURVE",
"121 548 OFFCURVE",
"116 505 CURVE SMOOTH",
"73 170 LINE SMOOTH",
"65 110 OFFCURVE",
"49 90 OFFCURVE",
"0 82 CURVE",
"-20 -10 LINE",
"-20 -10 OFFCURVE",
"88 0 OFFCURVE",
"191 0 CURVE SMOOTH",
"236 0 OFFCURVE",
"349 -3 OFFCURVE",
"349 -3 CURVE",
"375 105 LINE",
"361 123 LINE",
"361 123 OFFCURVE",
"335 115 OFFCURVE",
"305 115 CURVE SMOOTH",
"272 115 OFFCURVE",
"266 127 OFFCURVE",
"272 175 CURVE SMOOTH"
);
}
);
width = 540;
}
);
leftKerningGroup = H;
rightKerningGroup = F;
unicode = 0046;
},
{
color = 1;
glyphname = G;
lastChange = "2017-01-28 13:41:14 +0000";
layers = (
{
anchors = (
{
name = bottom;
position = "{315, 0}";
},
{
name = top;
position = "{393, 636}";
}
);
background = {
paths = (
{
closed = 1;
nodes = (
"431 -12 OFFCURVE",
"520 35 OFFCURVE",
"520 35 CURVE",
"526 43 LINE",
"526 43 OFFCURVE",
"525 64 OFFCURVE",
"525 73 CURVE SMOOTH",
"525 92 OFFCURVE",
"533 159 OFFCURVE",
"539 195 CURVE SMOOTH",
"546 242 OFFCURVE",
"560 271 OFFCURVE",
"579 284 CURVE",
"578 304 LINE SMOOTH",
"578 304 OFFCURVE",
"536 299 OFFCURVE",
"495 299 CURVE SMOOTH",
"438 299 OFFCURVE",
"373 303 OFFCURVE",
"374 303 CURVE",
"360 256 LINE",
"361 252 LINE",
"361 252 OFFCURVE",
"406 252 OFFCURVE",
"428 252 CURVE SMOOTH",
"472 252 OFFCURVE",
"480 243 OFFCURVE",
"475 198 CURVE SMOOTH",
"460 72 LINE",
"460 72 OFFCURVE",
"404 33 OFFCURVE",
"325 33 CURVE SMOOTH",
"206 33 OFFCURVE",
"135 132 OFFCURVE",
"135 282 CURVE SMOOTH",
"135 469 OFFCURVE",
"239 594 OFFCURVE",
"386 594 CURVE SMOOTH",
"474 594 OFFCURVE",
"517 566 OFFCURVE",
"517 510 CURVE SMOOTH",
"517 490 OFFCURVE",
"508 451 OFFCURVE",
"508 451 CURVE",
"551 455 LINE",
"568 545 OFFCURVE",
"596 619 OFFCURVE",
"596 619 CURVE",
"593 625 LINE",
"593 625 OFFCURVE",
"499 648 OFFCURVE",
"420 648 CURVE SMOOTH",
"209 648 OFFCURVE",
"48 477 OFFCURVE",
"48 253 CURVE SMOOTH",
"48 91 OFFCURVE",
"153 -12 OFFCURVE",
"310 -12 CURVE SMOOTH"
);
}
);
};
layerId = UUID0;
paths = (
{
closed = 1;
nodes = (
"431 -12 OFFCURVE",
"520 35 OFFCURVE",
"520 35 CURVE",
"526 43 LINE",
"526 43 OFFCURVE",
"525 64 OFFCURVE",
"525 73 CURVE SMOOTH",
"525 92 OFFCURVE",
"533 159 OFFCURVE",
"539 195 CURVE SMOOTH",
"546 242 OFFCURVE",
"560 271 OFFCURVE",
"579 284 CURVE",
"578 304 LINE SMOOTH",
"578 304 OFFCURVE",
"536 299 OFFCURVE",
"495 299 CURVE SMOOTH",
"438 299 OFFCURVE",
"373 303 OFFCURVE",
"374 303 CURVE",
"360 256 LINE",
"361 252 LINE",
"361 252 OFFCURVE",
"406 252 OFFCURVE",
"428 252 CURVE SMOOTH",
"472 252 OFFCURVE",
"480 243 OFFCURVE",
"475 198 CURVE SMOOTH",
"460 72 LINE",
"460 72 OFFCURVE",
"404 33 OFFCURVE",
"325 33 CURVE SMOOTH",
"206 33 OFFCURVE",
"135 132 OFFCURVE",
"135 282 CURVE SMOOTH",
"135 469 OFFCURVE",
"239 594 OFFCURVE",
"386 594 CURVE SMOOTH",
"474 594 OFFCURVE",
"517 566 OFFCURVE",
"517 510 CURVE SMOOTH",
"517 490 OFFCURVE",
"508 451 OFFCURVE",
"508 451 CURVE",
"551 455 LINE",
"568 545 OFFCURVE",
"596 619 OFFCURVE",
"596 619 CURVE",
"593 625 LINE",
"593 625 OFFCURVE",
"499 648 OFFCURVE",
"420 648 CURVE SMOOTH",
"209 648 OFFCURVE",
"48 477 OFFCURVE",
"48 253 CURVE SMOOTH",
"48 91 OFFCURVE",
"153 -12 OFFCURVE",
"310 -12 CURVE SMOOTH"
);
}
);
width = 635;
},
{
anchors = (
{
name = bottom;
position = "{280, 0}";
},
{
name = top;
position = "{379, 647}";
}
);
background = {
paths = (
{
closed = 1;
nodes = (
"438 -11 OFFCURVE",
"519 22 OFFCURVE",
"519 22 CURVE",
"533 38 LINE",
"533 38 OFFCURVE",
"532 56 OFFCURVE",
"532 76 CURVE SMOOTH",
"532 94 OFFCURVE",
"543 179 OFFCURVE",
"552 226 CURVE SMOOTH",
"558 262 OFFCURVE",
"571 283 OFFCURVE",
"600 301 CURVE",
"597 359 LINE SMOOTH",
"597 357 OFFCURVE",
"529 354 OFFCURVE",
"489 354 CURVE SMOOTH",
"440 354 OFFCURVE",
"339 354 OFFCURVE",
"339 354 CURVE",
"316 259 LINE",
"323 245 LINE",
"323 245 OFFCURVE",
"338 246 OFFCURVE",
"354 246 CURVE SMOOTH",
"377 246 OFFCURVE",
"382 237 OFFCURVE",
"378 205 CURVE SMOOTH",
"371 142 LINE",
"371 142 OFFCURVE",
"349 130 OFFCURVE",
"316 130 CURVE SMOOTH",
"267 130 OFFCURVE",
"248 168 OFFCURVE",
"248 268 CURVE SMOOTH",
"248 450 OFFCURVE",
"276 521 OFFCURVE",
"349 521 CURVE SMOOTH",
"391 521 OFFCURVE",
"415 504 OFFCURVE",
"415 468 CURVE SMOOTH",
"415 450 OFFCURVE",
"404 404 OFFCURVE",
"404 404 CURVE",
"560 413 LINE",
"582 535 OFFCURVE",
"614 613 OFFCURVE",
"614 613 CURVE",
"608 633 LINE",
"608 633 OFFCURVE",
"469 659 OFFCURVE",
"386 659 CURVE SMOOTH",
"146 659 OFFCURVE",
"18 520 OFFCURVE",
"18 259 CURVE SMOOTH",
"18 86 OFFCURVE",
"112 -11 OFFCURVE",
"279 -11 CURVE SMOOTH"
);
}
);
};
layerId = UUID1;
paths = (
{
closed = 1;
nodes = (
"438 -11 OFFCURVE",
"519 22 OFFCURVE",
"519 22 CURVE",
"533 38 LINE",
"533 38 OFFCURVE",
"532 56 OFFCURVE",
"532 76 CURVE SMOOTH",
"532 94 OFFCURVE",
"543 179 OFFCURVE",
"552 226 CURVE SMOOTH",
"558 262 OFFCURVE",
"571 283 OFFCURVE",
"600 301 CURVE",
"597 359 LINE SMOOTH",
"597 357 OFFCURVE",
"529 354 OFFCURVE",
"489 354 CURVE SMOOTH",
"440 354 OFFCURVE",
"339 354 OFFCURVE",
"339 354 CURVE",
"316 259 LINE",
"323 245 LINE",
"323 245 OFFCURVE",
"338 246 OFFCURVE",
"354 246 CURVE SMOOTH",
"377 246 OFFCURVE",
"382 237 OFFCURVE",
"378 205 CURVE SMOOTH",
"371 142 LINE",
"371 142 OFFCURVE",
"349 130 OFFCURVE",
"316 130 CURVE SMOOTH",
"267 130 OFFCURVE",
"248 168 OFFCURVE",
"248 268 CURVE SMOOTH",
"248 450 OFFCURVE",
"276 521 OFFCURVE",
"349 521 CURVE SMOOTH",
"391 521 OFFCURVE",
"415 504 OFFCURVE",
"415 468 CURVE SMOOTH",
"415 450 OFFCURVE",
"404 404 OFFCURVE",
"404 404 CURVE",
"560 413 LINE",
"582 535 OFFCURVE",
"614 613 OFFCURVE",
"614 613 CURVE",
"608 633 LINE",
"608 633 OFFCURVE",
"469 659 OFFCURVE",
"386 659 CURVE SMOOTH",
"146 659 OFFCURVE",
"18 520 OFFCURVE",
"18 259 CURVE SMOOTH",
"18 86 OFFCURVE",
"112 -11 OFFCURVE",
"279 -11 CURVE SMOOTH"
);
}
);
width = 618;
}
);
leftKerningGroup = O;
rightKerningGroup = G;
unicode = 0047;
},
{
color = 1;
glyphname = H;
lastChange = "2017-01-28 13:41:27 +0000";
layers = (
{
anchors = (
{
name = bottom;
position = "{321, 0}";
},
{
name = center;
position = "{360, 318}";
},
{
name = top;
position = "{399, 636}";
},
{
name = topleft;
position = "{57, 636}";
}
);
background = {
paths = (
{
closed = 1;
nodes = (
"627 584 OFFCURVE",
"641 596 OFFCURVE",
"690 603 CURVE",
"698 646 LINE",
"649 640 OFFCURVE",
"606 636 OFFCURVE",
"582 636 CURVE SMOOTH",
"556 636 OFFCURVE",
"491 639 OFFCURVE",
"492 640 CURVE",
"479 597 LINE",
"481 594 LINE",
"491 595 OFFCURVE",
"506 596 OFFCURVE",
"514 596 CURVE SMOOTH",
"543 596 OFFCURVE",
"550 584 OFFCURVE",
"543 542 CURVE",
"519 356 LINE",
"452 348 OFFCURVE",
"417 346 OFFCURVE",
"374 346 CURVE SMOOTH",
"320 346 OFFCURVE",
"265 347 OFFCURVE",
"211 347 CURVE",
"237 511 LINE SMOOTH",
"248 585 OFFCURVE",
"256 594 OFFCURVE",
"312 603 CURVE",
"320 646 LINE",
"280 640 OFFCURVE",
"242 636 OFFCURVE",
"220 636 CURVE SMOOTH",
"195 636 OFFCURVE",
"147 638 OFFCURVE",
"114 640 CURVE",
"102 597 LINE",
"104 594 LINE",
"114 595 OFFCURVE",
"129 596 OFFCURVE",
"136 596 CURVE SMOOTH",
"165 596 OFFCURVE",
"170 586 OFFCURVE",
"165 542 CURVE SMOOTH",
"117 151 LINE",
"109 63 OFFCURVE",
"95 45 OFFCURVE",
"26 31 CURVE",
"15 -12 LINE",
"17 -7 OFFCURVE",
"104 0 OFFCURVE",
"163 0 CURVE SMOOTH",
"191 0 OFFCURVE",
"241 -2 OFFCURVE",
"241 -3 CURVE",
"255 41 LINE",
"255 42 OFFCURVE",
"254 44 OFFCURVE",
"254 45 CURVE SMOOTH",
"243 44 OFFCURVE",
"224 42 OFFCURVE",
"210 42 CURVE SMOOTH",
"186 42 OFFCURVE",
"178 47 OFFCURVE",
"175 67 CURVE SMOOTH",
"171 89 OFFCURVE",
"180 136 OFFCURVE",
"185 173 CURVE SMOOTH",
"202 293 LINE",
"268 299 OFFCURVE",
"345 304 OFFCURVE",
"364 304 CURVE SMOOTH",
"397 304 OFFCURVE",
"468 303 OFFCURVE",
"512 303 CURVE",
"494 149 LINE SMOOTH",
"483 61 OFFCURVE",
"468 42 OFFCURVE",
"407 41 CURVE",
"394 -2 LINE",
"394 -3 OFFCURVE",
"433 0 OFFCURVE",
"469 0 CURVE SMOOTH",
"500 0 LINE SMOOTH",
"531 0 OFFCURVE",
"586 -2 OFFCURVE",
"619 -3 CURVE",
"632 41 LINE",
"633 42 OFFCURVE",
"632 43 OFFCURVE",
"632 44 CURVE",
"621 43 OFFCURVE",
"602 41 OFFCURVE",
"588 41 CURVE SMOOTH",
"561 41 OFFCURVE",
"552 52 OFFCURVE",
"552 84 CURVE SMOOTH",
"552 114 OFFCURVE",
"574 264 OFFCURVE",
"620 546 CURVE"
);
}
);
};
layerId = UUID0;
paths = (
{
closed = 1;
nodes = (
"17 -7 OFFCURVE",
"104 0 OFFCURVE",
"163 0 CURVE SMOOTH",
"191 0 OFFCURVE",
"241 -2 OFFCURVE",
"241 -3 CURVE",
"255 41 LINE",
"255 42 OFFCURVE",
"254 44 OFFCURVE",
"254 45 CURVE SMOOTH",
"243 44 OFFCURVE",
"224 42 OFFCURVE",
"210 42 CURVE SMOOTH",
"186 42 OFFCURVE",
"178 47 OFFCURVE",
"175 67 CURVE SMOOTH",
"171 89 OFFCURVE",
"180 136 OFFCURVE",
"185 173 CURVE SMOOTH",
"204 307 LINE",
"237 511 LINE SMOOTH",
"248 585 OFFCURVE",
"256 594 OFFCURVE",
"312 603 CURVE",
"320 646 LINE",
"280 640 OFFCURVE",
"242 636 OFFCURVE",
"220 636 CURVE SMOOTH",
"195 636 OFFCURVE",
"147 638 OFFCURVE",
"114 640 CURVE",
"102 597 LINE",
"104 594 LINE",
"114 595 OFFCURVE",
"129 596 OFFCURVE",
"136 596 CURVE SMOOTH",
"165 596 OFFCURVE",
"170 586 OFFCURVE",
"165 542 CURVE SMOOTH",
"117 151 LINE",
"109 63 OFFCURVE",
"95 45 OFFCURVE",
"26 31 CURVE",
"15 -12 LINE"
);
},
{
closed = 1;
nodes = (
"255 298 OFFCURVE",
"343 304 OFFCURVE",
"364 304 CURVE",
"531 303 LINE",
"538 358 LINE",
"458 349 OFFCURVE",
"421 346 OFFCURVE",
"374 346 CURVE SMOOTH",
"315 346 OFFCURVE",
"256 347 OFFCURVE",
"197 347 CURVE",
"186 291 LINE"
);
},
{
closed = 1;
nodes = (
"632 41 LINE",
"633 42 OFFCURVE",
"632 43 OFFCURVE",
"632 44 CURVE",
"621 43 OFFCURVE",
"602 41 OFFCURVE",
"588 41 CURVE SMOOTH",
"561 41 OFFCURVE",
"552 52 OFFCURVE",
"552 84 CURVE SMOOTH",
"552 114 OFFCURVE",
"574 264 OFFCURVE",
"620 546 CURVE",
"627 584 OFFCURVE",
"641 596 OFFCURVE",
"690 603 CURVE",
"698 646 LINE",
"649 640 OFFCURVE",
"606 636 OFFCURVE",
"582 636 CURVE SMOOTH",
"556 636 OFFCURVE",
"491 639 OFFCURVE",
"492 640 CURVE",
"479 597 LINE",
"481 594 LINE",
"491 595 OFFCURVE",
"506 596 OFFCURVE",
"514 596 CURVE SMOOTH",
"543 596 OFFCURVE",
"548 584 OFFCURVE",
"543 542 CURVE SMOOTH",
"494 149 LINE SMOOTH",
"483 61 OFFCURVE",
"468 42 OFFCURVE",
"407 41 CURVE",
"394 -2 LINE",
"394 -3 OFFCURVE",
"433 0 OFFCURVE",
"469 0 CURVE SMOOTH",
"500 0 LINE SMOOTH",
"531 0 OFFCURVE",
"586 -2 OFFCURVE",
"619 -3 CURVE"
);
}
);
width = 701;
},
{
anchors = (
{
name = bottom;
position = "{329, 0}";
},
{
name = center;
position = "{369, 324}";
},
{
name = top;
position = "{408, 647}";
},
{
name = topleft;
position = "{70, 647}";
}
);
background = {
paths = (
{
closed = 1;
nodes = (
"687 548 OFFCURVE",
"697 556 OFFCURVE",
"745 564 CURVE",
"762 652 LINE",
"731 650 OFFCURVE",
"670 648 OFFCURVE",
"615 647 CURVE SMOOTH",
"588 647 OFFCURVE",
"430 647 OFFCURVE",
"429 647 CURVE",
"412 572 LINE",
"419 558 LINE",
"425 558 OFFCURVE",
"437 559 OFFCURVE",
"445 559 CURVE SMOOTH",
"472 559 OFFCURVE",
"478 548 OFFCURVE",
"473 508 CURVE",
"458 389 LINE",
"437 387 OFFCURVE",
"416 386 OFFCURVE",
"379 386 CURVE SMOOTH",
"353 387 OFFCURVE",
"328 388 OFFCURVE",
"302 389 CURVE",
"322 510 LINE SMOOTH",
"328 545 OFFCURVE",
"338 554 OFFCURVE",
"379 562 CURVE",
"397 652 LINE",
"301 649 OFFCURVE",
"230 647 OFFCURVE",
"199 647 CURVE SMOOTH",
"168 647 OFFCURVE",
"109 647 OFFCURVE",
"73 647 CURVE",
"56 572 LINE",
"63 558 LINE",
"69 558 OFFCURVE",
"81 559 OFFCURVE",
"88 559 CURVE SMOOTH",
"115 559 OFFCURVE",
"121 549 OFFCURVE",
"116 508 CURVE SMOOTH",
"73 162 LINE",
"66 106 OFFCURVE",
"53 91 OFFCURVE",
"1 80 CURVE",
"-17 -5 LINE",
"52 -2 OFFCURVE",
"113 0 OFFCURVE",
"145 0 CURVE SMOOTH",
"174 0 OFFCURVE",
"254 -2 OFFCURVE",
"306 -4 CURVE",
"325 80 LINE",
"323 83 OFFCURVE",
"320 87 OFFCURVE",
"318 90 CURVE SMOOTH",
"313 88 OFFCURVE",
"301 87 OFFCURVE",
"292 87 CURVE SMOOTH",
"273 87 OFFCURVE",
"267 95 OFFCURVE",
"267 119 CURVE SMOOTH",
"267 129 OFFCURVE",
"268 143 OFFCURVE",
"270 156 CURVE SMOOTH",
"282 256 LINE",
"329 261 OFFCURVE",
"378 265 OFFCURVE",
"390 265 CURVE SMOOTH",
"408 265 OFFCURVE",
"431 264 OFFCURVE",
"443 264 CURVE",
"430 162 LINE SMOOTH",
"423 108 OFFCURVE",
"403 87 OFFCURVE",
"357 86 CURVE",
"339 -1 LINE",
"390 -1 OFFCURVE",
"470 0 OFFCURVE",
"503 0 CURVE SMOOTH",
"552 0 LINE SMOOTH",
"621 -1 OFFCURVE",
"653 -2 OFFCURVE",
"671 -2 CURVE",
"690 81 LINE",
"688 85 OFFCURVE",
"685 88 OFFCURVE",
"683 92 CURVE",
"674 90 OFFCURVE",
"664 89 OFFCURVE",
"656 89 CURVE SMOOTH",
"634 89 OFFCURVE",
"625 101 OFFCURVE",
"625 133 CURVE SMOOTH",
"625 165 OFFCURVE",
"661 413 OFFCURVE",
"680 510 CURVE"
);
}
);
};
layerId = UUID1;
paths = (
{
closed = 1;
nodes = (
"52 -2 OFFCURVE",
"113 0 OFFCURVE",
"145 0 CURVE SMOOTH",
"174 0 OFFCURVE",
"254 -2 OFFCURVE",
"306 -4 CURVE",
"325 80 LINE",
"323 83 OFFCURVE",
"320 87 OFFCURVE",
"318 90 CURVE SMOOTH",
"313 88 OFFCURVE",
"301 87 OFFCURVE",
"292 87 CURVE SMOOTH",
"273 87 OFFCURVE",
"267 95 OFFCURVE",
"267 119 CURVE SMOOTH",
"267 129 OFFCURVE",
"268 143 OFFCURVE",
"270 156 CURVE SMOOTH",
"287 300 LINE",
"322 510 LINE SMOOTH",
"328 545 OFFCURVE",
"338 554 OFFCURVE",
"379 562 CURVE",
"397 652 LINE",
"301 649 OFFCURVE",
"230 647 OFFCURVE",
"199 647 CURVE SMOOTH",
"168 647 OFFCURVE",
"109 647 OFFCURVE",
"73 647 CURVE",
"56 572 LINE",
"63 558 LINE",
"69 558 OFFCURVE",
"81 559 OFFCURVE",
"88 559 CURVE SMOOTH",
"115 559 OFFCURVE",
"121 549 OFFCURVE",
"116 508 CURVE SMOOTH",
"73 162 LINE",
"66 106 OFFCURVE",
"53 91 OFFCURVE",
"1 80 CURVE",
"-17 -5 LINE"
);
},
{
closed = 1;
nodes = (
"314 260 OFFCURVE",
"376 265 OFFCURVE",
"390 265 CURVE",
"450 264 LINE",
"471 390 LINE",
"445 387 OFFCURVE",
"423 386 OFFCURVE",
"379 386 CURVE SMOOTH",
"348 387 OFFCURVE",
"318 388 OFFCURVE",
"286 390 CURVE",
"261 254 LINE"
);
},
{
closed = 1;
nodes = (
"690 81 LINE",
"688 85 OFFCURVE",
"685 88 OFFCURVE",
"683 92 CURVE",
"674 90 OFFCURVE",
"664 89 OFFCURVE",
"656 89 CURVE SMOOTH",
"634 89 OFFCURVE",
"625 101 OFFCURVE",
"625 133 CURVE SMOOTH",
"625 165 OFFCURVE",
"661 413 OFFCURVE",
"680 510 CURVE",
"687 548 OFFCURVE",
"697 556 OFFCURVE",
"745 564 CURVE",
"762 652 LINE",
"731 650 OFFCURVE",
"670 648 OFFCURVE",
"615 647 CURVE SMOOTH",
"588 647 OFFCURVE",
"430 647 OFFCURVE",
"429 647 CURVE",
"412 572 LINE",
"419 558 LINE",
"425 558 OFFCURVE",
"437 559 OFFCURVE",
"445 559 CURVE SMOOTH",
"472 559 OFFCURVE",
"478 548 OFFCURVE",
"473 508 CURVE",
"430 162 LINE SMOOTH",
"423 108 OFFCURVE",
"403 87 OFFCURVE",
"357 86 CURVE",
"339 -1 LINE",
"390 -1 OFFCURVE",
"470 0 OFFCURVE",
"503 0 CURVE SMOOTH",
"552 0 LINE SMOOTH",
"621 -1 OFFCURVE",
"653 -2 OFFCURVE",
"671 -2 CURVE"
);
}
);
width = 716;
}
);
leftKerningGroup = H;
rightKerningGroup = H;
unicode = 0048;
},
{
color = 0;
glyphname = Hbar;
lastChange = "2017-01-28 13:41:09 +0000";
layers = (
{
components = (
{
name = H;
transform = "{1, 0, 0, 1, 6, 0}";
}
);
layerId = UUID0;
paths = (
{
closed = 1;
nodes = (
"280 495 OFFCURVE",
"73 496 OFFCURVE",
"73 496 CURVE",
"66 457 LINE",
"75 448 LINE",
"75 448 OFFCURVE",
"257 449 OFFCURVE",
"398 449 CURVE SMOOTH",
"727 450 LINE",
"731 487 LINE",
"718 500 LINE",
"718 500 OFFCURVE",
"540 495 OFFCURVE",
"420 495 CURVE SMOOTH"
);
}
);
width = 738;
},
{
components = (
{
name = H;
}
);
layerId = UUID1;
paths = (
{
closed = 1;
nodes = (
"257 503 OFFCURVE",
"23 504 OFFCURVE",
"23 504 CURVE",
"15 446 LINE",
"26 436 LINE",
"26 436 OFFCURVE",
"230 437 OFFCURVE",
"396 437 CURVE SMOOTH",
"763 438 LINE",
"768 493 LINE",
"753 508 LINE",
"753 508 OFFCURVE",
"563 503 OFFCURVE",
"422 503 CURVE SMOOTH"
);
}
);
width = 716;
}
);
leftKerningGroup = H;
rightKerningGroup = H;
unicode = 0126;
},
{
color = 1;
glyphname = I;
lastChange = "2017-01-28 13:41:31 +0000";
layers = (
{
anchors = (
{
name = bottom;
position = "{134, 0}";
},
{
name = ogonek;
position = "{221, 30}";
},
{
name = top;
position = "{219, 636}";
},
{
name = topleft;
position = "{59, 636}";
}
);
background = {
paths = (
{
closed = 1;
nodes = (
"251 584 OFFCURVE",
"267 596 OFFCURVE",
"321 603 CURVE",
"331 646 LINE",
"331 646 OFFCURVE",
"265 636 OFFCURVE",
"221 636 CURVE SMOOTH",
"182 636 OFFCURVE",
"106 640 OFFCURVE",
"108 640 CURVE",
"96 597 LINE",
"96 596 OFFCURVE",
"97 595 OFFCURVE",
"97 594 CURVE SMOOTH",
"97 594 OFFCURVE",
"124 596 OFFCURVE",
"138 596 CURVE SMOOTH",
"167 596 OFFCURVE",
"172 584 OFFCURVE",
"167 542 CURVE SMOOTH",
"115 118 LINE SMOOTH",
"108 62 OFFCURVE",
"88 43 OFFCURVE",
"27 31 CURVE",
"15 -12 LINE",
"15 -12 OFFCURVE",
"78 0 OFFCURVE",
"126 0 CURVE SMOOTH",
"172 0 OFFCURVE",
"251 -3 OFFCURVE",
"251 -3 CURVE",
"265 41 LINE",
"263 45 LINE",
"263 45 OFFCURVE",
"235 42 OFFCURVE",
"212 42 CURVE SMOOTH",
"186 42 OFFCURVE",
"175 52 OFFCURVE",
"175 85 CURVE SMOOTH",
"175 127 OFFCURVE",
"214 366 OFFCURVE",
"245 546 CURVE SMOOTH"
);
}
);
};
layerId = UUID0;
paths = (
{
closed = 1;
nodes = (
"251 584 OFFCURVE",
"267 596 OFFCURVE",
"321 603 CURVE",
"331 646 LINE",
"331 646 OFFCURVE",
"265 636 OFFCURVE",
"221 636 CURVE SMOOTH",
"182 636 OFFCURVE",
"106 640 OFFCURVE",
"108 640 CURVE",
"96 597 LINE",
"96 596 OFFCURVE",
"97 595 OFFCURVE",
"97 594 CURVE SMOOTH",
"97 594 OFFCURVE",
"124 596 OFFCURVE",
"138 596 CURVE SMOOTH",
"167 596 OFFCURVE",
"172 584 OFFCURVE",
"167 542 CURVE SMOOTH",
"115 118 LINE SMOOTH",
"108 62 OFFCURVE",
"88 43 OFFCURVE",
"27 31 CURVE",
"15 -12 LINE",
"15 -12 OFFCURVE",
"78 0 OFFCURVE",
"126 0 CURVE SMOOTH",
"172 0 OFFCURVE",
"251 -3 OFFCURVE",
"251 -3 CURVE",
"265 41 LINE",
"263 45 LINE",
"263 45 OFFCURVE",
"235 42 OFFCURVE",
"212 42 CURVE SMOOTH",
"186 42 OFFCURVE",
"175 52 OFFCURVE",
"175 85 CURVE SMOOTH",
"175 127 OFFCURVE",
"214 366 OFFCURVE",
"245 546 CURVE SMOOTH"
);
}
);
width = 329;
},
{
anchors = (
{
name = bottom;
position = "{151, 0}";
},
{
name = ogonek;
position = "{274, 40}";
},
{
name = top;
position = "{240, 647}";
},
{
name = topleft;
position = "{70, 647}";
}
);
background = {
paths = (
{
closed = 1;
nodes = (
"331 547 OFFCURVE",
"339 555 OFFCURVE",
"384 562 CURVE",
"402 652 LINE",
"402 652 OFFCURVE",
"273 647 OFFCURVE",
"232 647 CURVE SMOOTH",
"179 647 OFFCURVE",
"129 647 OFFCURVE",
"73 647 CURVE",
"56 572 LINE",
"59 567 OFFCURVE",
"61 563 OFFCURVE",
"64 558 CURVE SMOOTH",
"64 558 OFFCURVE",
"78 559 OFFCURVE",
"88 559 CURVE SMOOTH",
"115 559 OFFCURVE",
"121 549 OFFCURVE",
"116 508 CURVE SMOOTH",
"73 162 LINE SMOOTH",
"67 107 OFFCURVE",
"55 92 OFFCURVE",
"1 80 CURVE",
"-17 -5 LINE",
"-17 -5 OFFCURVE",
"85 0 OFFCURVE",
"147 0 CURVE SMOOTH",
"188 0 OFFCURVE",
"310 -4 OFFCURVE",
"310 -4 CURVE",
"329 80 LINE",
"323 90 LINE",
"323 90 OFFCURVE",
"312 87 OFFCURVE",
"292 87 CURVE SMOOTH",
"274 87 OFFCURVE",
"267 95 OFFCURVE",
"267 125 CURVE SMOOTH",
"267 164 OFFCURVE",
"306 416 OFFCURVE",
"323 510 CURVE SMOOTH"
);
}
);
};
layerId = UUID1;
paths = (
{
closed = 1;
nodes = (
"331 547 OFFCURVE",
"339 555 OFFCURVE",
"384 562 CURVE",
"402 652 LINE",
"402 652 OFFCURVE",
"273 647 OFFCURVE",
"232 647 CURVE SMOOTH",
"179 647 OFFCURVE",
"129 647 OFFCURVE",
"73 647 CURVE",
"56 572 LINE",
"59 567 OFFCURVE",
"61 563 OFFCURVE",
"64 558 CURVE SMOOTH",
"64 558 OFFCURVE",
"78 559 OFFCURVE",
"88 559 CURVE SMOOTH",
"115 559 OFFCURVE",
"121 549 OFFCURVE",
"116 508 CURVE SMOOTH",
"73 162 LINE SMOOTH",
"67 107 OFFCURVE",
"55 92 OFFCURVE",
"1 80 CURVE",
"-17 -5 LINE",
"-17 -5 OFFCURVE",
"85 0 OFFCURVE",
"147 0 CURVE SMOOTH",
"188 0 OFFCURVE",
"310 -4 OFFCURVE",
"310 -4 CURVE",
"329 80 LINE",
"323 90 LINE",
"323 90 OFFCURVE",
"312 87 OFFCURVE",
"292 87 CURVE SMOOTH",
"274 87 OFFCURVE",
"267 95 OFFCURVE",
"267 125 CURVE SMOOTH",
"267 164 OFFCURVE",
"306 416 OFFCURVE",
"323 510 CURVE SMOOTH"
);
}
);
width = 359;
}
);
leftKerningGroup = H;
rightKerningGroup = H;
unicode = 0049;
},
{
color = 1;
glyphname = J;
lastChange = "2017-01-28 13:41:21 +0000";
layers = (
{
anchors = (
{
name = bottom;
position = "{135, 0}";
},
{
name = top;
position = "{160, 647}";
}
);
background = {
paths = (
{
closed = 1;
nodes = (
"106 114 LINE SMOOTH",
"92 -5 OFFCURVE",
"63 -55 OFFCURVE",
"-21 -103 CURVE",
"-24 -111 LINE",
"-12 -143 LINE",
"99 -97 OFFCURVE",
"155 -19 OFFCURVE",
"172 118 CURVE SMOOTH",
"183 197 OFFCURVE",
"222 457 OFFCURVE",
"237 546 CURVE SMOOTH",
"244 588 OFFCURVE",
"253 596 OFFCURVE",
"300 603 CURVE",
"308 645 LINE",
"308 645 OFFCURVE",
"237 636 OFFCURVE",
"198 636 CURVE SMOOTH",
"95 636 LINE",
"84 594 LINE",
"84 591 LINE",
"84 591 OFFCURVE",
"119 595 OFFCURVE",
"131 595 CURVE SMOOTH",
"159 595 OFFCURVE",
"165 585 OFFCURVE",
"160 542 CURVE SMOOTH"
);
}
);
};
layerId = UUID0;
paths = (
{
closed = 1;
nodes = (
"106 114 LINE SMOOTH",
"92 -5 OFFCURVE",
"63 -55 OFFCURVE",
"-21 -103 CURVE",
"-24 -111 LINE",
"-12 -143 LINE",
"99 -97 OFFCURVE",
"155 -19 OFFCURVE",
"172 118 CURVE SMOOTH",
"183 197 OFFCURVE",
"222 457 OFFCURVE",
"237 546 CURVE SMOOTH",
"244 588 OFFCURVE",
"253 596 OFFCURVE",
"300 603 CURVE",
"308 645 LINE",
"308 645 OFFCURVE",
"237 636 OFFCURVE",
"198 636 CURVE SMOOTH",
"95 636 LINE",
"84 594 LINE",
"84 591 LINE",
"84 591 OFFCURVE",
"119 595 OFFCURVE",
"131 595 CURVE SMOOTH",
"159 595 OFFCURVE",
"165 585 OFFCURVE",
"160 542 CURVE SMOOTH"
);
}
);
width = 301;
},
{
anchors = (
{
name = bottom;
position = "{143, 0}";
},
{
name = top;
position = "{168, 647}";
}
);
background = {
paths = (
{
closed = 1;
nodes = (
"62 132 LINE SMOOTH",
"44 2 OFFCURVE",
"21 -39 OFFCURVE",
"-66 -101 CURVE",
"-70 -116 LINE",
"-35 -164 LINE",
"147 -120 OFFCURVE",
"234 -43 OFFCURVE",
"252 85 CURVE SMOOTH",
"269 222 OFFCURVE",
"298 418 OFFCURVE",
"316 510 CURVE SMOOTH",
"323 547 OFFCURVE",
"329 553 OFFCURVE",
"367 562 CURVE",
"387 655 LINE",
"387 655 OFFCURVE",
"295 649 OFFCURVE",
"198 648 CURVE SMOOTH",
"59 647 LINE",
"42 571 LINE",
"49 557 LINE",
"49 557 OFFCURVE",
"69 559 OFFCURVE",
"84 559 CURVE SMOOTH",
"109 559 OFFCURVE",
"113 549 OFFCURVE",
"108 508 CURVE SMOOTH"
);
}
);
};
layerId = UUID1;
paths = (
{
closed = 1;
nodes = (
"62 132 LINE SMOOTH",
"44 2 OFFCURVE",
"21 -39 OFFCURVE",
"-66 -101 CURVE",
"-70 -116 LINE",
"-35 -164 LINE",
"147 -120 OFFCURVE",
"234 -43 OFFCURVE",
"252 85 CURVE SMOOTH",
"269 222 OFFCURVE",
"298 418 OFFCURVE",
"316 510 CURVE SMOOTH",
"323 547 OFFCURVE",
"329 553 OFFCURVE",
"367 562 CURVE",
"387 655 LINE",
"387 655 OFFCURVE",
"295 649 OFFCURVE",
"198 648 CURVE SMOOTH",
"59 647 LINE",
"42 571 LINE",
"49 557 LINE",
"49 557 OFFCURVE",
"69 559 OFFCURVE",
"84 559 CURVE SMOOTH",
"109 559 OFFCURVE",
"113 549 OFFCURVE",
"108 508 CURVE SMOOTH"
);
}
);
width = 329;
}
);
leftKerningGroup = J;
rightKerningGroup = J;
unicode = 004A;
},
{
color = 1;
glyphname = K;
lastChange = "2017-01-28 13:32:19 +0000";
layers = (
{
anchors = (
{
name = bottom;
position = "{359, 0}";
},
{
name = top;
position = "{360, 647}";
}
);
background = {
paths = (
{
closed = 1;
nodes = (
"113 118 LINE SMOOTH",
"106 61 OFFCURVE",
"91 48 OFFCURVE",
"30 42 CURVE",
"15 -1 LINE",
"15 -1 OFFCURVE",
"77 0 OFFCURVE",
"124 0 CURVE SMOOTH",
"167 0 OFFCURVE",
"241 -3 OFFCURVE",
"241 -3 CURVE",
"256 41 LINE",
"254 45 LINE",
"254 45 OFFCURVE",
"229 42 OFFCURVE",
"210 42 CURVE SMOOTH",
"176 42 OFFCURVE",
"167 56 OFFCURVE",
"175 109 CURVE SMOOTH",
"240 543 LINE SMOOTH",
"246 581 OFFCURVE",
"263 596 OFFCURVE",
"312 603 CURVE",
"320 646 LINE",
"320 646 OFFCURVE",
"260 636 OFFCURVE",
"219 636 CURVE SMOOTH",
"182 636 OFFCURVE",
"114 640 OFFCURVE",
"114 640 CURVE",
"102 597 LINE",
"104 594 LINE",
"104 594 OFFCURVE",
"125 596 OFFCURVE",
"136 596 CURVE SMOOTH",
"165 596 OFFCURVE",
"170 585 OFFCURVE",
"165 542 CURVE SMOOTH"
);
},
{
closed = 1;
nodes = (
"229 315 LINE",
"369 72 LINE SMOOTH",
"400 19 OFFCURVE",
"435 -14 OFFCURVE",
"466 -14 CURVE SMOOTH",
"476 -14 OFFCURVE",
"545 -2 OFFCURVE",
"545 -2 CURVE",
"554 30 LINE",
"551 33 LINE",
"506 33 OFFCURVE",
"477 56 OFFCURVE",
"438 118 CURVE SMOOTH",
"302 339 LINE",
"480 513 LINE SMOOTH",
"546 575 OFFCURVE",
"567 589 OFFCURVE",
"601 595 CURVE",
"611 634 LINE",
"609 640 LINE",
"609 640 OFFCURVE",
"559 636 OFFCURVE",
"522 636 CURVE SMOOTH",
"486 636 OFFCURVE",
"418 644 OFFCURVE",
"418 644 CURVE",
"406 603 LINE",
"408 599 LINE",
"447 596 OFFCURVE",
"465 587 OFFCURVE",
"465 571 CURVE SMOOTH",
"465 557 OFFCURVE",
"454 541 OFFCURVE",
"429 517 CURVE SMOOTH",
"231 328 LINE"
);
}
);
};
layerId = UUID0;
paths = (
{
closed = 1;
nodes = (
"113 118 LINE SMOOTH",
"106 61 OFFCURVE",
"91 48 OFFCURVE",
"30 42 CURVE",
"15 -1 LINE",
"15 -1 OFFCURVE",
"77 0 OFFCURVE",
"124 0 CURVE SMOOTH",
"167 0 OFFCURVE",
"241 -3 OFFCURVE",
"241 -3 CURVE",
"256 41 LINE",
"254 45 LINE",
"254 45 OFFCURVE",
"229 42 OFFCURVE",
"210 42 CURVE SMOOTH",
"176 42 OFFCURVE",
"167 56 OFFCURVE",
"175 109 CURVE SMOOTH",
"240 543 LINE SMOOTH",
"246 581 OFFCURVE",
"263 596 OFFCURVE",
"312 603 CURVE",
"320 646 LINE",
"320 646 OFFCURVE",
"260 636 OFFCURVE",
"219 636 CURVE SMOOTH",
"182 636 OFFCURVE",
"114 640 OFFCURVE",
"114 640 CURVE",
"102 597 LINE",
"104 594 LINE",
"104 594 OFFCURVE",
"125 596 OFFCURVE",
"136 596 CURVE SMOOTH",
"165 596 OFFCURVE",
"170 585 OFFCURVE",
"165 542 CURVE SMOOTH"
);
},
{
closed = 1;
nodes = (
"229 315 LINE",
"369 72 LINE SMOOTH",
"400 19 OFFCURVE",
"435 -14 OFFCURVE",
"466 -14 CURVE SMOOTH",
"476 -14 OFFCURVE",
"540 -2 OFFCURVE",
"540 -2 CURVE",
"549 30 LINE",
"546 33 LINE",
"501 33 OFFCURVE",
"472 56 OFFCURVE",
"433 118 CURVE SMOOTH",
"297 336 LINE",
"480 510 LINE SMOOTH",
"546 572 OFFCURVE",
"567 589 OFFCURVE",
"601 595 CURVE",
"611 634 LINE",
"609 640 LINE",
"609 640 OFFCURVE",
"559 636 OFFCURVE",
"522 636 CURVE SMOOTH",
"486 636 OFFCURVE",
"418 644 OFFCURVE",
"418 644 CURVE",
"406 603 LINE",
"408 599 LINE",
"447 596 OFFCURVE",
"465 587 OFFCURVE",
"465 571 CURVE SMOOTH",
"465 557 OFFCURVE",
"454 541 OFFCURVE",
"429 517 CURVE SMOOTH",
"231 328 LINE"
);
}
);
width = 581;
},
{
anchors = (
{
name = bottom;
position = "{372, 0}";
},
{
name = top;
position = "{373, 647}";
}
);
background = {
paths = (
{
closed = 1;
nodes = (
"73 162 LINE SMOOTH",
"67 106 OFFCURVE",
"53 91 OFFCURVE",
"1 80 CURVE",
"-17 -5 LINE",
"-17 -5 OFFCURVE",
"85 0 OFFCURVE",
"147 0 CURVE SMOOTH",
"188 0 OFFCURVE",
"311 -4 OFFCURVE",
"311 -4 CURVE",
"330 80 LINE",
"323 90 LINE",
"323 90 OFFCURVE",
"313 87 OFFCURVE",
"292 87 CURVE SMOOTH",
"267 87 OFFCURVE",
"263 101 OFFCURVE",
"270 156 CURVE SMOOTH",
"320 506 LINE SMOOTH",
"323 539 OFFCURVE",
"334 549 OFFCURVE",
"385 562 CURVE",
"403 652 LINE",
"403 652 OFFCURVE",
"273 647 OFFCURVE",
"232 647 CURVE SMOOTH",
"215 647 OFFCURVE",
"74 648 OFFCURVE",
"74 648 CURVE",
"56 572 LINE",
"63 558 LINE",
"63 558 OFFCURVE",
"78 559 OFFCURVE",
"88 559 CURVE SMOOTH",
"115 559 OFFCURVE",
"121 549 OFFCURVE",
"116 508 CURVE SMOOTH"
);
},
{
closed = 1;
nodes = (
"298 317 LINE",
"387 65 LINE SMOOTH",
"409 4 OFFCURVE",
"432 -16 OFFCURVE",
"483 -16 CURVE SMOOTH",
"508 -16 OFFCURVE",
"637 -5 OFFCURVE",
"637 -5 CURVE",
"657 69 LINE",
"648 84 LINE",
"610 90 OFFCURVE",
"587 115 OFFCURVE",
"566 174 CURVE SMOOTH",
"501 356 LINE",
"561 435 LINE SMOOTH",
"608 495 OFFCURVE",
"647 530 OFFCURVE",
"705 562 CURVE",
"723 637 LINE",
"716 652 LINE",
"716 652 OFFCURVE",
"608 647 OFFCURVE",
"573 647 CURVE SMOOTH",
"528 647 OFFCURVE",
"433 650 OFFCURVE",
"433 650 CURVE",
"414 568 LINE",
"419 558 LINE",
"445 556 OFFCURVE",
"454 549 OFFCURVE",
"454 532 CURVE SMOOTH",
"454 518 OFFCURVE",
"440 493 OFFCURVE",
"420 472 CURVE SMOOTH",
"307 347 LINE"
);
}
);
};
layerId = UUID1;
paths = (
{
closed = 1;
nodes = (
"73 162 LINE SMOOTH",
"67 106 OFFCURVE",
"53 91 OFFCURVE",
"1 80 CURVE",
"-17 -5 LINE",
"-17 -5 OFFCURVE",
"85 0 OFFCURVE",
"147 0 CURVE SMOOTH",
"188 0 OFFCURVE",
"311 -4 OFFCURVE",
"311 -4 CURVE",
"330 80 LINE",
"323 90 LINE",
"323 90 OFFCURVE",
"313 87 OFFCURVE",
"292 87 CURVE SMOOTH",
"267 87 OFFCURVE",
"263 101 OFFCURVE",
"270 156 CURVE SMOOTH",
"320 506 LINE SMOOTH",
"323 539 OFFCURVE",
"334 549 OFFCURVE",
"385 562 CURVE",
"403 652 LINE",
"403 652 OFFCURVE",
"273 647 OFFCURVE",
"232 647 CURVE SMOOTH",
"215 647 OFFCURVE",
"74 648 OFFCURVE",
"74 648 CURVE",
"56 572 LINE",
"63 558 LINE",
"63 558 OFFCURVE",
"78 559 OFFCURVE",
"88 559 CURVE SMOOTH",
"115 559 OFFCURVE",
"121 549 OFFCURVE",
"116 508 CURVE SMOOTH"
);
},
{
closed = 1;
nodes = (
"298 317 LINE",
"387 65 LINE SMOOTH",
"409 4 OFFCURVE",
"432 -16 OFFCURVE",
"483 -16 CURVE SMOOTH",
"508 -16 OFFCURVE",
"637 -5 OFFCURVE",
"637 -5 CURVE",
"657 69 LINE",
"648 84 LINE",
"610 90 OFFCURVE",
"587 115 OFFCURVE",
"566 174 CURVE SMOOTH",
"501 356 LINE",
"561 435 LINE SMOOTH",
"608 495 OFFCURVE",
"647 530 OFFCURVE",
"705 562 CURVE",
"723 637 LINE",
"716 652 LINE",
"716 652 OFFCURVE",
"608 647 OFFCURVE",
"573 647 CURVE SMOOTH",
"528 647 OFFCURVE",
"433 650 OFFCURVE",
"433 650 CURVE",
"414 568 LINE",
"419 558 LINE",
"445 556 OFFCURVE",
"454 549 OFFCURVE",
"454 532 CURVE SMOOTH",
"454 518 OFFCURVE",
"440 493 OFFCURVE",
"420 472 CURVE SMOOTH",
"307 347 LINE"
);
}
);
width = 676;
}
);
leftKerningGroup = H;
rightKerningGroup = X;
unicode = 004B;
},
{
color = 1;
glyphname = L;
lastChange = "2017-01-28 13:41:19 +0000";
layers = (
{
anchors = (
{
name = bottom;
position = "{240, 0}";
},
{
name = center;
position = "{239, 318}";
},
{
name = top;
position = "{218, 636}";
},
{
name = topright;
position = "{500, 636}";
}
);
background = {
paths = (
{
closed = 1;
nodes = (
"241 0 OFFCURVE",
"407 -9 OFFCURVE",
"407 -9 CURVE",
"412 -4 LINE",
"435 93 OFFCURVE",
"463 182 OFFCURVE",
"463 182 CURVE",
"463 183 OFFCURVE",
"462 185 OFFCURVE",
"462 186 CURVE",
"420 182 LINE",
"385 59 OFFCURVE",
"362 41 OFFCURVE",
"249 41 CURVE SMOOTH",
"187 41 OFFCURVE",
"173 50 OFFCURVE",
"173 91 CURVE SMOOTH",
"173 124 OFFCURVE",
"214 396 OFFCURVE",
"235 508 CURVE SMOOTH",
"251 591 OFFCURVE",
"254 595 OFFCURVE",
"310 604 CURVE",
"318 646 LINE",
"318 646 OFFCURVE",
"259 636 OFFCURVE",
"218 636 CURVE SMOOTH",
"182 636 OFFCURVE",
"111 640 OFFCURVE",
"112 640 CURVE",
"100 597 LINE",
"100 596 OFFCURVE",
"101 595 OFFCURVE",
"101 594 CURVE SMOOTH",
"101 594 OFFCURVE",
"123 596 OFFCURVE",
"134 596 CURVE SMOOTH",
"161 596 OFFCURVE",
"168 586 OFFCURVE",
"163 542 CURVE SMOOTH",
"110 117 LINE SMOOTH",
"103 60 OFFCURVE",
"85 41 OFFCURVE",
"35 33 CURVE",
"23 -10 LINE",
"23 -10 OFFCURVE",
"80 0 OFFCURVE",
"152 0 CURVE SMOOTH"
);
}
);
};
layerId = UUID0;
paths = (
{
closed = 1;
nodes = (
"241 0 OFFCURVE",
"407 -9 OFFCURVE",
"407 -9 CURVE",
"412 -4 LINE",
"435 93 OFFCURVE",
"463 182 OFFCURVE",
"463 182 CURVE",
"463 183 OFFCURVE",
"462 185 OFFCURVE",
"462 186 CURVE",
"420 182 LINE",
"385 59 OFFCURVE",
"362 41 OFFCURVE",
"249 41 CURVE SMOOTH",
"187 41 OFFCURVE",
"173 50 OFFCURVE",
"173 91 CURVE SMOOTH",
"173 124 OFFCURVE",
"214 396 OFFCURVE",
"235 508 CURVE SMOOTH",
"251 591 OFFCURVE",
"254 595 OFFCURVE",
"310 604 CURVE",
"318 646 LINE",
"318 646 OFFCURVE",
"259 636 OFFCURVE",
"218 636 CURVE SMOOTH",
"182 636 OFFCURVE",
"111 640 OFFCURVE",
"112 640 CURVE",
"100 597 LINE",
"100 596 OFFCURVE",
"101 595 OFFCURVE",
"101 594 CURVE SMOOTH",
"101 594 OFFCURVE",
"123 596 OFFCURVE",
"134 596 CURVE SMOOTH",
"161 596 OFFCURVE",
"168 586 OFFCURVE",
"163 542 CURVE SMOOTH",
"110 117 LINE SMOOTH",
"103 60 OFFCURVE",
"85 41 OFFCURVE",
"35 33 CURVE",
"23 -10 LINE",
"23 -10 OFFCURVE",
"80 0 OFFCURVE",
"152 0 CURVE SMOOTH"
);
}
);
width = 476;
},
{
anchors = (
{
name = bottom;
position = "{243, 0}";
},
{
name = center;
position = "{283, 324}";
},
{
name = top;
position = "{252, 647}";
},
{
name = topright;
position = "{573, 647}";
}
);
background = {
paths = (
{
closed = 1;
nodes = (
"331 0 OFFCURVE",
"475 -7 OFFCURVE",
"475 -7 CURVE",
"492 9 LINE",
"518 148 OFFCURVE",
"548 276 OFFCURVE",
"548 276 CURVE",
"545 281 OFFCURVE",
"541 286 OFFCURVE",
"538 291 CURVE",
"408 278 LINE",
"385 144 OFFCURVE",
"364 115 OFFCURVE",
"298 115 CURVE SMOOTH",
"278 115 OFFCURVE",
"269 124 OFFCURVE",
"269 147 CURVE SMOOTH",
"269 187 OFFCURVE",
"305 412 OFFCURVE",
"321 502 CURVE SMOOTH",
"327 537 OFFCURVE",
"346 547 OFFCURVE",
"414 554 CURVE",
"437 652 LINE",
"437 652 OFFCURVE",
"278 647 OFFCURVE",
"231 647 CURVE SMOOTH",
"178 647 OFFCURVE",
"127 647 OFFCURVE",
"72 647 CURVE",
"55 572 LINE",
"57 567 OFFCURVE",
"60 563 OFFCURVE",
"62 558 CURVE SMOOTH",
"62 558 OFFCURVE",
"77 559 OFFCURVE",
"87 559 CURVE SMOOTH",
"114 559 OFFCURVE",
"120 549 OFFCURVE",
"115 508 CURVE SMOOTH",
"73 170 LINE SMOOTH",
"66 110 OFFCURVE",
"49 90 OFFCURVE",
"0 82 CURVE",
"-20 -10 LINE",
"-20 -10 OFFCURVE",
"88 0 OFFCURVE",
"189 0 CURVE SMOOTH"
);
}
);
};
layerId = UUID1;
paths = (
{
closed = 1;
nodes = (
"331 0 OFFCURVE",
"475 -7 OFFCURVE",
"475 -7 CURVE",
"492 9 LINE",
"518 148 OFFCURVE",
"548 276 OFFCURVE",
"548 276 CURVE",
"545 281 OFFCURVE",
"541 286 OFFCURVE",
"538 291 CURVE",
"408 278 LINE",
"385 144 OFFCURVE",
"364 115 OFFCURVE",
"298 115 CURVE SMOOTH",
"278 115 OFFCURVE",
"269 124 OFFCURVE",
"269 147 CURVE SMOOTH",
"269 187 OFFCURVE",
"305 412 OFFCURVE",
"321 502 CURVE SMOOTH",
"327 537 OFFCURVE",
"346 547 OFFCURVE",
"414 554 CURVE",
"437 652 LINE",
"437 652 OFFCURVE",
"278 647 OFFCURVE",
"231 647 CURVE SMOOTH",
"178 647 OFFCURVE",
"127 647 OFFCURVE",
"72 647 CURVE",
"55 572 LINE",
"57 567 OFFCURVE",
"60 563 OFFCURVE",
"62 558 CURVE SMOOTH",
"62 558 OFFCURVE",
"77 559 OFFCURVE",
"87 559 CURVE SMOOTH",
"114 559 OFFCURVE",
"120 549 OFFCURVE",
"115 508 CURVE SMOOTH",
"73 170 LINE SMOOTH",
"66 110 OFFCURVE",
"49 90 OFFCURVE",
"0 82 CURVE",
"-20 -10 LINE",
"-20 -10 OFFCURVE",
"88 0 OFFCURVE",
"189 0 CURVE SMOOTH"
);
}
);
width = 543;
}
);
leftKerningGroup = H;
rightKerningGroup = L;
unicode = 004C;
},
{
color = 0;
glyphname = Lcaron;
lastChange = "2017-01-28 13:41:24 +0000";
layers = (
{
components = (
{
name = L;
}
);
layerId = UUID0;
paths = (
{
closed = 1;
nodes = (
"510 634 LINE",
"439 620 LINE",
"439 620 OFFCURVE",
"435 512 OFFCURVE",
"418 402 CURVE",
"429 400 LINE",
"455 414 LINE",
"489 516 OFFCURVE",
"516 626 OFFCURVE",
"516 626 CURVE"
);
}
);
width = 536;
},
{
components = (
{
name = L;
}
);
layerId = UUID1;
paths = (
{
closed = 1;
nodes = (
"619 647 LINE",
"483 633 LINE",
"483 633 OFFCURVE",
"480 515 OFFCURVE",
"463 395 CURVE",
"481 389 LINE",
"557 414 LINE",
"597 526 OFFCURVE",
"626 635 OFFCURVE",
"626 635 CURVE"
);
}
);
width = 581;
}
);
leftKerningGroup = H;
rightKerningGroup = L;
unicode = 013D;
},
{
color = 0;
glyphname = Lslash;
lastChange = "2017-01-28 13:41:34 +0000";
layers = (
{
components = (
{
name = L;
transform = "{1, 0, 0, 1, 17, 0}";
}
);
layerId = UUID0;
paths = (
{
closed = 1;
nodes = (
"180 309 LINE",
"401 418 LINE",
"396 449 LINE",
"388 454 LINE",
"180 351 LINE",
"180 357 LINE",
"51 293 LINE",
"56 261 LINE",
"65 258 LINE",
"180 315 LINE"
);
}
);
width = 498;
},
{
components = (
{
name = L;
transform = "{1, 0, 0, 1, 10, 0}";
}
);
layerId = UUID1;
paths = (
{
closed = 1;
nodes = (
"215 268 LINE",
"435 378 LINE",
"404 471 LINE",
"395 475 LINE",
"215 385 LINE",
"215 407 LINE",
"13 306 LINE",
"44 212 LINE",
"54 210 LINE",
"215 290 LINE"
);
}
);
width = 553;
}
);
leftKerningGroup = H;
rightKerningGroup = L;
unicode = 0141;
},
{
color = 1;
glyphname = M;
lastChange = "2017-01-28 13:41:31 +0000";
layers = (
{
anchors = (
{
name = bottom;
position = "{397, 0}";
},
{
name = top;
position = "{413, 647}";
}
);
background = {
paths = (
{
closed = 1;
nodes = (
"369 -13 LINE",
"453 163 OFFCURVE",
"538 342 OFFCURVE",
"623 529 CURVE",
"628 529 LINE",
"628 529 OFFCURVE",
"611 119 OFFCURVE",
"607 85 CURVE SMOOTH",
"603 56 OFFCURVE",
"584 40 OFFCURVE",
"544 35 CURVE",
"535 -8 LINE",
"535 -8 OFFCURVE",
"591 0 OFFCURVE",
"633 0 CURVE SMOOTH",
"668 0 OFFCURVE",
"723 -3 OFFCURVE",
"723 -3 CURVE",
"737 40 LINE",
"737 41 OFFCURVE",
"736 42 OFFCURVE",
"736 43 CURVE SMOOTH",
"736 43 OFFCURVE",
"720 41 OFFCURVE",
"709 41 CURVE SMOOTH",
"678 41 OFFCURVE",
"671 58 OFFCURVE",
"673 137 CURVE SMOOTH",
"676 280 OFFCURVE",
"691 522 OFFCURVE",
"694 549 CURVE SMOOTH",
"697 582 OFFCURVE",
"719 597 OFFCURVE",
"776 604 CURVE",
"785 638 LINE",
"785 639 OFFCURVE",
"784 641 OFFCURVE",
"784 642 CURVE SMOOTH",
"784 642 OFFCURVE",
"707 636 OFFCURVE",
"679 636 CURVE SMOOTH",
"661 636 OFFCURVE",
"618 641 OFFCURVE",
"619 639 CURVE",
"494 343 OFFCURVE",
"395 134 OFFCURVE",
"395 134 CURVE",
"391 134 LINE",
"391 134 OFFCURVE",
"335 341 OFFCURVE",
"281 640 CURVE",
"281 640 OFFCURVE",
"246 636 OFFCURVE",
"218 636 CURVE SMOOTH",
"188 636 OFFCURVE",
"115 641 OFFCURVE",
"115 641 CURVE",
"104 609 LINE",
"106 605 LINE",
"160 601 OFFCURVE",
"184 586 OFFCURVE",
"184 555 CURVE SMOOTH",
"184 532 OFFCURVE",
"109 191 OFFCURVE",
"93 113 CURVE SMOOTH",
"81 59 OFFCURVE",
"63 41 OFFCURVE",
"23 35 CURVE",
"12 -8 LINE",
"12 -8 OFFCURVE",
"56 0 OFFCURVE",
"94 0 CURVE SMOOTH",
"126 0 OFFCURVE",
"186 -4 OFFCURVE",
"186 -4 CURVE",
"200 39 LINE",
"200 40 OFFCURVE",
"199 41 OFFCURVE",
"199 42 CURVE SMOOTH",
"199 42 OFFCURVE",
"169 41 OFFCURVE",
"159 41 CURVE SMOOTH",
"141 41 OFFCURVE",
"133 49 OFFCURVE",
"133 66 CURVE SMOOTH",
"133 86 OFFCURVE",
"222 529 OFFCURVE",
"222 529 CURVE",
"226 529 LINE",
"267 342 OFFCURVE",
"308 159 OFFCURVE",
"348 -19 CURVE"
);
}
);
};
layerId = UUID0;
paths = (
{
closed = 1;
nodes = (
"369 -13 LINE",
"505 273 OFFCURVE",
"565 400 OFFCURVE",
"623 529 CURVE",
"628 529 LINE",
"620 323 OFFCURVE",
"610 108 OFFCURVE",
"607 85 CURVE SMOOTH",
"603 55 OFFCURVE",
"584 40 OFFCURVE",
"544 35 CURVE",
"535 -8 LINE",
"585 -2 OFFCURVE",
"614 0 OFFCURVE",
"633 0 CURVE SMOOTH",
"659 0 OFFCURVE",
"699 -2 OFFCURVE",
"723 -3 CURVE",
"737 40 LINE",
"737 41 OFFCURVE",
"736 42 OFFCURVE",
"736 43 CURVE SMOOTH",
"724 42 OFFCURVE",
"713 41 OFFCURVE",
"709 41 CURVE SMOOTH",
"678 41 OFFCURVE",
"671 59 OFFCURVE",
"673 137 CURVE SMOOTH",
"675 227 OFFCURVE",
"688 492 OFFCURVE",
"694 549 CURVE SMOOTH",
"697 582 OFFCURVE",
"719 597 OFFCURVE",
"776 604 CURVE",
"785 638 LINE",
"785 639 OFFCURVE",
"784 641 OFFCURVE",
"784 642 CURVE SMOOTH",
"751 639 OFFCURVE",
"699 636 OFFCURVE",
"679 636 CURVE SMOOTH",
"661 636 OFFCURVE",
"618 641 OFFCURVE",
"619 639 CURVE",
"533 436 OFFCURVE",
"444 235 OFFCURVE",
"395 134 CURVE",
"391 134 LINE",
"357 255 OFFCURVE",
"311 467 OFFCURVE",
"281 640 CURVE",
"254 638 OFFCURVE",
"230 636 OFFCURVE",
"218 636 CURVE SMOOTH",
"204 636 OFFCURVE",
"170 638 OFFCURVE",
"115 641 CURVE",
"104 609 LINE",
"106 605 LINE",
"160 601 OFFCURVE",
"184 586 OFFCURVE",
"184 555 CURVE SMOOTH",
"184 532 OFFCURVE",
"109 191 OFFCURVE",
"93 113 CURVE SMOOTH",
"81 60 OFFCURVE",
"64 41 OFFCURVE",
"23 35 CURVE",
"12 -8 LINE",
"57 -2 OFFCURVE",
"78 0 OFFCURVE",
"94 0 CURVE SMOOTH",
"111 0 OFFCURVE",
"143 -1 OFFCURVE",
"186 -4 CURVE",
"200 39 LINE",
"200 40 OFFCURVE",
"199 41 OFFCURVE",
"199 42 CURVE SMOOTH",
"186 42 OFFCURVE",
"166 41 OFFCURVE",
"159 41 CURVE SMOOTH",
"141 41 OFFCURVE",
"133 49 OFFCURVE",
"133 66 CURVE SMOOTH",
"133 75 OFFCURVE",
"150 161 OFFCURVE",
"222 529 CURVE",
"226 529 LINE",
"259 380 OFFCURVE",
"294 221 OFFCURVE",
"348 -19 CURVE"
);
}
);
width = 796;
},
{
anchors = (
{
name = bottom;
position = "{402, 0}";
},
{
name = top;
position = "{418, 647}";
}
);
background = {
paths = (
{
closed = 1;
nodes = (
"421 -2 LINE",
"496 195 OFFCURVE",
"564 355 OFFCURVE",
"567 363 CURVE",
"580 363 LINE",
"580 363 OFFCURVE",
"560 177 OFFCURVE",
"554 132 CURVE SMOOTH",
"550 100 OFFCURVE",
"535 87 OFFCURVE",
"499 83 CURVE",
"476 -8 LINE",
"490 -4 OFFCURVE",
"650 0 OFFCURVE",
"668 0 CURVE SMOOTH",
"714 -1 OFFCURVE",
"775 -3 OFFCURVE",
"775 -3 CURVE",
"794 83 LINE",
"792 86 OFFCURVE",
"790 88 OFFCURVE",
"788 91 CURVE SMOOTH",
"788 91 OFFCURVE",
"774 89 OFFCURVE",
"759 89 CURVE SMOOTH",
"730 89 OFFCURVE",
"722 111 OFFCURVE",
"725 176 CURVE SMOOTH",
"728 269 OFFCURVE",
"735 449 OFFCURVE",
"742 510 CURVE SMOOTH",
"747 550 OFFCURVE",
"758 559 OFFCURVE",
"811 561 CURVE",
"830 649 LINE",
"828 650 OFFCURVE",
"825 652 OFFCURVE",
"823 653 CURVE SMOOTH",
"823 653 OFFCURVE",
"780 650 OFFCURVE",
"732 648 CURVE SMOOTH",
"670 644 OFFCURVE",
"610 647 OFFCURVE",
"547 647 CURVE",
"498 502 OFFCURVE",
"431 333 OFFCURVE",
"431 333 CURVE",
"418 333 LINE",
"418 333 OFFCURVE",
"397 502 OFFCURVE",
"390 651 CURVE",
"390 651 OFFCURVE",
"291 647 OFFCURVE",
"236 647 CURVE SMOOTH",
"195 647 OFFCURVE",
"92 652 OFFCURVE",
"92 652 CURVE",
"72 566 LINE",
"79 558 LINE",
"129 553 OFFCURVE",
"134 546 OFFCURVE",
"134 529 CURVE SMOOTH",
"134 503 OFFCURVE",
"64 179 OFFCURVE",
"57 148 CURVE SMOOTH",
"47 104 OFFCURVE",
"30 86 OFFCURVE",
"-6 82 CURVE",
"-25 -8 LINE",
"-25 -7 OFFCURVE",
"52 0 OFFCURVE",
"91 0 CURVE SMOOTH",
"123 0 OFFCURVE",
"231 -4 OFFCURVE",
"231 -4 CURVE",
"254 82 LINE",
"251 85 OFFCURVE",
"249 87 OFFCURVE",
"246 90 CURVE SMOOTH",
"246 90 OFFCURVE",
"228 88 OFFCURVE",
"221 88 CURVE SMOOTH",
"201 88 OFFCURVE",
"193 97 OFFCURVE",
"193 115 CURVE SMOOTH",
"193 128 OFFCURVE",
"226 363 OFFCURVE",
"226 363 CURVE",
"239 363 LINE",
"246 308 OFFCURVE",
"264 200 OFFCURVE",
"293 -12 CURVE"
);
}
);
};
layerId = UUID1;
paths = (
{
closed = 1;
nodes = (
"421 -2 LINE",
"496 195 OFFCURVE",
"564 355 OFFCURVE",
"567 363 CURVE",
"580 363 LINE",
"571 283 OFFCURVE",
"558 165 OFFCURVE",
"554 132 CURVE SMOOTH",
"550 100 OFFCURVE",
"535 87 OFFCURVE",
"499 83 CURVE",
"476 -8 LINE",
"488 -6 OFFCURVE",
"629 0 OFFCURVE",
"668 0 CURVE SMOOTH",
"702 -1 OFFCURVE",
"749 -2 OFFCURVE",
"775 -3 CURVE",
"794 83 LINE",
"792 86 OFFCURVE",
"790 88 OFFCURVE",
"788 91 CURVE SMOOTH",
"778 90 OFFCURVE",
"767 89 OFFCURVE",
"759 89 CURVE SMOOTH",
"730 89 OFFCURVE",
"722 110 OFFCURVE",
"725 176 CURVE SMOOTH",
"730 329 OFFCURVE",
"737 467 OFFCURVE",
"742 510 CURVE SMOOTH",
"747 550 OFFCURVE",
"759 559 OFFCURVE",
"811 561 CURVE",
"830 649 LINE",
"828 650 OFFCURVE",
"825 652 OFFCURVE",
"823 653 CURVE SMOOTH",
"805 652 OFFCURVE",
"767 649 OFFCURVE",
"732 648 CURVE SMOOTH",
"670 644 OFFCURVE",
"610 647 OFFCURVE",
"547 647 CURVE",
"512 546 OFFCURVE",
"463 414 OFFCURVE",
"431 333 CURVE",
"418 333 LINE",
"405 434 OFFCURVE",
"394 564 OFFCURVE",
"390 651 CURVE",
"329 649 OFFCURVE",
"266 647 OFFCURVE",
"236 647 CURVE SMOOTH",
"212 647 OFFCURVE",
"163 649 OFFCURVE",
"92 652 CURVE",
"72 566 LINE",
"79 558 LINE",
"123 554 OFFCURVE",
"134 548 OFFCURVE",
"134 529 CURVE SMOOTH",
"134 512 OFFCURVE",
"82 255 OFFCURVE",
"57 148 CURVE SMOOTH",
"47 104 OFFCURVE",
"30 86 OFFCURVE",
"-6 82 CURVE",
"-25 -8 LINE",
"-25 -6 OFFCURVE",
"63 0 OFFCURVE",
"91 0 CURVE SMOOTH",
"117 0 OFFCURVE",
"188 -2 OFFCURVE",
"231 -4 CURVE",
"254 82 LINE",
"251 85 OFFCURVE",
"249 87 OFFCURVE",
"246 90 CURVE SMOOTH",
"238 89 OFFCURVE",
"226 88 OFFCURVE",
"221 88 CURVE SMOOTH",
"202 88 OFFCURVE",
"193 96 OFFCURVE",
"193 115 CURVE SMOOTH",
"193 120 OFFCURVE",
"196 145 OFFCURVE",
"226 363 CURVE",
"239 363 LINE",
"246 308 OFFCURVE",
"264 200 OFFCURVE",
"293 -12 CURVE"
);
}
);
width = 808;
}
);
leftKerningGroup = M;
rightKerningGroup = M;
unicode = 004D;
},
{
color = 1;
glyphname = N;
lastChange = "2017-01-28 13:41:33 +0000";
layers = (
{
anchors = (
{
name = bottom;
position = "{309, 0}";
},
{
name = top;
position = "{387, 636}";
}
);
background = {
paths = (
{
closed = 1;
nodes = (
"512 134 LINE",
"512 134 OFFCURVE",
"377 377 OFFCURVE",
"247 640 CURVE",
"247 640 OFFCURVE",
"216 636 OFFCURVE",
"185 636 CURVE SMOOTH",
"159 636 OFFCURVE",
"104 641 OFFCURVE",
"104 641 CURVE",
"93 607 LINE SMOOTH",
"93 605 OFFCURVE",
"94 604 OFFCURVE",
"94 602 CURVE",
"158 595 OFFCURVE",
"176 581 OFFCURVE",
"171 541 CURVE",
"104 98 LINE SMOOTH",
"98 57 OFFCURVE",
"77 40 OFFCURVE",
"37 35 CURVE",
"26 -8 LINE",
"26 -8 OFFCURVE",
"78 0 OFFCURVE",
"115 0 CURVE SMOOTH",
"157 0 OFFCURVE",
"215 -4 OFFCURVE",
"215 -4 CURVE",
"229 39 LINE",
"227 42 LINE",
"227 42 OFFCURVE",
"188 42 OFFCURVE",
"178 42 CURVE SMOOTH",
"156 42 OFFCURVE",
"149 51 OFFCURVE",
"153 81 CURVE SMOOTH",
"213 522 LINE",
"217 522 LINE",
"217 522 OFFCURVE",
"358 269 OFFCURVE",
"510 -42 CURVE",
"535 -28 LINE",
"617 538 LINE SMOOTH",
"623 577 OFFCURVE",
"646 595 OFFCURVE",
"691 601 CURVE",
"701 645 LINE",
"701 645 OFFCURVE",
"646 636 OFFCURVE",
"606 636 CURVE SMOOTH",
"574 636 OFFCURVE",
"517 640 OFFCURVE",
"517 640 CURVE",
"503 598 LINE",
"505 594 LINE",
"504 594 OFFCURVE",
"524 595 OFFCURVE",
"541 595 CURVE SMOOTH",
"561 595 OFFCURVE",
"571 581 OFFCURVE",
"568 552 CURVE",
"516 134 LINE"
);
}
);
};
layerId = UUID0;
paths = (
{
closed = 1;
nodes = (
"512 134 LINE",
"512 134 OFFCURVE",
"377 377 OFFCURVE",
"247 640 CURVE",
"247 640 OFFCURVE",
"216 636 OFFCURVE",
"185 636 CURVE SMOOTH",
"159 636 OFFCURVE",
"104 641 OFFCURVE",
"104 641 CURVE",
"93 607 LINE SMOOTH",
"93 605 OFFCURVE",
"94 604 OFFCURVE",
"94 602 CURVE",
"158 595 OFFCURVE",
"176 581 OFFCURVE",
"171 541 CURVE",
"104 98 LINE SMOOTH",
"98 57 OFFCURVE",
"77 40 OFFCURVE",
"37 35 CURVE",
"26 -8 LINE",
"26 -8 OFFCURVE",
"78 0 OFFCURVE",
"115 0 CURVE SMOOTH",
"157 0 OFFCURVE",
"215 -4 OFFCURVE",
"215 -4 CURVE",
"229 39 LINE",
"227 42 LINE",
"227 42 OFFCURVE",
"188 42 OFFCURVE",
"178 42 CURVE SMOOTH",
"156 42 OFFCURVE",
"149 51 OFFCURVE",
"153 81 CURVE SMOOTH",
"213 522 LINE",
"217 522 LINE",
"217 522 OFFCURVE",
"358 269 OFFCURVE",
"510 -42 CURVE",
"535 -28 LINE",
"617 538 LINE SMOOTH",
"623 577 OFFCURVE",
"646 595 OFFCURVE",
"691 601 CURVE",
"701 645 LINE",
"701 645 OFFCURVE",
"646 636 OFFCURVE",
"606 636 CURVE SMOOTH",
"574 636 OFFCURVE",
"517 640 OFFCURVE",
"517 640 CURVE",
"503 598 LINE",
"505 594 LINE",
"504 594 OFFCURVE",
"524 595 OFFCURVE",
"541 595 CURVE SMOOTH",
"561 595 OFFCURVE",
"571 581 OFFCURVE",
"568 552 CURVE",
"516 134 LINE"
);
}
);
width = 688;
},
{
anchors = (
{
name = bottom;
position = "{330, 0}";
},
{
name = top;
position = "{409, 647}";
}
);
background = {
paths = (
{
closed = 1;
nodes = (
"481 333 LINE",
"481 333 OFFCURVE",
"405 489 OFFCURVE",
"341 651 CURVE",
"341 651 OFFCURVE",
"267 647 OFFCURVE",
"213 647 CURVE SMOOTH",
"140 647 OFFCURVE",
"67 652 OFFCURVE",
"67 652 CURVE",
"52 571 LINE SMOOTH",
"55 566 OFFCURVE",
"59 562 OFFCURVE",
"62 557 CURVE",
"122 550 OFFCURVE",
"132 540 OFFCURVE",
"126 494 CURVE",
"72 145 LINE SMOOTH",
"66 105 OFFCURVE",
"48 87 OFFCURVE",
"9 82 CURVE",
"-12 -8 LINE",
"-12 -8 OFFCURVE",
"73 0 OFFCURVE",
"142 0 CURVE SMOOTH",
"183 0 OFFCURVE",
"293 -4 OFFCURVE",
"293 -4 CURVE",
"314 81 LINE",
"306 90 LINE",
"306 90 OFFCURVE",
"285 86 OFFCURVE",
"274 86 CURVE SMOOTH",
"245 86 OFFCURVE",
"238 99 OFFCURVE",
"242 137 CURVE SMOOTH",
"260 315 LINE",
"275 315 LINE",
"275 315 OFFCURVE",
"344 174 OFFCURVE",
"425 -12 CURVE",
"617 0 LINE",
"691 497 LINE SMOOTH",
"697 538 OFFCURVE",
"712 554 OFFCURVE",
"754 560 CURVE",
"770 650 LINE",
"770 649 OFFCURVE",
"688 647 OFFCURVE",
"633 647 CURVE SMOOTH",
"578 647 OFFCURVE",
"469 651 OFFCURVE",
"469 651 CURVE",
"454 570 LINE",
"458 559 LINE",
"468 559 OFFCURVE",
"478 559 OFFCURVE",
"488 559 CURVE SMOOTH",
"511 559 OFFCURVE",
"517 550 OFFCURVE",
"514 516 CURVE",
"496 333 LINE"
);
}
);
};
layerId = UUID1;
paths = (
{
closed = 1;
nodes = (
"481 333 LINE",
"481 333 OFFCURVE",
"405 489 OFFCURVE",
"341 651 CURVE",
"341 651 OFFCURVE",
"267 647 OFFCURVE",
"213 647 CURVE SMOOTH",
"140 647 OFFCURVE",
"67 652 OFFCURVE",
"67 652 CURVE",
"52 571 LINE SMOOTH",
"55 566 OFFCURVE",
"59 562 OFFCURVE",
"62 557 CURVE",
"122 550 OFFCURVE",
"132 540 OFFCURVE",
"126 494 CURVE",
"72 145 LINE SMOOTH",
"66 105 OFFCURVE",
"48 87 OFFCURVE",
"9 82 CURVE",
"-12 -8 LINE",
"-12 -8 OFFCURVE",
"73 0 OFFCURVE",
"142 0 CURVE SMOOTH",
"183 0 OFFCURVE",
"293 -4 OFFCURVE",
"293 -4 CURVE",
"314 81 LINE",
"306 90 LINE",
"306 90 OFFCURVE",
"285 86 OFFCURVE",
"274 86 CURVE SMOOTH",
"245 86 OFFCURVE",
"238 99 OFFCURVE",
"242 137 CURVE SMOOTH",
"260 315 LINE",
"275 315 LINE",
"275 315 OFFCURVE",
"344 174 OFFCURVE",
"425 -12 CURVE",
"617 0 LINE",
"691 497 LINE SMOOTH",
"697 538 OFFCURVE",
"712 554 OFFCURVE",
"754 560 CURVE",
"770 650 LINE",
"770 649 OFFCURVE",
"688 647 OFFCURVE",
"633 647 CURVE SMOOTH",
"578 647 OFFCURVE",
"469 651 OFFCURVE",
"469 651 CURVE",
"454 570 LINE",
"458 559 LINE",
"468 559 OFFCURVE",
"478 559 OFFCURVE",
"488 559 CURVE SMOOTH",
"511 559 OFFCURVE",
"517 550 OFFCURVE",
"514 516 CURVE",
"496 333 LINE"
);
}
);
width = 718;
}
);
leftKerningGroup = H;
rightKerningGroup = H;
unicode = 004E;
},
{
color = 1;
glyphname = Eng;
lastChange = "2017-01-28 13:41:12 +0000";
layers = (
{
background = {
paths = (
{
closed = 1;
nodes = (
"117 637 OFFCURVE",
"57 642 OFFCURVE",
"57 642 CURVE",
"49 605 LINE",
"52 600 LINE",
"122 590 OFFCURVE",
"139 577 OFFCURVE",
"139 538 CURVE SMOOTH",
"127 124 LINE SMOOTH",
"124 60 OFFCURVE",
"110 42 OFFCURVE",
"64 38 CURVE",
"59 -8 LINE",
"59 -8 OFFCURVE",
"106 0 OFFCURVE",
"146 0 CURVE SMOOTH",
"193 0 OFFCURVE",
"258 -4 OFFCURVE",
"258 -4 CURVE",
"267 42 LINE",
"264 46 LINE",
"264 46 OFFCURVE",
"224 44 OFFCURVE",
"214 44 CURVE SMOOTH",
"191 44 OFFCURVE",
"183 54 OFFCURVE",
"183 84 CURVE SMOOTH",
"188 511 LINE",
"193 511 LINE",
"193 511 OFFCURVE",
"351 289 OFFCURVE",
"534 8 CURVE",
"520 -47 OFFCURVE",
"487 -84 OFFCURVE",
"422 -113 CURVE",
"419 -121 LINE",
"436 -154 LINE",
"549 -112 OFFCURVE",
"595 -43 OFFCURVE",
"599 86 CURVE SMOOTH",
"608 536 LINE SMOOTH",
"609 575 OFFCURVE",
"628 593 OFFCURVE",
"676 599 CURVE",
"681 645 LINE",
"681 645 OFFCURVE",
"624 637 OFFCURVE",
"582 637 CURVE SMOOTH",
"549 637 OFFCURVE",
"487 641 OFFCURVE",
"487 641 CURVE",
"478 596 LINE",
"480 592 LINE",
"480 592 OFFCURVE",
"500 593 OFFCURVE",
"518 593 CURVE SMOOTH",
"540 593 OFFCURVE",
"551 579 OFFCURVE",
"551 550 CURVE SMOOTH",
"551 145 LINE",
"546 145 LINE SMOOTH",
"546 145 OFFCURVE",
"351 419 OFFCURVE",
"210 641 CURVE",
"210 641 OFFCURVE",
"152 637 OFFCURVE",
"138 637 CURVE SMOOTH"
);
}
);
};
layerId = UUID0;
paths = (
{
closed = 1;
nodes = (
"163 637 OFFCURVE",
"105 642 OFFCURVE",
"105 642 CURVE",
"93 605 LINE",
"96 600 LINE",
"161 590 OFFCURVE",
"176 577 OFFCURVE",
"171 538 CURVE SMOOTH",
"109 124 LINE SMOOTH",
"98 60 OFFCURVE",
"82 42 OFFCURVE",
"38 38 CURVE",
"27 -8 LINE",
"27 -8 OFFCURVE",
"74 0 OFFCURVE",
"113 0 CURVE SMOOTH",
"159 0 OFFCURVE",
"222 -4 OFFCURVE",
"222 -4 CURVE",
"236 42 LINE",
"234 46 LINE",
"234 46 OFFCURVE",
"195 44 OFFCURVE",
"186 44 CURVE SMOOTH",
"163 44 OFFCURVE",
"157 54 OFFCURVE",
"161 84 CURVE SMOOTH",
"218 511 LINE",
"223 511 LINE",
"223 511 OFFCURVE",
"345 289 OFFCURVE",
"485 8 CURVE",
"462 -47 OFFCURVE",
"424 -84 OFFCURVE",
"353 -113 CURVE",
"349 -121 LINE",
"362 -154 LINE",
"483 -112 OFFCURVE",
"539 -43 OFFCURVE",
"560 86 CURVE SMOOTH",
"624 536 LINE SMOOTH",
"630 575 OFFCURVE",
"650 593 OFFCURVE",
"697 599 CURVE",
"707 645 LINE",
"707 645 OFFCURVE",
"651 637 OFFCURVE",
"610 637 CURVE SMOOTH",
"579 637 OFFCURVE",
"518 641 OFFCURVE",
"518 641 CURVE",
"503 596 LINE",
"505 592 LINE",
"505 592 OFFCURVE",
"524 593 OFFCURVE",
"541 593 CURVE SMOOTH",
"563 593 OFFCURVE",
"571 579 OFFCURVE",
"568 550 CURVE SMOOTH",
"518 145 LINE",
"513 145 LINE SMOOTH",
"513 145 OFFCURVE",
"362 419 OFFCURVE",
"255 641 CURVE",
"255 641 OFFCURVE",
"199 637 OFFCURVE",
"184 637 CURVE SMOOTH"
);
}
);
width = 695;
},
{
background = {
paths = (
{
closed = 1;
nodes = (
"112 647 OFFCURVE",
"19 652 OFFCURVE",
"19 652 CURVE",
"13 571 LINE",
"25 557 LINE",
"89 550 OFFCURVE",
"100 537 OFFCURVE",
"100 494 CURVE SMOOTH",
"88 145 LINE SMOOTH",
"87 105 OFFCURVE",
"70 87 OFFCURVE",
"31 82 CURVE",
"21 -8 LINE",
"21 -8 OFFCURVE",
"104 0 OFFCURVE",
"144 0 CURVE SMOOTH",
"225 0 OFFCURVE",
"329 -4 OFFCURVE",
"329 -4 CURVE",
"340 81 LINE",
"331 90 LINE",
"331 90 OFFCURVE",
"309 86 OFFCURVE",
"297 86 CURVE SMOOTH",
"268 86 OFFCURVE",
"259 99 OFFCURVE",
"258 137 CURVE SMOOTH",
"255 315 LINE",
"270 315 LINE",
"270 315 OFFCURVE",
"359 179 OFFCURVE",
"468 -1 CURVE",
"456 -42 OFFCURVE",
"435 -71 OFFCURVE",
"387 -111 CURVE",
"385 -126 LINE",
"425 -174 LINE",
"591 -128 OFFCURVE",
"661 -49 OFFCURVE",
"665 85 CURVE SMOOTH",
"676 497 LINE SMOOTH",
"677 538 OFFCURVE",
"691 554 OFFCURVE",
"734 560 CURVE",
"739 650 LINE",
"739 650 OFFCURVE",
"650 648 OFFCURVE",
"604 647 CURVE SMOOTH",
"574 647 OFFCURVE",
"434 651 OFFCURVE",
"434 651 CURVE",
"429 569 LINE",
"434 558 LINE",
"434 558 OFFCURVE",
"458 559 OFFCURVE",
"465 559 CURVE SMOOTH",
"489 559 OFFCURVE",
"497 550 OFFCURVE",
"498 516 CURVE SMOOTH",
"502 333 LINE",
"487 333 LINE SMOOTH",
"487 333 OFFCURVE",
"385 489 OFFCURVE",
"295 651 CURVE",
"295 651 OFFCURVE",
"223 647 OFFCURVE",
"169 647 CURVE SMOOTH"
);
}
);
};
layerId = UUID1;
paths = (
{
closed = 1;
nodes = (
"161 647 OFFCURVE",
"71 652 OFFCURVE",
"71 652 CURVE",
"56 575 LINE",
"66 561 LINE",
"125 554 OFFCURVE",
"136 543 OFFCURVE",
"131 499 CURVE SMOOTH",
"76 143 LINE SMOOTH",
"70 102 OFFCURVE",
"52 83 OFFCURVE",
"13 78 CURVE",
"-8 -8 LINE",
"-8 -8 OFFCURVE",
"73 0 OFFCURVE",
"111 0 CURVE SMOOTH",
"190 0 OFFCURVE",
"289 -4 OFFCURVE",
"289 -4 CURVE",
"309 78 LINE",
"302 86 LINE",
"302 86 OFFCURVE",
"279 83 OFFCURVE",
"268 83 CURVE SMOOTH",
"240 83 OFFCURVE",
"232 96 OFFCURVE",
"236 133 CURVE SMOOTH",
"258 331 LINE",
"272 331 LINE",
"272 331 OFFCURVE",
"343 188 OFFCURVE",
"427 0 CURVE",
"407 -46 OFFCURVE",
"372 -82 OFFCURVE",
"321 -108 CURVE",
"317 -123 LINE",
"353 -172 LINE",
"522 -128 OFFCURVE",
"604 -51 OFFCURVE",
"626 85 CURVE SMOOTH",
"687 501 LINE SMOOTH",
"693 542 OFFCURVE",
"709 558 OFFCURVE",
"752 564 CURVE",
"767 651 LINE",
"767 651 OFFCURVE",
"681 648 OFFCURVE",
"636 647 CURVE SMOOTH",
"607 647 OFFCURVE",
"474 651 OFFCURVE",
"474 651 CURVE",
"460 572 LINE",
"463 562 LINE",
"463 562 OFFCURVE",
"487 563 OFFCURVE",
"493 563 CURVE SMOOTH",
"517 563 OFFCURVE",
"524 553 OFFCURVE",
"520 520 CURVE SMOOTH",
"499 318 LINE",
"485 318 LINE SMOOTH",
"485 318 OFFCURVE",
"403 484 OFFCURVE",
"335 651 CURVE",
"335 651 OFFCURVE",
"266 647 OFFCURVE",
"215 647 CURVE SMOOTH"
);
}
);
width = 715;
}
);
leftKerningGroup = H;
rightKerningGroup = J;
unicode = 014A;
},
{
color = 1;
glyphname = O;
lastChange = "2017-01-28 13:41:09 +0000";
layers = (
{
anchors = (
{
name = bottom;
position = "{309, 0}";
},
{
name = center;
position = "{348, 318}";
},
{
name = ogonek;
position = "{406, 10}";
},
{
name = top;
position = "{387, 636}";
},
{
name = topleft;
position = "{74, 636}";
},
{
name = topright;
position = "{699, 636}";
}
);
background = {
paths = (
{
closed = 1;
nodes = (
"204 35 OFFCURVE",
"131 134 OFFCURVE",
"131 285 CURVE SMOOTH",
"131 460 OFFCURVE",
"234 593 OFFCURVE",
"372 593 CURVE SMOOTH",
"486 593 OFFCURVE",
"561 494 OFFCURVE",
"561 343 CURVE SMOOTH",
"561 166 OFFCURVE",
"457 35 OFFCURVE",
"315 35 CURVE SMOOTH"
);
},
{
closed = 1;
nodes = (
"486 -12 OFFCURVE",
"648 165 OFFCURVE",
"648 382 CURVE SMOOTH",
"648 538 OFFCURVE",
"547 648 OFFCURVE",
"401 648 CURVE SMOOTH",
"208 648 OFFCURVE",
"49 470 OFFCURVE",
"49 254 CURVE SMOOTH",
"49 97 OFFCURVE",
"148 -12 OFFCURVE",
"290 -12 CURVE SMOOTH"
);
}
);
};
layerId = UUID0;
paths = (
{
closed = 1;
nodes = (
"494 -12 OFFCURVE",
"648 163 OFFCURVE",
"648 382 CURVE SMOOTH",
"648 536 OFFCURVE",
"539 648 OFFCURVE",
"391 648 CURVE SMOOTH",
"201 648 OFFCURVE",
"49 473 OFFCURVE",
"49 254 CURVE SMOOTH",
"49 100 OFFCURVE",
"155 -12 OFFCURVE",
"300 -12 CURVE SMOOTH"
);
},
{
closed = 1;
nodes = (
"204 35 OFFCURVE",
"131 134 OFFCURVE",
"131 285 CURVE SMOOTH",
"131 461 OFFCURVE",
"235 593 OFFCURVE",
"372 593 CURVE SMOOTH",
"486 593 OFFCURVE",
"561 494 OFFCURVE",
"561 343 CURVE SMOOTH",
"561 166 OFFCURVE",
"457 35 OFFCURVE",
"315 35 CURVE SMOOTH"
);
}
);
width = 674;
},
{
anchors = (
{
name = bottom;
position = "{288, 0}";
},
{
name = center;
position = "{328, 324}";
},
{
name = ogonek;
position = "{441, 40}";
},
{
name = top;
position = "{367, 647}";
},
{
name = topleft;
position = "{70, 647}";
},
{
name = topright;
position = "{663, 647}";
}
);
background = {
paths = (
{
closed = 1;
nodes = (
"267 114 OFFCURVE",
"247 152 OFFCURVE",
"247 234 CURVE SMOOTH",
"247 438 OFFCURVE",
"275 522 OFFCURVE",
"342 522 CURVE SMOOTH",
"386 522 OFFCURVE",
"407 484 OFFCURVE",
"407 402 CURVE SMOOTH",
"407 197 OFFCURVE",
"379 114 OFFCURVE",
"310 114 CURVE SMOOTH"
);
},
{
closed = 1;
nodes = (
"512 -12 OFFCURVE",
"638 141 OFFCURVE",
"638 398 CURVE SMOOTH",
"638 571 OFFCURVE",
"541 659 OFFCURVE",
"372 659 CURVE SMOOTH",
"140 659 OFFCURVE",
"18 513 OFFCURVE",
"18 256 CURVE SMOOTH",
"18 82 OFFCURVE",
"118 -12 OFFCURVE",
"283 -12 CURVE SMOOTH"
);
}
);
};
layerId = UUID1;
paths = (
{
closed = 1;
nodes = (
"512 -12 OFFCURVE",
"638 141 OFFCURVE",
"638 398 CURVE SMOOTH",
"638 571 OFFCURVE",
"541 659 OFFCURVE",
"372 659 CURVE SMOOTH",
"140 659 OFFCURVE",
"18 513 OFFCURVE",
"18 256 CURVE SMOOTH",
"18 82 OFFCURVE",
"118 -12 OFFCURVE",
"283 -12 CURVE SMOOTH"
);
},
{
closed = 1;
nodes = (
"267 114 OFFCURVE",
"247 152 OFFCURVE",
"247 234 CURVE SMOOTH",
"247 438 OFFCURVE",
"275 522 OFFCURVE",
"342 522 CURVE SMOOTH",
"386 522 OFFCURVE",
"407 484 OFFCURVE",
"407 402 CURVE SMOOTH",
"407 197 OFFCURVE",
"379 114 OFFCURVE",
"310 114 CURVE SMOOTH"
);
}
);
width = 633;
}
);
leftKerningGroup = O;
rightKerningGroup = O;
unicode = 004F;
},
{
color = 1;
glyphname = Ohorn;
lastChange = "2017-01-28 13:41:28 +0000";
layers = (
{
anchors = (
{
name = bottom;
position = "{290, 0}";
},
{
name = top;
position = "{299, 647}";
}
);
layerId = UUID0;
paths = (
{
closed = 1;
nodes = (
"615 734 LINE",
"629 718 OFFCURVE",
"637 693 OFFCURVE",
"637 672 CURVE SMOOTH",
"637 635 OFFCURVE",
"605 615 OFFCURVE",
"564 615 CURVE SMOOTH",
"514 615 OFFCURVE",
"490 649 OFFCURVE",
"401 649 CURVE",
"573 580 LINE",
"646 577 OFFCURVE",
"719 632 OFFCURVE",
"719 711 CURVE SMOOTH",
"719 749 OFFCURVE",
"704 774 OFFCURVE",
"678 774 CURVE SMOOTH",
"661 774 OFFCURVE",
"640 765 OFFCURVE",
"618 748 CURVE"
);
},
{
closed = 1;
nodes = (
"204 35 OFFCURVE",
"131 134 OFFCURVE",
"131 285 CURVE SMOOTH",
"131 460 OFFCURVE",
"234 593 OFFCURVE",
"372 593 CURVE SMOOTH",
"486 593 OFFCURVE",
"561 494 OFFCURVE",
"561 343 CURVE SMOOTH",
"561 166 OFFCURVE",
"457 35 OFFCURVE",
"315 35 CURVE SMOOTH"
);
},
{
closed = 1;
nodes = (
"486 -12 OFFCURVE",
"648 165 OFFCURVE",
"648 382 CURVE SMOOTH",
"648 538 OFFCURVE",
"547 649 OFFCURVE",
"401 649 CURVE SMOOTH",
"208 649 OFFCURVE",
"49 470 OFFCURVE",
"49 254 CURVE SMOOTH",
"49 97 OFFCURVE",
"148 -12 OFFCURVE",
"290 -12 CURVE SMOOTH"
);
}
);
width = 695;
},
{
anchors = (
{
name = bottom;
position = "{286, 0}";
},
{
name = top;
position = "{295, 647}";
}
);
layerId = UUID1;
paths = (
{
closed = 1;
nodes = (
"559 731 LINE",
"573 718 OFFCURVE",
"581 698 OFFCURVE",
"581 680 CURVE SMOOTH",
"581 653 OFFCURVE",
"564 631 OFFCURVE",
"537 631 CURVE SMOOTH",
"505 631 OFFCURVE",
"471 659 OFFCURVE",
"372 659 CURVE",
"592 562 LINE",
"654 562 OFFCURVE",
"734 640 OFFCURVE",
"734 711 CURVE SMOOTH",
"734 758 OFFCURVE",
"706 789 OFFCURVE",
"660 789 CURVE SMOOTH",
"635 789 OFFCURVE",
"598 772 OFFCURVE",
"564 745 CURVE"
);
},
{
closed = 1;
nodes = (
"267 114 OFFCURVE",
"247 152 OFFCURVE",
"247 234 CURVE SMOOTH",
"247 438 OFFCURVE",
"275 522 OFFCURVE",
"342 522 CURVE SMOOTH",
"386 522 OFFCURVE",
"407 484 OFFCURVE",
"407 402 CURVE SMOOTH",
"407 197 OFFCURVE",
"379 114 OFFCURVE",
"310 114 CURVE SMOOTH"
);
},
{
closed = 1;
nodes = (
"512 -12 OFFCURVE",
"638 141 OFFCURVE",
"638 398 CURVE SMOOTH",
"638 571 OFFCURVE",
"541 659 OFFCURVE",
"372 659 CURVE SMOOTH",
"140 659 OFFCURVE",
"18 513 OFFCURVE",
"18 256 CURVE SMOOTH",
"18 82 OFFCURVE",
"118 -12 OFFCURVE",
"283 -12 CURVE SMOOTH"
);
}
);
width = 666;
}
);
leftKerningGroup = O;
rightKerningGroup = O;
unicode = 01A0;
},
{
color = 11;
glyphname = Oslash;
lastChange = "2017-01-28 13:41:07 +0000";
layers = (
{
anchors = (
{
name = top;
position = "{328, 647}";
}
);
components = (
{
name = O;
}
);
layerId = UUID1;
paths = (
{
closed = 1;
nodes = (
"642 685 LINE",
"640 698 LINE",
"543 752 LINE",
"418 559 LINE",
"513 488 LINE"
);
},
{
closed = 1;
nodes = (
"513 488 LINE",
"418 559 LINE",
"149 152 LINE",
"242 82 LINE"
);
},
{
closed = 1;
nodes = (
"9 -52 LINE",
"13 -62 LINE",
"108 -117 LINE",
"242 82 LINE",
"149 152 LINE"
);
}
);
width = 633;
},
{
anchors = (
{
name = top;
position = "{333, 647}";
}
);
components = (
{
name = O;
transform = "{1, 0, 0, 1, 5, 0}";
}
);
layerId = UUID0;
paths = (
{
closed = 1;
nodes = (
"558 689 LINE",
"555 701 LINE",
"526 708 LINE",
"468 593 LINE",
"501 579 LINE"
);
},
{
closed = 1;
nodes = (
"501 579 LINE",
"468 593 LINE",
"181 48 LINE",
"213 34 LINE"
);
},
{
closed = 1;
nodes = (
"113 -82 LINE",
"115 -92 LINE",
"142 -98 LINE",
"213 34 LINE",
"181 48 LINE"
);
}
);
width = 675;
},
{
anchors = (
{
name = top;
position = "{328, 647}";
}
);
associatedMasterId = UUID0;
components = (
{
name = O;
}
);
layerId = "88A0378F-1752-4568-BC65-034DA8B5F7BE";
name = "Regular [120]";
paths = (
{
closed = 1;
nodes = (
"553 689 LINE",
"550 701 LINE",
"521 708 LINE",
"463 593 LINE",
"496 579 LINE"
);
},
{
closed = 1;
nodes = (
"108 -82 LINE",
"110 -92 LINE",
"137 -98 LINE",
"208 34 LINE",
"176 48 LINE"
);
}
);
width = 663;
},
{
anchors = (
{
name = top;
position = "{328, 647}";
}
);
associatedMasterId = UUID1;
components = (
{
name = O;
}
);
layerId = "BFF6708C-37B2-495D-B4E2-C98288CC7069";
name = "Bold [120]";
paths = (
{
closed = 1;
nodes = (
"642 685 LINE",
"640 698 LINE",
"543 752 LINE",
"418 559 LINE",
"513 488 LINE"
);
},
{
closed = 1;
nodes = (
"9 -52 LINE",
"13 -62 LINE",
"108 -117 LINE",
"242 82 LINE",
"149 152 LINE"
);
}
);
width = 633;
}
);
leftKerningGroup = O;
rightKerningGroup = O;
unicode = 00D8;
},
{
color = 10;
glyphname = Oslashacute;
lastChange = "2017-01-28 13:41:41 +0000";
layers = (
{
background = {
components = (
{
name = O;
},
{
name = acutecomb.case;
transform = "{1, 0, 0, 1, 120, 0}";
}
);
paths = (
{
closed = 1;
nodes = (
"553 689 LINE",
"550 701 LINE",
"521 708 LINE",
"463 593 LINE",
"496 579 LINE"
);
},
{
closed = 1;
nodes = (
"496 579 LINE",
"463 593 LINE",
"176 48 LINE",
"208 34 LINE"
);
},
{
closed = 1;
nodes = (
"108 -82 LINE",
"110 -92 LINE",
"137 -98 LINE",
"208 34 LINE",
"176 48 LINE"
);
}
);
};
components = (
{
name = Oslash;
},
{
name = acutecomb.case;
transform = "{1, 0, 0, 1, 143, 11}";
}
);
layerId = UUID0;
width = 675;
},
{
background = {
components = (
{
name = O;
},
{
name = acutecomb.case;
transform = "{1, 0, 0, 1, 163, 10}";
}
);
paths = (
{
closed = 1;
nodes = (
"642 685 LINE",
"640 698 LINE",
"543 752 LINE",
"418 559 LINE",
"513 488 LINE"
);
},
{
closed = 1;
nodes = (
"513 488 LINE",
"418 559 LINE",
"149 152 LINE",
"242 82 LINE"
);
},
{
closed = 1;
nodes = (
"9 -52 LINE",
"13 -62 LINE",
"108 -117 LINE",
"242 82 LINE",
"149 152 LINE"
);
}
);
};
components = (
{
name = Oslash;
},
{
name = acutecomb.case;
transform = "{1, 0, 0, 1, 101, 0}";
}
);
layerId = UUID1;
width = 633;
}
);
leftKerningGroup = O;
rightKerningGroup = O;
unicode = 01FE;
},
{
color = 1;
glyphname = OE;
lastChange = "2017-01-28 13:41:36 +0000";
layers = (
{
anchors = (
{
name = top;
position = "{513, 647}";
}
);
background = {
paths = (
{
closed = 1;
nodes = (
"236 39 OFFCURVE",
"166 135 OFFCURVE",
"166 282 CURVE SMOOTH",
"166 459 OFFCURVE",
"265 589 OFFCURVE",
"399 589 CURVE SMOOTH",
"509 589 OFFCURVE",
"581 493 OFFCURVE",
"581 346 CURVE SMOOTH",
"581 168 OFFCURVE",
"481 39 OFFCURVE",
"343 39 CURVE SMOOTH"
);
}
);
};
layerId = UUID0;
paths = (
{
closed = 1;
nodes = (
"577 296 LINE",
"653 303 LINE SMOOTH",
"704 303 OFFCURVE",
"786 300 OFFCURVE",
"786 300 CURVE",
"807 359 LINE",
"804 364 LINE",
"804 364 OFFCURVE",
"720 353 OFFCURVE",
"685 353 CURVE SMOOTH",
"586 354 LINE",
"618 548 LINE SMOOTH",
"624 585 OFFCURVE",
"627 587 OFFCURVE",
"689 587 CURVE SMOOTH",
"803 587 OFFCURVE",
"828 582 OFFCURVE",
"828 536 CURVE SMOOTH",
"828 511 OFFCURVE",
"819 473 OFFCURVE",
"819 473 CURVE",
"868 477 LINE",
"885 569 OFFCURVE",
"911 643 OFFCURVE",
"911 643 CURVE",
"908 649 LINE",
"838 639 OFFCURVE",
"750 635 OFFCURVE",
"614 635 CURVE SMOOTH",
"535 635 OFFCURVE",
"461 649 OFFCURVE",
"395 649 CURVE SMOOTH",
"205 649 OFFCURVE",
"50 473 OFFCURVE",
"50 253 CURVE SMOOTH",
"50 97 OFFCURVE",
"147 -12 OFFCURVE",
"285 -12 CURVE SMOOTH",
"353 -12 OFFCURVE",
"422 1 OFFCURVE",
"520 1 CURVE SMOOTH",
"613 1 OFFCURVE",
"812 -7 OFFCURVE",
"812 -7 CURVE",
"818 -1 LINE",
"837 84 OFFCURVE",
"864 167 OFFCURVE",
"864 167 CURVE",
"862 172 LINE",
"817 167 LINE",
"788 57 OFFCURVE",
"768 45 OFFCURVE",
"619 45 CURVE SMOOTH",
"550 45 OFFCURVE",
"544 51 OFFCURVE",
"551 105 CURVE SMOOTH"
);
},
{
closed = 1;
nodes = (
"205 40 OFFCURVE",
"140 137 OFFCURVE",
"140 280 CURVE SMOOTH",
"140 463 OFFCURVE",
"243 591 OFFCURVE",
"376 591 CURVE SMOOTH",
"511 591 OFFCURVE",
"544 566 OFFCURVE",
"532 467 CURVE SMOOTH",
"499 208 LINE",
"482 85 OFFCURVE",
"432 40 OFFCURVE",
"311 40 CURVE SMOOTH"
);
}
);
width = 931;
},
{
anchors = (
{
name = top;
position = "{508, 647}";
}
);
background = {
paths = (
{
closed = 1;
nodes = (
"298 114 OFFCURVE",
"278 152 OFFCURVE",
"278 234 CURVE SMOOTH",
"278 438 OFFCURVE",
"306 522 OFFCURVE",
"373 522 CURVE SMOOTH",
"417 522 OFFCURVE",
"438 484 OFFCURVE",
"438 402 CURVE SMOOTH",
"438 197 OFFCURVE",
"410 114 OFFCURVE",
"341 114 CURVE SMOOTH"
);
}
);
};
layerId = UUID1;
paths = (
{
closed = 1;
nodes = (
"583 260 LINE",
"656 266 LINE SMOOTH",
"700 266 OFFCURVE",
"771 263 OFFCURVE",
"771 263 CURVE",
"799 378 LINE",
"788 392 LINE",
"788 392 OFFCURVE",
"710 386 OFFCURVE",
"681 386 CURVE SMOOTH",
"603 387 LINE",
"623 500 LINE SMOOTH",
"625 522 OFFCURVE",
"631 527 OFFCURVE",
"657 527 CURVE SMOOTH",
"726 527 OFFCURVE",
"744 518 OFFCURVE",
"744 484 CURVE SMOOTH",
"744 467 OFFCURVE",
"736 435 OFFCURVE",
"736 435 CURVE",
"876 444 LINE",
"892 538 OFFCURVE",
"922 643 OFFCURVE",
"922 643 CURVE",
"911 659 LINE",
"819 647 OFFCURVE",
"684 638 OFFCURVE",
"598 638 CURVE SMOOTH",
"509 638 OFFCURVE",
"429 650 OFFCURVE",
"366 650 CURVE SMOOTH",
"133 650 OFFCURVE",
"18 513 OFFCURVE",
"18 259 CURVE SMOOTH",
"18 85 OFFCURVE",
"120 -10 OFFCURVE",
"289 -10 CURVE SMOOTH",
"341 -10 OFFCURVE",
"415 3 OFFCURVE",
"487 3 CURVE SMOOTH",
"640 3 OFFCURVE",
"801 -7 OFFCURVE",
"801 -7 CURVE",
"818 9 LINE",
"841 118 OFFCURVE",
"870 215 OFFCURVE",
"870 215 CURVE",
"860 230 LINE",
"730 221 LINE",
"708 131 OFFCURVE",
"689 115 OFFCURVE",
"609 115 CURVE SMOOTH",
"570 115 OFFCURVE",
"565 123 OFFCURVE",
"571 175 CURVE SMOOTH"
);
},
{
closed = 1;
nodes = (
"263 108 OFFCURVE",
"245 144 OFFCURVE",
"245 235 CURVE SMOOTH",
"245 428 OFFCURVE",
"279 528 OFFCURVE",
"344 528 CURVE SMOOTH",
"395 528 OFFCURVE",
"419 498 OFFCURVE",
"412 439 CURVE SMOOTH",
"381 196 LINE",
"374 137 OFFCURVE",
"350 108 OFFCURVE",
"309 108 CURVE SMOOTH"
);
}
);
width = 885;
}
);
leftKerningGroup = O;
rightKerningGroup = E;
unicode = 0152;
},
{
color = 1;
glyphname = P;
lastChange = "2017-01-28 13:41:16 +0000";
layers = (
{
anchors = (
{
name = bottom;
position = "{185, 0}";
},
{
name = top;
position = "{302, 647}";
}
);
background = {
paths = (
{
closed = 1;
nodes = (
"100 598 LINE",
"102 594 LINE",
"102 594 OFFCURVE",
"123 596 OFFCURVE",
"134 596 CURVE SMOOTH",
"162 596 OFFCURVE",
"168 585 OFFCURVE",
"163 542 CURVE SMOOTH",
"111 117 LINE SMOOTH",
"104 60 OFFCURVE",
"89 46 OFFCURVE",
"31 35 CURVE",
"19 -8 LINE",
"21 -5 OFFCURVE",
"109 0 OFFCURVE",
"162 0 CURVE SMOOTH",
"192 0 OFFCURVE",
"247 -2 OFFCURVE",
"247 -3 CURVE",
"261 41 LINE",
"261 42 OFFCURVE",
"260 44 OFFCURVE",
"260 45 CURVE SMOOTH",
"260 45 OFFCURVE",
"226 41 OFFCURVE",
"207 41 CURVE SMOOTH",
"174 41 OFFCURVE",
"163 54 OFFCURVE",
"169 92 CURVE SMOOTH",
"192 246 LINE",
"284 246 LINE SMOOTH",
"407 246 OFFCURVE",
"520 364 OFFCURVE",
"520 489 CURVE SMOOTH",
"520 587 OFFCURVE",
"447 640 OFFCURVE",
"327 640 CURVE SMOOTH",
"327 640 OFFCURVE",
"243 636 OFFCURVE",
"217 636 CURVE SMOOTH",
"181 636 OFFCURVE",
"110 640 OFFCURVE",
"112 640 CURVE"
);
},
{
closed = 1;
nodes = (
"202 301 LINE",
"215 396 OFFCURVE",
"231 498 OFFCURVE",
"248 582 CURVE SMOOTH",
"250 595 OFFCURVE",
"249 596 OFFCURVE",
"275 596 CURVE SMOOTH",
"389 596 OFFCURVE",
"442 556 OFFCURVE",
"442 469 CURVE SMOOTH",
"442 365 OFFCURVE",
"392 300 OFFCURVE",
"302 286 CURVE"
);
}
);
};
layerId = UUID0;
paths = (
{
closed = 1;
nodes = (
"100 598 LINE",
"102 594 LINE",
"102 594 OFFCURVE",
"123 596 OFFCURVE",
"134 596 CURVE SMOOTH",
"162 596 OFFCURVE",
"168 585 OFFCURVE",
"163 542 CURVE SMOOTH",
"111 117 LINE SMOOTH",
"104 60 OFFCURVE",
"89 46 OFFCURVE",
"31 35 CURVE",
"19 -8 LINE",
"21 -5 OFFCURVE",
"109 0 OFFCURVE",
"162 0 CURVE SMOOTH",
"192 0 OFFCURVE",
"247 -2 OFFCURVE",
"247 -3 CURVE",
"261 41 LINE",
"261 42 OFFCURVE",
"260 44 OFFCURVE",
"260 45 CURVE SMOOTH",
"260 45 OFFCURVE",
"226 41 OFFCURVE",
"207 41 CURVE SMOOTH",
"174 41 OFFCURVE",
"163 54 OFFCURVE",
"169 92 CURVE SMOOTH",
"192 246 LINE",
"284 246 LINE SMOOTH",
"407 246 OFFCURVE",
"520 364 OFFCURVE",
"520 489 CURVE SMOOTH",
"520 587 OFFCURVE",
"437 640 OFFCURVE",
"317 640 CURVE SMOOTH",
"317 640 OFFCURVE",
"243 636 OFFCURVE",
"217 636 CURVE SMOOTH",
"181 636 OFFCURVE",
"110 640 OFFCURVE",
"112 640 CURVE"
);
},
{
closed = 1;
nodes = (
"202 301 LINE",
"215 396 OFFCURVE",
"231 498 OFFCURVE",
"248 582 CURVE SMOOTH",
"250 595 OFFCURVE",
"249 596 OFFCURVE",
"275 596 CURVE SMOOTH",
"389 596 OFFCURVE",
"442 556 OFFCURVE",
"442 469 CURVE SMOOTH",
"442 365 OFFCURVE",
"392 300 OFFCURVE",
"302 286 CURVE"
);
}
);
width = 504;
},
{
anchors = (
{
name = bottom;
position = "{200, 0}";
},
{
name = top;
position = "{317, 647}";
}
);
background = {
paths = (
{
closed = 1;
nodes = (
"55 569 LINE",
"63 557 LINE",
"63 557 OFFCURVE",
"83 559 OFFCURVE",
"98 559 CURVE SMOOTH",
"116 559 OFFCURVE",
"121 546 OFFCURVE",
"116 505 CURVE SMOOTH",
"74 168 LINE SMOOTH",
"67 112 OFFCURVE",
"49 91 OFFCURVE",
"1 83 CURVE",
"-19 -9 LINE",
"-19 -9 OFFCURVE",
"120 0 OFFCURVE",
"164 0 CURVE SMOOTH",
"206 0 OFFCURVE",
"326 -4 OFFCURVE",
"326 -4 CURVE",
"346 82 LINE",
"345 85 OFFCURVE",
"343 87 OFFCURVE",
"342 90 CURVE SMOOTH",
"342 90 OFFCURVE",
"324 88 OFFCURVE",
"311 88 CURVE SMOOTH",
"271 88 OFFCURVE",
"264 106 OFFCURVE",
"271 160 CURVE SMOOTH",
"277 208 LINE",
"360 208 LINE SMOOTH",
"500 208 OFFCURVE",
"635 330 OFFCURVE",
"635 473 CURVE SMOOTH",
"635 548 OFFCURVE",
"588 653 OFFCURVE",
"383 653 CURVE SMOOTH",
"383 653 OFFCURVE",
"259 647 OFFCURVE",
"214 647 CURVE SMOOTH",
"166 647 OFFCURVE",
"123 647 OFFCURVE",
"74 647 CURVE"
);
},
{
closed = 1;
nodes = (
"294 331 LINE",
"303 394 OFFCURVE",
"314 455 OFFCURVE",
"323 506 CURVE SMOOTH",
"326 525 OFFCURVE",
"328 528 OFFCURVE",
"341 528 CURVE SMOOTH",
"400 528 OFFCURVE",
"427 505 OFFCURVE",
"427 452 CURVE SMOOTH",
"427 388 OFFCURVE",
"407 339 OFFCURVE",
"357 321 CURVE"
);
}
);
};
layerId = UUID1;
paths = (
{
closed = 1;
nodes = (
"55 569 LINE",
"63 557 LINE",
"63 557 OFFCURVE",
"83 559 OFFCURVE",
"98 559 CURVE SMOOTH",
"116 559 OFFCURVE",
"121 546 OFFCURVE",
"116 505 CURVE SMOOTH",
"74 168 LINE SMOOTH",
"67 112 OFFCURVE",
"49 91 OFFCURVE",
"1 83 CURVE",
"-19 -9 LINE",
"-19 -9 OFFCURVE",
"120 0 OFFCURVE",
"164 0 CURVE SMOOTH",
"206 0 OFFCURVE",
"326 -4 OFFCURVE",
"326 -4 CURVE",
"346 82 LINE",
"345 85 OFFCURVE",
"343 87 OFFCURVE",
"342 90 CURVE SMOOTH",
"342 90 OFFCURVE",
"324 88 OFFCURVE",
"311 88 CURVE SMOOTH",
"271 88 OFFCURVE",
"264 106 OFFCURVE",
"271 160 CURVE SMOOTH",
"277 208 LINE",
"360 208 LINE SMOOTH",
"500 208 OFFCURVE",
"635 330 OFFCURVE",
"635 473 CURVE SMOOTH",
"635 548 OFFCURVE",
"588 653 OFFCURVE",
"383 653 CURVE SMOOTH",
"383 653 OFFCURVE",
"259 647 OFFCURVE",
"214 647 CURVE SMOOTH",
"166 647 OFFCURVE",
"123 647 OFFCURVE",
"74 647 CURVE"
);
},
{
closed = 1;
nodes = (
"294 331 LINE",
"303 394 OFFCURVE",
"314 455 OFFCURVE",
"323 506 CURVE SMOOTH",
"326 525 OFFCURVE",
"328 528 OFFCURVE",
"341 528 CURVE SMOOTH",
"400 528 OFFCURVE",
"427 505 OFFCURVE",
"427 452 CURVE SMOOTH",
"427 388 OFFCURVE",
"407 339 OFFCURVE",
"357 321 CURVE"
);
}
);
width = 591;
}
);
leftKerningGroup = H;
rightKerningGroup = P;
unicode = 0050;
},
{
color = 1;
glyphname = Thorn;
lastChange = "2017-01-28 13:41:23 +0000";
layers = (
{
background = {
paths = (
{
closed = 1;
nodes = (
"252 544 LINE SMOOTH",
"258 582 OFFCURVE",
"273 594 OFFCURVE",
"327 601 CURVE",
"337 646 LINE",
"337 646 OFFCURVE",
"268 637 OFFCURVE",
"224 637 CURVE SMOOTH",
"184 637 OFFCURVE",
"110 640 OFFCURVE",
"109 640 CURVE",
"96 596 LINE",
"98 592 LINE",
"98 592 OFFCURVE",
"124 594 OFFCURVE",
"138 594 CURVE SMOOTH",
"167 594 OFFCURVE",
"172 582 OFFCURVE",
"167 540 CURVE SMOOTH",
"115 120 LINE SMOOTH",
"108 64 OFFCURVE",
"89 46 OFFCURVE",
"28 34 CURVE",
"16 -12 LINE",
"16 -12 OFFCURVE",
"81 0 OFFCURVE",
"130 0 CURVE SMOOTH",
"175 0 OFFCURVE",
"257 -3 OFFCURVE",
"257 -3 CURVE",
"271 43 LINE",
"270 47 LINE",
"270 47 OFFCURVE",
"242 44 OFFCURVE",
"219 44 CURVE SMOOTH",
"185 44 OFFCURVE",
"179 58 OFFCURVE",
"185 112 CURVE SMOOTH",
"190 148 LINE",
"258 148 LINE SMOOTH",
"387 148 OFFCURVE",
"511 245 OFFCURVE",
"511 360 CURVE SMOOTH",
"511 452 OFFCURVE",
"445 503 OFFCURVE",
"323 503 CURVE SMOOTH",
"245 503 LINE"
);
},
{
closed = 1;
nodes = (
"237 453 OFFCURVE",
"240 454 OFFCURVE",
"261 454 CURVE SMOOTH",
"373 454 OFFCURVE",
"424 418 OFFCURVE",
"424 341 CURVE SMOOTH",
"424 255 OFFCURVE",
"380 203 OFFCURVE",
"293 192 CURVE",
"266 193 OFFCURVE",
"220 201 OFFCURVE",
"198 209 CURVE",
"205 260 OFFCURVE",
"216 331 OFFCURVE",
"235 446 CURVE SMOOTH"
);
}
);
};
layerId = UUID0;
paths = (
{
closed = 1;
nodes = (
"252 544 LINE SMOOTH",
"260 582 OFFCURVE",
"273 594 OFFCURVE",
"327 601 CURVE",
"337 646 LINE",
"337 646 OFFCURVE",
"268 637 OFFCURVE",
"224 637 CURVE SMOOTH",
"184 637 OFFCURVE",
"110 640 OFFCURVE",
"109 640 CURVE",
"96 596 LINE",
"98 592 LINE",
"98 592 OFFCURVE",
"124 594 OFFCURVE",
"138 594 CURVE SMOOTH",
"167 594 OFFCURVE",
"172 582 OFFCURVE",
"167 540 CURVE SMOOTH",
"115 120 LINE SMOOTH",
"108 64 OFFCURVE",
"89 46 OFFCURVE",
"28 34 CURVE",
"16 -12 LINE",
"16 -12 OFFCURVE",
"81 0 OFFCURVE",
"130 0 CURVE SMOOTH",
"175 0 OFFCURVE",
"257 -3 OFFCURVE",
"257 -3 CURVE",
"271 43 LINE",
"270 47 LINE",
"270 47 OFFCURVE",
"242 44 OFFCURVE",
"219 44 CURVE SMOOTH",
"185 44 OFFCURVE",
"179 58 OFFCURVE",
"185 112 CURVE SMOOTH",
"189 151 LINE",
"257 151 LINE SMOOTH",
"386 151 OFFCURVE",
"510 248 OFFCURVE",
"510 363 CURVE SMOOTH",
"510 455 OFFCURVE",
"444 506 OFFCURVE",
"322 506 CURVE SMOOTH",
"244 506 LINE"
);
},
{
closed = 1;
nodes = (
"235 456 OFFCURVE",
"239 457 OFFCURVE",
"260 457 CURVE SMOOTH",
"372 457 OFFCURVE",
"423 421 OFFCURVE",
"423 344 CURVE SMOOTH",
"423 258 OFFCURVE",
"379 206 OFFCURVE",
"292 195 CURVE",
"265 196 OFFCURVE",
"219 204 OFFCURVE",
"197 212 CURVE",
"204 263 OFFCURVE",
"218 334 OFFCURVE",
"234 449 CURVE SMOOTH"
);
}
);
width = 504;
},
{
layerId = UUID1;
paths = (
{
closed = 1;
nodes = (
"325 527 LINE SMOOTH",
"329 549 OFFCURVE",
"336 552 OFFCURVE",
"384 562 CURVE",
"402 652 LINE",
"402 652 OFFCURVE",
"273 647 OFFCURVE",
"232 647 CURVE SMOOTH",
"179 647 OFFCURVE",
"129 647 OFFCURVE",
"73 647 CURVE",
"56 572 LINE",
"64 558 LINE",
"64 558 OFFCURVE",
"78 559 OFFCURVE",
"88 559 CURVE SMOOTH",
"115 559 OFFCURVE",
"121 549 OFFCURVE",
"116 508 CURVE SMOOTH",
"73 162 LINE SMOOTH",
"67 106 OFFCURVE",
"53 91 OFFCURVE",
"1 80 CURVE",
"-17 -5 LINE",
"-17 -5 OFFCURVE",
"86 0 OFFCURVE",
"147 0 CURVE SMOOTH",
"191 0 OFFCURVE",
"321 -4 OFFCURVE",
"321 -4 CURVE",
"340 80 LINE",
"333 90 LINE",
"333 90 OFFCURVE",
"320 87 OFFCURVE",
"292 87 CURVE SMOOTH",
"268 87 OFFCURVE",
"262 92 OFFCURVE",
"265 116 CURVE SMOOTH",
"268 139 LINE",
"337 139 LINE SMOOTH",
"492 139 OFFCURVE",
"605 226 OFFCURVE",
"605 360 CURVE SMOOTH",
"605 469 OFFCURVE",
"536 522 OFFCURVE",
"390 522 CURVE SMOOTH",
"324 522 LINE"
);
},
{
closed = 1;
nodes = (
"303 401 OFFCURVE",
"310 407 OFFCURVE",
"323 407 CURVE SMOOTH",
"374 407 OFFCURVE",
"398 388 OFFCURVE",
"398 344 CURVE SMOOTH",
"398 295 OFFCURVE",
"381 257 OFFCURVE",
"342 246 CURVE",
"333 246 OFFCURVE",
"309 250 OFFCURVE",
"284 256 CURVE",
"288 290 OFFCURVE",
"298 358 OFFCURVE",
"301 385 CURVE SMOOTH"
);
}
);
width = 590;
}
);
leftKerningGroup = H;
rightKerningGroup = P;
unicode = 00DE;
},
{
color = 1;
glyphname = Q;
lastChange = "2017-01-28 13:41:08 +0000";
layers = (
{
anchors = (
{
name = bottom;
position = "{427, 0}";
},
{
name = top;
position = "{337, 647}";
}
);
background = {
paths = (
{
closed = 1;
nodes = (
"291 -12 LINE",
"497 -184 OFFCURVE",
"552 -214 OFFCURVE",
"644 -214 CURVE SMOOTH",
"662 -214 OFFCURVE",
"740 -148 OFFCURVE",
"740 -148 CURVE",
"737 -133 LINE",
"733 -131 LINE",
"733 -131 OFFCURVE",
"701 -141 OFFCURVE",
"655 -141 CURVE SMOOTH",
"578 -141 OFFCURVE",
"501 -105 OFFCURVE",
"375 -6 CURVE",
"376 12 LINE"
);
},
{
closed = 1;
nodes = (
"204 35 OFFCURVE",
"131 134 OFFCURVE",
"131 285 CURVE SMOOTH",
"131 460 OFFCURVE",
"234 593 OFFCURVE",
"372 593 CURVE SMOOTH",
"486 593 OFFCURVE",
"561 494 OFFCURVE",
"561 343 CURVE SMOOTH",
"561 166 OFFCURVE",
"457 35 OFFCURVE",
"315 35 CURVE SMOOTH"
);
},
{
closed = 1;
nodes = (
"486 -12 OFFCURVE",
"648 165 OFFCURVE",
"648 382 CURVE SMOOTH",
"648 538 OFFCURVE",
"547 648 OFFCURVE",
"401 648 CURVE SMOOTH",
"208 648 OFFCURVE",
"49 470 OFFCURVE",
"49 254 CURVE SMOOTH",
"49 97 OFFCURVE",
"148 -12 OFFCURVE",
"290 -12 CURVE SMOOTH"
);
}
);
};
layerId = UUID0;
paths = (
{
closed = 1;
nodes = (
"291 -12 LINE",
"497 -184 OFFCURVE",
"552 -214 OFFCURVE",
"644 -214 CURVE SMOOTH",
"662 -214 OFFCURVE",
"740 -148 OFFCURVE",
"740 -148 CURVE",
"737 -133 LINE",
"733 -131 LINE",
"733 -131 OFFCURVE",
"701 -141 OFFCURVE",
"655 -141 CURVE SMOOTH",
"578 -141 OFFCURVE",
"501 -105 OFFCURVE",
"375 -6 CURVE",
"376 12 LINE"
);
},
{
closed = 1;
nodes = (
"204 35 OFFCURVE",
"131 134 OFFCURVE",
"131 285 CURVE SMOOTH",
"131 461 OFFCURVE",
"235 593 OFFCURVE",
"372 593 CURVE SMOOTH",
"486 593 OFFCURVE",
"561 494 OFFCURVE",
"561 343 CURVE SMOOTH",
"561 166 OFFCURVE",
"457 35 OFFCURVE",
"315 35 CURVE SMOOTH"
);
},
{
closed = 1;
nodes = (
"494 -12 OFFCURVE",
"648 163 OFFCURVE",
"648 382 CURVE SMOOTH",
"648 536 OFFCURVE",
"539 648 OFFCURVE",
"391 648 CURVE SMOOTH",
"201 648 OFFCURVE",
"49 473 OFFCURVE",
"49 254 CURVE SMOOTH",
"49 100 OFFCURVE",
"155 -12 OFFCURVE",
"300 -12 CURVE SMOOTH"
);
}
);
width = 675;
},
{
anchors = (
{
name = bottom;
position = "{423, 0}";
},
{
name = top;
position = "{333, 647}";
}
);
background = {
paths = (
{
closed = 1;
nodes = (
"273 -12 LINE",
"447 -207 OFFCURVE",
"493 -242 OFFCURVE",
"572 -242 CURVE SMOOTH",
"609 -242 OFFCURVE",
"759 -141 OFFCURVE",
"759 -141 CURVE",
"750 -73 LINE",
"740 -62 LINE",
"740 -62 OFFCURVE",
"693 -72 OFFCURVE",
"650 -72 CURVE SMOOTH",
"587 -72 OFFCURVE",
"507 -37 OFFCURVE",
"448 18 CURVE",
"449 32 LINE"
);
},
{
closed = 1;
nodes = (
"267 114 OFFCURVE",
"247 152 OFFCURVE",
"247 234 CURVE SMOOTH",
"247 438 OFFCURVE",
"275 522 OFFCURVE",
"342 522 CURVE SMOOTH",
"386 522 OFFCURVE",
"407 484 OFFCURVE",
"407 402 CURVE SMOOTH",
"407 197 OFFCURVE",
"379 114 OFFCURVE",
"310 114 CURVE SMOOTH"
);
},
{
closed = 1;
nodes = (
"512 -12 OFFCURVE",
"638 141 OFFCURVE",
"638 398 CURVE SMOOTH",
"638 571 OFFCURVE",
"541 659 OFFCURVE",
"372 659 CURVE SMOOTH",
"140 659 OFFCURVE",
"18 513 OFFCURVE",
"18 256 CURVE SMOOTH",
"18 82 OFFCURVE",
"118 -12 OFFCURVE",
"283 -12 CURVE SMOOTH"
);
}
);
};
layerId = UUID1;
paths = (
{
closed = 1;
nodes = (
"273 -12 LINE",
"447 -207 OFFCURVE",
"493 -242 OFFCURVE",
"572 -242 CURVE SMOOTH",
"609 -242 OFFCURVE",
"759 -141 OFFCURVE",
"759 -141 CURVE",
"750 -73 LINE",
"740 -62 LINE",
"740 -62 OFFCURVE",
"693 -72 OFFCURVE",
"650 -72 CURVE SMOOTH",
"587 -72 OFFCURVE",
"507 -37 OFFCURVE",
"448 18 CURVE",
"449 32 LINE"
);
},
{
closed = 1;
nodes = (
"267 114 OFFCURVE",
"247 152 OFFCURVE",
"247 234 CURVE SMOOTH",
"247 438 OFFCURVE",
"275 522 OFFCURVE",
"342 522 CURVE SMOOTH",
"386 522 OFFCURVE",
"407 484 OFFCURVE",
"407 402 CURVE SMOOTH",
"407 197 OFFCURVE",
"379 114 OFFCURVE",
"310 114 CURVE SMOOTH"
);
},
{
closed = 1;
nodes = (
"512 -12 OFFCURVE",
"638 141 OFFCURVE",
"638 398 CURVE SMOOTH",
"638 571 OFFCURVE",
"541 659 OFFCURVE",
"372 659 CURVE SMOOTH",
"140 659 OFFCURVE",
"18 513 OFFCURVE",
"18 256 CURVE SMOOTH",
"18 82 OFFCURVE",
"118 -12 OFFCURVE",
"283 -12 CURVE SMOOTH"
);
}
);
width = 637;
}
);
leftKerningGroup = O;
rightKerningGroup = O;
unicode = 0051;
},
{
color = 1;
glyphname = R;
lastChange = "2017-01-28 13:41:27 +0000";
layers = (
{
anchors = (
{
name = bottom;
position = "{253, 0}";
},
{
name = top;
position = "{331, 636}";
}
);
background = {
paths = (
{
closed = 1;
nodes = (
"291 276 LINE",
"371 79 LINE SMOOTH",
"395 22 OFFCURVE",
"429 -16 OFFCURVE",
"461 -16 CURVE",
"542 -5 LINE",
"551 27 LINE",
"548 30 LINE",
"495 30 OFFCURVE",
"469 52 OFFCURVE",
"438 115 CURVE SMOOTH",
"353 293 LINE",
"458 339 OFFCURVE",
"510 415 OFFCURVE",
"510 503 CURVE SMOOTH",
"510 587 OFFCURVE",
"435 640 OFFCURVE",
"327 640 CURVE SMOOTH",
"327 640 OFFCURVE",
"252 636 OFFCURVE",
"220 636 CURVE SMOOTH",
"184 636 OFFCURVE",
"115 640 OFFCURVE",
"115 640 CURVE",
"103 598 LINE",
"105 594 LINE",
"105 594 OFFCURVE",
"126 596 OFFCURVE",
"137 596 CURVE SMOOTH",
"165 596 OFFCURVE",
"171 585 OFFCURVE",
"166 541 CURVE SMOOTH",
"114 117 LINE SMOOTH",
"107 59 OFFCURVE",
"91 46 OFFCURVE",
"30 39 CURVE",
"16 -4 LINE",
"16 -4 OFFCURVE",
"78 0 OFFCURVE",
"125 -1 CURVE SMOOTH",
"170 -2 OFFCURVE",
"225 -4 OFFCURVE",
"225 -4 CURVE",
"238 36 LINE",
"237 39 LINE",
"175 39 OFFCURVE",
"168 49 OFFCURVE",
"178 122 CURVE SMOOTH",
"200 276 LINE"
);
},
{
closed = 1;
nodes = (
"209 328 LINE",
"218 400 OFFCURVE",
"227 472 OFFCURVE",
"248 579 CURVE SMOOTH",
"253 597 OFFCURVE",
"256 602 OFFCURVE",
"269 602 CURVE SMOOTH",
"377 602 OFFCURVE",
"431 562 OFFCURVE",
"431 486 CURVE SMOOTH",
"431 348 OFFCURVE",
"305 317 OFFCURVE",
"307 318 CURVE"
);
}
);
};
layerId = UUID0;
paths = (
{
closed = 1;
nodes = (
"291 276 LINE",
"371 79 LINE SMOOTH",
"395 22 OFFCURVE",
"429 -16 OFFCURVE",
"461 -16 CURVE",
"542 -5 LINE",
"551 27 LINE",
"548 30 LINE",
"495 30 OFFCURVE",
"469 52 OFFCURVE",
"438 115 CURVE SMOOTH",
"353 293 LINE",
"458 339 OFFCURVE",
"510 415 OFFCURVE",
"510 503 CURVE SMOOTH",
"510 587 OFFCURVE",
"425 640 OFFCURVE",
"317 640 CURVE SMOOTH",
"317 640 OFFCURVE",
"252 636 OFFCURVE",
"220 636 CURVE SMOOTH",
"184 636 OFFCURVE",
"115 640 OFFCURVE",
"115 640 CURVE",
"103 598 LINE",
"105 594 LINE",
"105 594 OFFCURVE",
"126 596 OFFCURVE",
"137 596 CURVE SMOOTH",
"165 596 OFFCURVE",
"171 585 OFFCURVE",
"166 541 CURVE SMOOTH",
"114 117 LINE SMOOTH",
"107 59 OFFCURVE",
"91 46 OFFCURVE",
"30 39 CURVE",
"16 -4 LINE",
"16 -4 OFFCURVE",
"78 0 OFFCURVE",
"125 -1 CURVE SMOOTH",
"170 -2 OFFCURVE",
"225 -4 OFFCURVE",
"225 -4 CURVE",
"238 36 LINE",
"237 39 LINE",
"175 39 OFFCURVE",
"168 49 OFFCURVE",
"178 122 CURVE SMOOTH",
"200 276 LINE"
);
},
{
closed = 1;
nodes = (
"209 328 LINE",
"218 400 OFFCURVE",
"227 472 OFFCURVE",
"248 579 CURVE SMOOTH",
"253 597 OFFCURVE",
"256 602 OFFCURVE",
"269 602 CURVE SMOOTH",
"377 602 OFFCURVE",
"431 562 OFFCURVE",
"431 486 CURVE SMOOTH",
"431 348 OFFCURVE",
"305 317 OFFCURVE",
"307 318 CURVE"
);
}
);
width = 569;
},
{
anchors = (
{
name = bottom;
position = "{302, 0}";
},
{
name = top;
position = "{381, 647}";
}
);
background = {
paths = (
{
closed = 1;
nodes = (
"332 228 LINE",
"371 75 LINE SMOOTH",
"388 9 OFFCURVE",
"415 -16 OFFCURVE",
"471 -16 CURVE",
"626 -5 LINE",
"644 68 LINE",
"635 84 LINE",
"608 84 OFFCURVE",
"578 115 OFFCURVE",
"553 172 CURVE SMOOTH",
"508 276 LINE",
"601 329 OFFCURVE",
"648 401 OFFCURVE",
"648 489 CURVE SMOOTH",
"648 598 OFFCURVE",
"555 653 OFFCURVE",
"388 653 CURVE SMOOTH",
"388 653 OFFCURVE",
"262 647 OFFCURVE",
"214 647 CURVE SMOOTH",
"174 647 OFFCURVE",
"75 648 OFFCURVE",
"75 648 CURVE",
"55 569 LINE",
"63 557 LINE",
"63 557 OFFCURVE",
"83 559 OFFCURVE",
"98 559 CURVE SMOOTH",
"116 559 OFFCURVE",
"121 548 OFFCURVE",
"117 515 CURVE SMOOTH",
"74 168 LINE SMOOTH",
"67 111 OFFCURVE",
"49 91 OFFCURVE",
"1 83 CURVE",
"-19 -9 LINE",
"-19 -9 OFFCURVE",
"80 0 OFFCURVE",
"153 0 CURVE SMOOTH",
"194 0 OFFCURVE",
"315 -4 OFFCURVE",
"315 -4 CURVE",
"335 80 LINE",
"331 88 LINE",
"269 91 OFFCURVE",
"264 98 OFFCURVE",
"271 160 CURVE SMOOTH",
"279 228 LINE"
);
},
{
closed = 1;
nodes = (
"297 354 LINE",
"302 389 OFFCURVE",
"306 414 OFFCURVE",
"323 506 CURVE SMOOTH",
"326 525 OFFCURVE",
"328 528 OFFCURVE",
"342 528 CURVE SMOOTH",
"408 528 OFFCURVE",
"439 506 OFFCURVE",
"439 458 CURVE SMOOTH",
"439 400 OFFCURVE",
"416 362 OFFCURVE",
"369 344 CURVE"
);
}
);
};
layerId = UUID1;
paths = (
{
closed = 1;
nodes = (
"332 228 LINE",
"371 75 LINE SMOOTH",
"388 9 OFFCURVE",
"415 -16 OFFCURVE",
"471 -16 CURVE",
"626 -5 LINE",
"644 68 LINE",
"635 84 LINE",
"608 84 OFFCURVE",
"578 115 OFFCURVE",
"553 172 CURVE SMOOTH",
"508 276 LINE",
"601 329 OFFCURVE",
"648 401 OFFCURVE",
"648 489 CURVE SMOOTH",
"648 598 OFFCURVE",
"555 653 OFFCURVE",
"388 653 CURVE SMOOTH",
"388 653 OFFCURVE",
"262 647 OFFCURVE",
"214 647 CURVE SMOOTH",
"174 647 OFFCURVE",
"75 648 OFFCURVE",
"75 648 CURVE",
"55 569 LINE",
"63 557 LINE",
"63 557 OFFCURVE",
"83 559 OFFCURVE",
"98 559 CURVE SMOOTH",
"116 559 OFFCURVE",
"121 548 OFFCURVE",
"117 515 CURVE SMOOTH",
"74 168 LINE SMOOTH",
"67 111 OFFCURVE",
"49 91 OFFCURVE",
"1 83 CURVE",
"-19 -9 LINE",
"-19 -9 OFFCURVE",
"80 0 OFFCURVE",
"153 0 CURVE SMOOTH",
"194 0 OFFCURVE",
"315 -4 OFFCURVE",
"315 -4 CURVE",
"335 80 LINE",
"331 88 LINE",
"269 91 OFFCURVE",
"264 98 OFFCURVE",
"271 160 CURVE SMOOTH",
"279 228 LINE"
);
},
{
closed = 1;
nodes = (
"297 354 LINE",
"302 389 OFFCURVE",
"306 414 OFFCURVE",
"323 506 CURVE SMOOTH",
"326 525 OFFCURVE",
"328 528 OFFCURVE",
"342 528 CURVE SMOOTH",
"408 528 OFFCURVE",
"439 506 OFFCURVE",
"439 458 CURVE SMOOTH",
"439 400 OFFCURVE",
"416 362 OFFCURVE",
"369 344 CURVE"
);
}
);
width = 661;
}
);
leftKerningGroup = H;
rightKerningGroup = R;
unicode = 0052;
},
{
color = 1;
glyphname = S;
lastChange = "2017-01-28 13:41:12 +0000";
layers = (
{
anchors = (
{
name = bottom;
position = "{232, 0}";
},
{
name = top;
position = "{320, 636}";
}
);
background = {
paths = (
{
closed = 1;
nodes = (
"346 -12 OFFCURVE",
"448 78 OFFCURVE",
"448 195 CURVE SMOOTH",
"448 292 OFFCURVE",
"329 336 OFFCURVE",
"249 390 CURVE SMOOTH",
"208 419 OFFCURVE",
"176 449 OFFCURVE",
"176 492 CURVE SMOOTH",
"176 553 OFFCURVE",
"236 599 OFFCURVE",
"312 599 CURVE SMOOTH",
"389 599 OFFCURVE",
"417 580 OFFCURVE",
"417 525 CURVE SMOOTH",
"417 495 OFFCURVE",
"406 451 OFFCURVE",
"406 451 CURVE",
"411 446 LINE",
"447 450 LINE",
"464 542 OFFCURVE",
"488 619 OFFCURVE",
"488 619 CURVE",
"486 624 LINE",
"486 624 OFFCURVE",
"419 648 OFFCURVE",
"334 648 CURVE SMOOTH",
"203 648 OFFCURVE",
"102 559 OFFCURVE",
"102 450 CURVE SMOOTH",
"102 364 OFFCURVE",
"187 320 OFFCURVE",
"261 276 CURVE SMOOTH",
"318 242 OFFCURVE",
"367 207 OFFCURVE",
"367 154 CURVE SMOOTH",
"367 81 OFFCURVE",
"305 32 OFFCURVE",
"217 32 CURVE SMOOTH",
"112 32 OFFCURVE",
"95 61 OFFCURVE",
"113 210 CURVE",
"72 205 LINE",
"60 106 OFFCURVE",
"38 31 OFFCURVE",
"38 31 CURVE",
"42 21 LINE",
"42 21 OFFCURVE",
"108 -12 OFFCURVE",
"198 -12 CURVE SMOOTH"
);
}
);
};
layerId = UUID0;
paths = (
{
closed = 1;
nodes = (
"346 -12 OFFCURVE",
"448 78 OFFCURVE",
"448 195 CURVE SMOOTH",
"448 292 OFFCURVE",
"329 336 OFFCURVE",
"249 390 CURVE SMOOTH",
"208 419 OFFCURVE",
"176 449 OFFCURVE",
"176 492 CURVE SMOOTH",
"176 553 OFFCURVE",
"236 599 OFFCURVE",
"312 599 CURVE SMOOTH",
"389 599 OFFCURVE",
"417 580 OFFCURVE",
"417 525 CURVE SMOOTH",
"417 495 OFFCURVE",
"406 451 OFFCURVE",
"406 451 CURVE",
"411 446 LINE",
"447 450 LINE",
"464 542 OFFCURVE",
"488 619 OFFCURVE",
"488 619 CURVE",
"486 624 LINE",
"486 624 OFFCURVE",
"419 648 OFFCURVE",
"334 648 CURVE SMOOTH",
"203 648 OFFCURVE",
"102 559 OFFCURVE",
"102 450 CURVE SMOOTH",
"102 364 OFFCURVE",
"187 320 OFFCURVE",
"261 276 CURVE SMOOTH",
"318 242 OFFCURVE",
"367 207 OFFCURVE",
"367 154 CURVE SMOOTH",
"367 81 OFFCURVE",
"305 32 OFFCURVE",
"217 32 CURVE SMOOTH",
"112 32 OFFCURVE",
"95 61 OFFCURVE",
"113 210 CURVE",
"72 205 LINE",
"60 106 OFFCURVE",
"38 31 OFFCURVE",
"38 31 CURVE",
"42 21 LINE",
"42 21 OFFCURVE",
"108 -12 OFFCURVE",
"198 -12 CURVE SMOOTH"
);
}
);
width = 511;
},
{
anchors = (
{
name = bottom;
position = "{239, 0}";
},
{
name = top;
position = "{338, 647}";
}
);
background = {
paths = (
{
closed = 1;
nodes = (
"396 -12 OFFCURVE",
"519 74 OFFCURVE",
"519 216 CURVE SMOOTH",
"519 333 OFFCURVE",
"408 371 OFFCURVE",
"333 407 CURVE SMOOTH",
"294 426 OFFCURVE",
"265 444 OFFCURVE",
"265 472 CURVE SMOOTH",
"265 500 OFFCURVE",
"291 521 OFFCURVE",
"328 521 CURVE SMOOTH",
"367 521 OFFCURVE",
"390 502 OFFCURVE",
"390 463 CURVE SMOOTH",
"390 458 OFFCURVE",
"387 435 OFFCURVE",
"387 435 CURVE",
"398 427 LINE",
"516 435 LINE",
"534 525 OFFCURVE",
"563 609 OFFCURVE",
"563 609 CURVE",
"553 631 LINE",
"553 631 OFFCURVE",
"467 659 OFFCURVE",
"360 659 CURVE SMOOTH",
"166 659 OFFCURVE",
"39 566 OFFCURVE",
"39 425 CURVE SMOOTH",
"39 323 OFFCURVE",
"120 280 OFFCURVE",
"191 246 CURVE SMOOTH",
"245 221 OFFCURVE",
"292 201 OFFCURVE",
"292 166 CURVE SMOOTH",
"292 139 OFFCURVE",
"266 121 OFFCURVE",
"227 121 CURVE SMOOTH",
"173 121 OFFCURVE",
"150 160 OFFCURVE",
"156 223 CURVE",
"29 214 LINE",
"18 148 OFFCURVE",
"-13 49 OFFCURVE",
"-13 49 CURVE",
"-3 31 LINE",
"-3 31 OFFCURVE",
"80 -12 OFFCURVE",
"195 -12 CURVE SMOOTH"
);
}
);
};
layerId = UUID1;
paths = (
{
closed = 1;
nodes = (
"396 -12 OFFCURVE",
"519 74 OFFCURVE",
"519 216 CURVE SMOOTH",
"519 333 OFFCURVE",
"408 371 OFFCURVE",
"333 407 CURVE SMOOTH",
"294 426 OFFCURVE",
"265 444 OFFCURVE",
"265 472 CURVE SMOOTH",
"265 500 OFFCURVE",
"291 521 OFFCURVE",
"328 521 CURVE SMOOTH",
"367 521 OFFCURVE",
"390 502 OFFCURVE",
"390 463 CURVE SMOOTH",
"390 458 OFFCURVE",
"387 435 OFFCURVE",
"387 435 CURVE",
"398 427 LINE",
"516 435 LINE",
"534 525 OFFCURVE",
"563 609 OFFCURVE",
"563 609 CURVE",
"553 631 LINE",
"553 631 OFFCURVE",
"467 659 OFFCURVE",
"360 659 CURVE SMOOTH",
"166 659 OFFCURVE",
"39 566 OFFCURVE",
"39 425 CURVE SMOOTH",
"39 323 OFFCURVE",
"120 280 OFFCURVE",
"191 246 CURVE SMOOTH",
"245 221 OFFCURVE",
"292 201 OFFCURVE",
"292 166 CURVE SMOOTH",
"292 139 OFFCURVE",
"266 121 OFFCURVE",
"227 121 CURVE SMOOTH",
"173 121 OFFCURVE",
"150 160 OFFCURVE",
"156 223 CURVE",
"29 214 LINE",
"18 148 OFFCURVE",
"-13 49 OFFCURVE",
"-13 49 CURVE",
"-3 31 LINE",
"-3 31 OFFCURVE",
"80 -12 OFFCURVE",
"195 -12 CURVE SMOOTH"
);
}
);
width = 536;
}
);
leftKerningGroup = S;
rightKerningGroup = S;
unicode = 0053;
},
{
color = 1;
glyphname = Saltillo;
lastChange = "2017-01-28 13:41:08 +0000";
layers = (
{
background = {
paths = (
{
closed = 1;
nodes = (
"164 648 LINE",
"88 633 LINE",
"86 575 OFFCURVE",
"76 461 OFFCURVE",
"57 362 CURVE",
"68 360 LINE",
"98 375 LINE",
"127 468 OFFCURVE",
"157 581 OFFCURVE",
"171 639 CURVE"
);
}
);
};
layerId = UUID0;
paths = (
{
closed = 1;
nodes = (
"169 662 LINE",
"91 647 LINE",
"88 580 OFFCURVE",
"75 450 OFFCURVE",
"49 336 CURVE",
"60 334 LINE",
"90 349 LINE",
"126 456 OFFCURVE",
"160 586 OFFCURVE",
"176 653 CURVE"
);
}
);
width = 142;
},
{
background = {
paths = (
{
closed = 1;
nodes = (
"76 601 LINE",
"94 581 OFFCURVE",
"105 551 OFFCURVE",
"105 525 CURVE SMOOTH",
"105 488 OFFCURVE",
"80 446 OFFCURVE",
"41 419 CURVE",
"41 394 LINE",
"99 348 LINE",
"201 406 OFFCURVE",
"266 487 OFFCURVE",
"266 558 CURVE SMOOTH",
"266 619 OFFCURVE",
"232 659 OFFCURVE",
"181 659 CURVE SMOOTH",
"152 659 OFFCURVE",
"114 642 OFFCURVE",
"79 615 CURVE"
);
}
);
};
layerId = UUID1;
paths = (
{
closed = 1;
nodes = (
"254 659 LINE",
"119 645 LINE",
"115 577 OFFCURVE",
"103 444 OFFCURVE",
"81 326 CURVE",
"99 320 LINE",
"176 345 LINE",
"211 457 OFFCURVE",
"246 583 OFFCURVE",
"261 647 CURVE"
);
}
);
width = 259;
}
);
leftKerningGroup = asterisk;
rightKerningGroup = asterisk;
unicode = A78B;
},
{
color = 1;
glyphname = Germandbls;
lastChange = "2017-01-28 13:41:10 +0000";
layers = (
{
background = {
paths = (
{
closed = 1;
nodes = (
"200 280 LINE",
"217 283 OFFCURVE",
"246 287 OFFCURVE",
"275 287 CURVE SMOOTH",
"320 287 OFFCURVE",
"394 284 OFFCURVE",
"394 284 CURVE",
"413 341 LINE",
"411 345 LINE",
"411 345 OFFCURVE",
"339 334 OFFCURVE",
"309 334 CURVE SMOOTH",
"210 335 LINE",
"243 551 LINE SMOOTH",
"249 589 OFFCURVE",
"253 590 OFFCURVE",
"316 590 CURVE SMOOTH",
"416 590 OFFCURVE",
"440 586 OFFCURVE",
"440 541 CURVE SMOOTH",
"440 514 OFFCURVE",
"431 472 OFFCURVE",
"431 472 CURVE",
"474 476 LINE",
"491 568 OFFCURVE",
"517 643 OFFCURVE",
"517 643 CURVE",
"515 648 LINE",
"453 639 OFFCURVE",
"376 636 OFFCURVE",
"244 636 CURVE SMOOTH",
"187 636 OFFCURVE",
"113 639 OFFCURVE",
"113 639 CURVE",
"102 597 LINE",
"103 594 LINE",
"103 594 OFFCURVE",
"125 596 OFFCURVE",
"136 596 CURVE SMOOTH",
"165 596 OFFCURVE",
"170 585 OFFCURVE",
"165 542 CURVE SMOOTH",
"112 117 LINE SMOOTH",
"105 61 OFFCURVE",
"88 43 OFFCURVE",
"26 31 CURVE",
"16 -12 LINE",
"16 -12 OFFCURVE",
"77 0 OFFCURVE",
"124 0 CURVE SMOOTH",
"175 0 OFFCURVE",
"266 -4 OFFCURVE",
"266 -4 CURVE",
"279 39 LINE",
"278 43 LINE",
"278 43 OFFCURVE",
"229 40 OFFCURVE",
"209 40 CURVE SMOOTH",
"176 40 OFFCURVE",
"168 61 OFFCURVE",
"175 108 CURVE SMOOTH"
);
}
);
};
layerId = UUID0;
paths = (
{
closed = 1;
nodes = (
"561 -12 OFFCURVE",
"670 91 OFFCURVE",
"670 219 CURVE SMOOTH",
"670 311 OFFCURVE",
"597 377 OFFCURVE",
"487 382 CURVE SMOOTH",
"452 383 LINE",
"650 624 LINE",
"640 642 LINE",
"640 642 OFFCURVE",
"427 636 OFFCURVE",
"287 636 CURVE SMOOTH",
"231 636 OFFCURVE",
"113 639 OFFCURVE",
"113 639 CURVE",
"101 598 LINE",
"103 594 LINE",
"103 594 OFFCURVE",
"124 596 OFFCURVE",
"136 596 CURVE SMOOTH",
"165 596 OFFCURVE",
"171 585 OFFCURVE",
"165 542 CURVE SMOOTH",
"112 117 LINE SMOOTH",
"105 61 OFFCURVE",
"87 43 OFFCURVE",
"27 31 CURVE",
"15 -12 LINE",
"15 -12 OFFCURVE",
"76 0 OFFCURVE",
"122 0 CURVE SMOOTH",
"167 0 OFFCURVE",
"236 -4 OFFCURVE",
"236 -4 CURVE",
"251 40 LINE",
"249 43 LINE",
"249 43 OFFCURVE",
"222 40 OFFCURVE",
"208 40 CURVE SMOOTH",
"175 40 OFFCURVE",
"168 54 OFFCURVE",
"175 108 CURVE",
"242 551 LINE SMOOTH",
"248 589 OFFCURVE",
"251 591 OFFCURVE",
"316 591 CURVE SMOOTH",
"552 591 LINE",
"347 335 LINE",
"360 306 LINE",
"360 306 OFFCURVE",
"401 312 OFFCURVE",
"437 312 CURVE SMOOTH",
"539 312 OFFCURVE",
"591 268 OFFCURVE",
"591 186 CURVE SMOOTH",
"591 96 OFFCURVE",
"532 32 OFFCURVE",
"456 32 CURVE SMOOTH",
"350 32 OFFCURVE",
"332 60 OFFCURVE",
"350 200 CURVE",
"309 196 LINE",
"295 108 OFFCURVE",
"278 31 OFFCURVE",
"278 31 CURVE",
"281 21 LINE",
"281 21 OFFCURVE",
"336 -12 OFFCURVE",
"426 -12 CURVE SMOOTH"
);
}
);
width = 700;
},
{
background = {
paths = (
{
closed = 1;
nodes = (
"281 243 LINE",
"298 245 OFFCURVE",
"326 249 OFFCURVE",
"354 249 CURVE SMOOTH",
"397 249 OFFCURVE",
"465 246 OFFCURVE",
"465 246 CURVE",
"493 361 LINE",
"482 375 LINE",
"482 375 OFFCURVE",
"408 369 OFFCURVE",
"380 369 CURVE SMOOTH",
"300 370 LINE",
"323 500 LINE SMOOTH",
"327 522 OFFCURVE",
"332 527 OFFCURVE",
"358 527 CURVE SMOOTH",
"405 527 OFFCURVE",
"421 517 OFFCURVE",
"421 484 CURVE SMOOTH",
"421 467 OFFCURVE",
"414 436 OFFCURVE",
"414 436 CURVE",
"554 444 LINE",
"569 536 OFFCURVE",
"595 643 OFFCURVE",
"595 643 CURVE",
"584 659 LINE",
"534 652 OFFCURVE",
"419 647 OFFCURVE",
"310 647 CURVE SMOOTH",
"220 647 OFFCURVE",
"80 650 OFFCURVE",
"80 650 CURVE",
"61 571 LINE",
"71 557 LINE",
"71 557 OFFCURVE",
"86 559 OFFCURVE",
"96 559 CURVE SMOOTH",
"117 559 OFFCURVE",
"121 548 OFFCURVE",
"116 505 CURVE SMOOTH",
"73 170 LINE SMOOTH",
"65 110 OFFCURVE",
"49 90 OFFCURVE",
"0 82 CURVE",
"-20 -10 LINE",
"-20 -10 OFFCURVE",
"88 0 OFFCURVE",
"191 0 CURVE SMOOTH",
"236 0 OFFCURVE",
"349 -3 OFFCURVE",
"349 -3 CURVE",
"375 105 LINE",
"361 123 LINE",
"361 123 OFFCURVE",
"335 115 OFFCURVE",
"305 115 CURVE SMOOTH",
"272 115 OFFCURVE",
"266 127 OFFCURVE",
"272 175 CURVE SMOOTH"
);
}
);
};
layerId = UUID1;
paths = (
{
closed = 1;
nodes = (
"702 -12 OFFCURVE",
"824 94 OFFCURVE",
"824 249 CURVE SMOOTH",
"824 348 OFFCURVE",
"762 422 OFFCURVE",
"669 422 CURVE SMOOTH",
"652 422 LINE",
"832 602 LINE",
"812 655 LINE",
"812 655 OFFCURVE",
"528 647 OFFCURVE",
"403 647 CURVE SMOOTH",
"313 647 OFFCURVE",
"80 650 OFFCURVE",
"80 650 CURVE",
"61 571 LINE",
"72 557 LINE",
"72 557 OFFCURVE",
"86 559 OFFCURVE",
"97 559 CURVE SMOOTH",
"118 559 OFFCURVE",
"121 548 OFFCURVE",
"116 505 CURVE SMOOTH",
"74 170 LINE SMOOTH",
"66 110 OFFCURVE",
"49 90 OFFCURVE",
"0 82 CURVE",
"-20 -10 LINE",
"-20 -10 OFFCURVE",
"88 0 OFFCURVE",
"191 0 CURVE SMOOTH",
"223 0 OFFCURVE",
"303 -3 OFFCURVE",
"303 -3 CURVE",
"327 98 LINE",
"313 116 LINE",
"313 116 OFFCURVE",
"304 115 OFFCURVE",
"290 115 CURVE SMOOTH",
"269 115 OFFCURVE",
"265 127 OFFCURVE",
"271 175 CURVE",
"323 500 LINE SMOOTH",
"326 522 OFFCURVE",
"333 527 OFFCURVE",
"357 527 CURVE SMOOTH",
"565 527 LINE",
"385 335 LINE",
"418 276 LINE",
"418 276 OFFCURVE",
"474 290 OFFCURVE",
"518 290 CURVE SMOOTH",
"578 290 OFFCURVE",
"610 263 OFFCURVE",
"610 215 CURVE SMOOTH",
"610 159 OFFCURVE",
"586 121 OFFCURVE",
"541 121 CURVE SMOOTH",
"504 121 OFFCURVE",
"488 151 OFFCURVE",
"496 213 CURVE",
"379 204 LINE",
"367 142 OFFCURVE",
"339 49 OFFCURVE",
"339 49 CURVE",
"349 31 LINE",
"349 31 OFFCURVE",
"418 -12 OFFCURVE",
"526 -12 CURVE SMOOTH"
);
}
);
width = 832;
}
);
leftKerningGroup = H;
rightKerningGroup = uni1E9E;
unicode = 1E9E;
},
{
color = 4;
glyphname = Schwa;
lastChange = "2017-01-28 13:41:21 +0000";
layers = (
{
anchors = (
{
name = bottom;
position = "{296, 0}";
},
{
name = top;
position = "{374, 636}";
}
);
background = {
paths = (
{
closed = 1;
nodes = (
"182 35 OFFCURVE",
"109 134 OFFCURVE",
"109 285 CURVE SMOOTH",
"109 461 OFFCURVE",
"213 593 OFFCURVE",
"350 593 CURVE SMOOTH",
"464 593 OFFCURVE",
"539 494 OFFCURVE",
"539 343 CURVE SMOOTH",
"539 166 OFFCURVE",
"435 35 OFFCURVE",
"293 35 CURVE SMOOTH"
);
},
{
closed = 1;
nodes = (
"472 -12 OFFCURVE",
"626 163 OFFCURVE",
"626 382 CURVE SMOOTH",
"626 536 OFFCURVE",
"517 648 OFFCURVE",
"369 648 CURVE SMOOTH",
"179 648 OFFCURVE",
"27 473 OFFCURVE",
"27 254 CURVE SMOOTH",
"27 100 OFFCURVE",
"133 -12 OFFCURVE",
"278 -12 CURVE SMOOTH"
);
}
);
};
layerId = UUID0;
paths = (
{
closed = 1;
nodes = (
"442 -12 OFFCURVE",
"599 146 OFFCURVE",
"619 330 CURVE SMOOTH",
"638 509 OFFCURVE",
"522 647 OFFCURVE",
"363 647 CURVE SMOOTH",
"295 647 OFFCURVE",
"237 624 OFFCURVE",
"128 557 CURVE",
"137 527 LINE",
"146 525 LINE",
"205 551 OFFCURVE",
"279 569 OFFCURVE",
"333 569 CURVE SMOOTH",
"465 569 OFFCURVE",
"549 456 OFFCURVE",
"532 299 CURVE SMOOTH",
"515 147 OFFCURVE",
"418 35 OFFCURVE",
"296 35 CURVE SMOOTH",
"187 35 OFFCURVE",
"114 129 OFFCURVE",
"112 275 CURVE",
"32 288 LINE",
"16 109 OFFCURVE",
"110 -12 OFFCURVE",
"267 -12 CURVE SMOOTH"
);
},
{
closed = 1;
nodes = (
"567 263 LINE",
"571 304 LINE",
"43 304 LINE",
"32 287 LINE",
"38 256 LINE"
);
}
);
width = 644;
},
{
anchors = (
{
name = bottom;
position = "{286, 0}";
},
{
name = top;
position = "{365, 647}";
}
);
background = {
paths = (
{
closed = 1;
nodes = (
"265 114 OFFCURVE",
"245 152 OFFCURVE",
"245 234 CURVE SMOOTH",
"245 438 OFFCURVE",
"273 522 OFFCURVE",
"340 522 CURVE SMOOTH",
"384 522 OFFCURVE",
"405 484 OFFCURVE",
"405 402 CURVE SMOOTH",
"405 197 OFFCURVE",
"377 114 OFFCURVE",
"308 114 CURVE SMOOTH"
);
},
{
closed = 1;
nodes = (
"510 -12 OFFCURVE",
"636 141 OFFCURVE",
"636 398 CURVE SMOOTH",
"636 571 OFFCURVE",
"539 659 OFFCURVE",
"370 659 CURVE SMOOTH",
"138 659 OFFCURVE",
"16 513 OFFCURVE",
"16 256 CURVE SMOOTH",
"16 82 OFFCURVE",
"116 -12 OFFCURVE",
"281 -12 CURVE SMOOTH"
);
}
);
};
layerId = UUID1;
paths = (
{
closed = 1;
nodes = (
"473 -12 OFFCURVE",
"606 111 OFFCURVE",
"631 317 CURVE SMOOTH",
"656 526 OFFCURVE",
"550 659 OFFCURVE",
"354 659 CURVE SMOOTH",
"265 659 OFFCURVE",
"189 634 OFFCURVE",
"67 557 CURVE",
"85 476 LINE",
"98 469 LINE",
"152 493 OFFCURVE",
"226 511 OFFCURVE",
"285 511 CURVE SMOOTH",
"393 511 OFFCURVE",
"418 462 OFFCURVE",
"399 302 CURVE SMOOTH",
"384 171 OFFCURVE",
"353 116 OFFCURVE",
"297 116 CURVE SMOOTH",
"245 116 OFFCURVE",
"232 166 OFFCURVE",
"247 304 CURVE",
"16 319 LINE",
"-8 104 OFFCURVE",
"81 -12 OFFCURVE",
"275 -12 CURVE SMOOTH"
);
},
{
closed = 1;
nodes = (
"496 256 LINE",
"506 337 LINE",
"28 337 LINE",
"16 315 LINE",
"50 237 LINE"
);
}
);
width = 630;
}
);
leftKerningGroup = O;
rightKerningGroup = O;
unicode = 018F;
},
{
color = 1;
glyphname = T;
lastChange = "2017-01-28 13:41:30 +0000";
layers = (
{
anchors = (
{
name = bottom;
position = "{234, 0}";
},
{
name = center;
position = "{273, 318}";
},
{
name = top;
position = "{312, 636}";
}
);
background = {
paths = (
{
closed = 1;
nodes = (
"218 162 LINE SMOOTH",
"204 54 OFFCURVE",
"196 45 OFFCURVE",
"106 36 CURVE",
"94 -4 LINE",
"94 -4 OFFCURVE",
"177 0 OFFCURVE",
"223 0 CURVE SMOOTH",
"269 0 OFFCURVE",
"363 -3 OFFCURVE",
"363 -3 CURVE",
"377 40 LINE",
"375 44 LINE",
"375 44 OFFCURVE",
"355 41 OFFCURVE",
"320 41 CURVE SMOOTH",
"287 41 OFFCURVE",
"273 56 OFFCURVE",
"273 92 CURVE SMOOTH",
"273 130 OFFCURVE",
"331 507 OFFCURVE",
"351 601 CURVE",
"493 594 OFFCURVE",
"496 591 OFFCURVE",
"499 472 CURVE",
"543 476 LINE",
"543 476 OFFCURVE",
"541 557 OFFCURVE",
"549 640 CURVE",
"541 647 LINE",
"459 636 LINE",
"161 636 LINE",
"85 647 LINE",
"75 640 LINE",
"62 557 OFFCURVE",
"40 472 OFFCURVE",
"40 472 CURVE",
"84 476 LINE",
"114 592 OFFCURVE",
"116 594 OFFCURVE",
"271 601 CURVE"
);
}
);
};
layerId = UUID0;
paths = (
{
closed = 1;
nodes = (
"218 162 LINE SMOOTH",
"204 54 OFFCURVE",
"196 45 OFFCURVE",
"106 36 CURVE",
"94 -4 LINE",
"94 -4 OFFCURVE",
"177 0 OFFCURVE",
"223 0 CURVE SMOOTH",
"269 0 OFFCURVE",
"363 -3 OFFCURVE",
"363 -3 CURVE",
"377 40 LINE",
"375 44 LINE",
"375 44 OFFCURVE",
"355 41 OFFCURVE",
"320 41 CURVE SMOOTH",
"287 41 OFFCURVE",
"273 56 OFFCURVE",
"273 92 CURVE SMOOTH",
"273 130 OFFCURVE",
"331 507 OFFCURVE",
"351 601 CURVE",
"493 594 OFFCURVE",
"496 591 OFFCURVE",
"499 472 CURVE",
"543 476 LINE",
"543 476 OFFCURVE",
"541 557 OFFCURVE",
"549 640 CURVE",
"541 647 LINE",
"459 636 LINE",
"161 636 LINE",
"85 647 LINE",
"75 640 LINE",
"62 557 OFFCURVE",
"40 472 OFFCURVE",
"40 472 CURVE",
"84 476 LINE",
"114 592 OFFCURVE",
"116 594 OFFCURVE",
"271 601 CURVE"
);
}
);
width = 522;
},
{
anchors = (
{
name = bottom;
position = "{260, 0}";
},
{
name = center;
position = "{300, 324}";
},
{
name = top;
position = "{339, 647}";
}
);
background = {
paths = (
{
closed = 1;
nodes = (
"181 168 LINE SMOOTH",
"173 106 OFFCURVE",
"154 90 OFFCURVE",
"74 83 CURVE",
"55 -9 LINE",
"55 -9 OFFCURVE",
"192 0 OFFCURVE",
"255 0 CURVE SMOOTH",
"311 0 OFFCURVE",
"454 -6 OFFCURVE",
"454 -6 CURVE",
"474 88 LINE",
"470 94 LINE",
"470 94 OFFCURVE",
"444 91 OFFCURVE",
"420 91 CURVE SMOOTH",
"390 91 OFFCURVE",
"377 105 OFFCURVE",
"377 141 CURVE SMOOTH",
"377 177 OFFCURVE",
"413 427 OFFCURVE",
"428 526 CURVE",
"476 526 OFFCURVE",
"478 506 OFFCURVE",
"472 382 CURVE",
"597 390 LINE",
"597 390 OFFCURVE",
"610 527 OFFCURVE",
"624 644 CURVE",
"613 658 LINE",
"492 647 LINE",
"187 647 LINE",
"72 658 LINE",
"57 644 LINE",
"42 530 OFFCURVE",
"17 382 OFFCURVE",
"17 382 CURVE",
"143 390 LINE",
"165 501 OFFCURVE",
"176 526 OFFCURVE",
"225 526 CURVE"
);
}
);
};
layerId = UUID1;
paths = (
{
closed = 1;
nodes = (
"181 168 LINE SMOOTH",
"173 106 OFFCURVE",
"154 90 OFFCURVE",
"74 83 CURVE",
"55 -9 LINE",
"55 -9 OFFCURVE",
"192 0 OFFCURVE",
"255 0 CURVE SMOOTH",
"311 0 OFFCURVE",
"454 -6 OFFCURVE",
"454 -6 CURVE",
"474 88 LINE",
"470 94 LINE",
"470 94 OFFCURVE",
"444 91 OFFCURVE",
"420 91 CURVE SMOOTH",
"390 91 OFFCURVE",
"377 105 OFFCURVE",
"377 141 CURVE SMOOTH",
"377 177 OFFCURVE",
"413 427 OFFCURVE",
"428 526 CURVE",
"476 526 OFFCURVE",
"478 506 OFFCURVE",
"472 382 CURVE",
"597 390 LINE",
"597 390 OFFCURVE",
"610 527 OFFCURVE",
"624 644 CURVE",
"613 658 LINE",
"492 647 LINE",
"187 647 LINE",
"72 658 LINE",
"57 644 LINE",
"42 530 OFFCURVE",
"17 382 OFFCURVE",
"17 382 CURVE",
"143 390 LINE",
"165 501 OFFCURVE",
"176 526 OFFCURVE",
"225 526 CURVE"
);
}
);
width = 578;
}
);
leftKerningGroup = T;
rightKerningGroup = T;
unicode = 0054;
},
{
color = 0;
glyphname = Tbar;
lastChange = "2017-01-28 13:41:10 +0000";
layers = (
{
components = (
{
name = T;
transform = "{1, 0, 0, 1, 4, 0}";
}
);
layerId = UUID0;
paths = (
{
closed = 1;
nodes = (
"283 345 LINE",
"136 346 LINE",
"129 307 LINE",
"138 298 LINE",
"261 299 LINE",
"410 300 LINE",
"414 337 LINE",
"401 350 LINE"
);
}
);
width = 529;
},
{
components = (
{
name = T;
}
);
layerId = UUID1;
paths = (
{
closed = 1;
nodes = (
"317 296 LINE",
"88 297 LINE",
"80 239 LINE",
"91 229 LINE",
"291 230 LINE",
"498 230 LINE",
"503 285 LINE",
"488 300 LINE"
);
}
);
width = 578;
}
);
leftKerningGroup = T;
rightKerningGroup = T;
unicode = 0166;
},
{
color = 1;
glyphname = U;
lastChange = "2017-01-28 13:41:32 +0000";
layers = (
{
anchors = (
{
name = bottom;
position = "{295, 0}";
},
{
name = ogonek;
position = "{456, 40}";
},
{
name = top;
position = "{373, 636}";
},
{
name = topright;
position = "{680, 636}";
}
);
background = {
paths = (
{
closed = 1;
nodes = (
"217 546 LINE SMOOTH",
"224 584 OFFCURVE",
"237 596 OFFCURVE",
"286 603 CURVE",
"295 646 LINE",
"295 646 OFFCURVE",
"235 636 OFFCURVE",
"194 636 CURVE SMOOTH",
"158 636 OFFCURVE",
"88 639 OFFCURVE",
"88 639 CURVE",
"76 598 LINE",
"77 594 LINE",
"77 594 OFFCURVE",
"98 596 OFFCURVE",
"110 596 CURVE SMOOTH",
"140 596 OFFCURVE",
"145 585 OFFCURVE",
"140 542 CURVE SMOOTH",
"99 210 LINE SMOOTH",
"97 196 OFFCURVE",
"96 183 OFFCURVE",
"96 170 CURVE SMOOTH",
"95 54 OFFCURVE",
"160 -12 OFFCURVE",
"281 -12 CURVE SMOOTH",
"431 -12 OFFCURVE",
"528 68 OFFCURVE",
"545 206 CURVE SMOOTH",
"587 546 LINE SMOOTH",
"592 588 OFFCURVE",
"603 596 OFFCURVE",
"660 603 CURVE",
"670 646 LINE",
"670 646 OFFCURVE",
"617 636 OFFCURVE",
"576 636 CURVE SMOOTH",
"540 636 OFFCURVE",
"469 639 OFFCURVE",
"469 639 CURVE",
"458 598 LINE",
"458 594 LINE",
"458 594 OFFCURVE",
"489 596 OFFCURVE",
"501 596 CURVE SMOOTH",
"529 596 OFFCURVE",
"533 588 OFFCURVE",
"530 542 CURVE",
"530 542 OFFCURVE",
"504 285 OFFCURVE",
"495 215 CURVE SMOOTH",
"482 102 OFFCURVE",
"417 41 OFFCURVE",
"310 41 CURVE SMOOTH",
"218 41 OFFCURVE",
"170 98 OFFCURVE",
"170 202 CURVE SMOOTH",
"170 217 OFFCURVE",
"171 234 OFFCURVE",
"173 252 CURVE SMOOTH"
);
}
);
};
layerId = UUID0;
paths = (
{
closed = 1;
nodes = (
"217 546 LINE SMOOTH",
"224 584 OFFCURVE",
"237 596 OFFCURVE",
"286 603 CURVE",
"295 646 LINE",
"295 646 OFFCURVE",
"235 636 OFFCURVE",
"194 636 CURVE SMOOTH",
"158 636 OFFCURVE",
"88 639 OFFCURVE",
"88 639 CURVE",
"76 598 LINE",
"77 594 LINE",
"77 594 OFFCURVE",
"98 596 OFFCURVE",
"110 596 CURVE SMOOTH",
"140 596 OFFCURVE",
"145 585 OFFCURVE",
"140 542 CURVE SMOOTH",
"99 210 LINE SMOOTH",
"97 196 OFFCURVE",
"96 183 OFFCURVE",
"96 170 CURVE SMOOTH",
"95 54 OFFCURVE",
"160 -12 OFFCURVE",
"281 -12 CURVE SMOOTH",
"431 -12 OFFCURVE",
"528 68 OFFCURVE",
"545 206 CURVE SMOOTH",
"587 546 LINE SMOOTH",
"592 588 OFFCURVE",
"603 596 OFFCURVE",
"660 603 CURVE",
"670 646 LINE",
"670 646 OFFCURVE",
"617 636 OFFCURVE",
"576 636 CURVE SMOOTH",
"540 636 OFFCURVE",
"469 639 OFFCURVE",
"469 639 CURVE",
"458 598 LINE",
"458 594 LINE",
"458 594 OFFCURVE",
"489 596 OFFCURVE",
"501 596 CURVE SMOOTH",
"529 596 OFFCURVE",
"533 588 OFFCURVE",
"530 542 CURVE",
"530 542 OFFCURVE",
"504 285 OFFCURVE",
"495 215 CURVE SMOOTH",
"482 102 OFFCURVE",
"417 41 OFFCURVE",
"310 41 CURVE SMOOTH",
"218 41 OFFCURVE",
"170 98 OFFCURVE",
"170 202 CURVE SMOOTH",
"170 217 OFFCURVE",
"171 234 OFFCURVE",
"173 252 CURVE SMOOTH"
);
}
);
width = 648;
},
{
anchors = (
{
name = bottom;
position = "{274, 0}";
},
{
name = ogonek;
position = "{461, 40}";
},
{
name = top;
position = "{353, 647}";
},
{
name = topright;
position = "{635, 647}";
}
);
background = {
paths = (
{
closed = 1;
nodes = (
"292 509 LINE SMOOTH",
"296 541 OFFCURVE",
"310 554 OFFCURVE",
"344 558 CURVE",
"365 651 LINE",
"365 651 OFFCURVE",
"271 647 OFFCURVE",
"233 647 CURVE SMOOTH",
"155 647 OFFCURVE",
"59 650 OFFCURVE",
"59 650 CURVE",
"38 561 LINE",
"40 557 LINE",
"40 557 OFFCURVE",
"58 559 OFFCURVE",
"68 559 CURVE SMOOTH",
"90 559 OFFCURVE",
"93 550 OFFCURVE",
"88 505 CURVE SMOOTH",
"50 199 LINE SMOOTH",
"48 185 OFFCURVE",
"47 172 OFFCURVE",
"47 159 CURVE SMOOTH",
"47 43 OFFCURVE",
"120 -12 OFFCURVE",
"274 -12 CURVE SMOOTH",
"442 -12 OFFCURVE",
"532 68 OFFCURVE",
"554 234 CURVE SMOOTH",
"589 516 LINE SMOOTH",
"592 540 OFFCURVE",
"598 546 OFFCURVE",
"640 560 CURVE",
"659 650 LINE",
"659 650 OFFCURVE",
"577 647 OFFCURVE",
"516 647 CURVE SMOOTH",
"481 647 OFFCURVE",
"400 650 OFFCURVE",
"400 650 CURVE",
"378 561 LINE",
"381 557 LINE",
"381 557 OFFCURVE",
"393 559 OFFCURVE",
"402 559 CURVE SMOOTH",
"421 559 OFFCURVE",
"425 547 OFFCURVE",
"420 505 CURVE",
"420 505 OFFCURVE",
"392 265 OFFCURVE",
"384 203 CURVE SMOOTH",
"375 139 OFFCURVE",
"354 115 OFFCURVE",
"308 115 CURVE SMOOTH",
"268 115 OFFCURVE",
"248 141 OFFCURVE",
"249 192 CURVE SMOOTH",
"249 198 OFFCURVE",
"250 211 OFFCURVE",
"251 220 CURVE SMOOTH"
);
}
);
};
layerId = UUID1;
paths = (
{
closed = 1;
nodes = (
"292 509 LINE SMOOTH",
"296 541 OFFCURVE",
"310 554 OFFCURVE",
"344 558 CURVE",
"365 651 LINE",
"365 651 OFFCURVE",
"271 647 OFFCURVE",
"233 647 CURVE SMOOTH",
"155 647 OFFCURVE",
"59 650 OFFCURVE",
"59 650 CURVE",
"38 561 LINE",
"40 557 LINE",
"40 557 OFFCURVE",
"58 559 OFFCURVE",
"68 559 CURVE SMOOTH",
"90 559 OFFCURVE",
"93 550 OFFCURVE",
"88 505 CURVE SMOOTH",
"50 199 LINE SMOOTH",
"48 185 OFFCURVE",
"47 172 OFFCURVE",
"47 159 CURVE SMOOTH",
"47 43 OFFCURVE",
"120 -12 OFFCURVE",
"274 -12 CURVE SMOOTH",
"442 -12 OFFCURVE",
"532 68 OFFCURVE",
"554 234 CURVE SMOOTH",
"589 516 LINE SMOOTH",
"592 540 OFFCURVE",
"598 546 OFFCURVE",
"640 560 CURVE",
"659 650 LINE",
"659 650 OFFCURVE",
"577 647 OFFCURVE",
"516 647 CURVE SMOOTH",
"481 647 OFFCURVE",
"400 650 OFFCURVE",
"400 650 CURVE",
"378 561 LINE",
"381 557 LINE",
"381 557 OFFCURVE",
"393 559 OFFCURVE",
"402 559 CURVE SMOOTH",
"421 559 OFFCURVE",
"425 547 OFFCURVE",
"420 505 CURVE",
"420 505 OFFCURVE",
"392 265 OFFCURVE",
"384 203 CURVE SMOOTH",
"375 139 OFFCURVE",
"354 115 OFFCURVE",
"308 115 CURVE SMOOTH",
"268 115 OFFCURVE",
"248 141 OFFCURVE",
"249 192 CURVE SMOOTH",
"249 198 OFFCURVE",
"250 211 OFFCURVE",
"251 220 CURVE SMOOTH"
);
}
);
width = 605;
}
);
leftKerningGroup = U;
rightKerningGroup = U;
unicode = 0055;
},
{
color = 1;
glyphname = Uhorn;
lastChange = "2017-01-28 13:41:09 +0000";
layers = (
{
anchors = (
{
name = bottom;
position = "{299, 0}";
},
{
name = top;
position = "{357, 636}";
}
);
background = {
paths = (
{
closed = 1;
nodes = (
"219 544 LINE SMOOTH",
"225 582 OFFCURVE",
"238 594 OFFCURVE",
"287 601 CURVE",
"296 646 LINE",
"296 646 OFFCURVE",
"235 637 OFFCURVE",
"194 637 CURVE SMOOTH",
"156 637 OFFCURVE",
"84 640 OFFCURVE",
"84 640 CURVE",
"72 596 LINE",
"73 592 LINE",
"73 592 OFFCURVE",
"95 594 OFFCURVE",
"106 594 CURVE SMOOTH",
"135 594 OFFCURVE",
"140 583 OFFCURVE",
"135 540 CURVE SMOOTH",
"94 209 LINE SMOOTH",
"77 68 OFFCURVE",
"143 -12 OFFCURVE",
"278 -12 CURVE SMOOTH",
"429 -12 OFFCURVE",
"526 68 OFFCURVE",
"543 208 CURVE SMOOTH",
"585 544 LINE SMOOTH",
"590 589 OFFCURVE",
"615 595 OFFCURVE",
"644 609 CURVE SMOOTH",
"674 624 OFFCURVE",
"707 655 OFFCURVE",
"707 714 CURVE SMOOTH",
"707 744 OFFCURVE",
"690 763 OFFCURVE",
"663 763 CURVE SMOOTH",
"648 763 OFFCURVE",
"628 753 OFFCURVE",
"606 737 CURVE",
"602 723 LINE",
"618 711 OFFCURVE",
"627 693 OFFCURVE",
"627 677 CURVE SMOOTH",
"627 652 OFFCURVE",
"613 637 OFFCURVE",
"582 637 CURVE SMOOTH",
"533 637 OFFCURVE",
"463 640 OFFCURVE",
"463 640 CURVE",
"451 596 LINE",
"453 592 LINE",
"453 592 OFFCURVE",
"482 594 OFFCURVE",
"494 594 CURVE SMOOTH",
"521 594 OFFCURVE",
"525 587 OFFCURVE",
"522 540 CURVE",
"522 540 OFFCURVE",
"496 284 OFFCURVE",
"488 214 CURVE SMOOTH",
"474 104 OFFCURVE",
"411 45 OFFCURVE",
"308 45 CURVE SMOOTH",
"206 45 OFFCURVE",
"159 118 OFFCURVE",
"175 250 CURVE"
);
}
);
};
layerId = UUID0;
paths = (
{
closed = 1;
nodes = (
"587 546 LINE",
"592 591 OFFCURVE",
"617 597 OFFCURVE",
"646 611 CURVE SMOOTH",
"676 626 OFFCURVE",
"709 657 OFFCURVE",
"709 716 CURVE SMOOTH",
"709 746 OFFCURVE",
"692 765 OFFCURVE",
"665 765 CURVE SMOOTH",
"650 765 OFFCURVE",
"630 755 OFFCURVE",
"608 739 CURVE",
"604 725 LINE",
"620 713 OFFCURVE",
"629 695 OFFCURVE",
"629 679 CURVE SMOOTH",
"629 654 OFFCURVE",
"616 637 OFFCURVE",
"576 637 CURVE"
);
},
{
closed = 1;
nodes = (
"217 546 LINE",
"224 584 OFFCURVE",
"237 596 OFFCURVE",
"286 603 CURVE",
"295 646 LINE",
"295 646 OFFCURVE",
"235 636 OFFCURVE",
"194 636 CURVE SMOOTH",
"158 636 OFFCURVE",
"88 639 OFFCURVE",
"88 639 CURVE",
"76 598 LINE",
"77 594 LINE",
"77 594 OFFCURVE",
"98 596 OFFCURVE",
"110 596 CURVE SMOOTH",
"140 596 OFFCURVE",
"145 585 OFFCURVE",
"140 542 CURVE SMOOTH",
"99 210 LINE SMOOTH",
"97 196 OFFCURVE",
"96 183 OFFCURVE",
"96 170 CURVE SMOOTH",
"95 54 OFFCURVE",
"160 -12 OFFCURVE",
"281 -12 CURVE SMOOTH",
"431 -12 OFFCURVE",
"528 68 OFFCURVE",
"545 206 CURVE SMOOTH",
"587 546 LINE",
"576 637 LINE",
"540 637 OFFCURVE",
"469 639 OFFCURVE",
"469 639 CURVE",
"458 598 LINE",
"458 594 LINE",
"458 594 OFFCURVE",
"489 596 OFFCURVE",
"501 596 CURVE SMOOTH",
"529 596 OFFCURVE",
"533 588 OFFCURVE",
"530 542 CURVE",
"530 542 OFFCURVE",
"504 285 OFFCURVE",
"495 215 CURVE",
"482 102 OFFCURVE",
"417 41 OFFCURVE",
"310 41 CURVE SMOOTH",
"218 41 OFFCURVE",
"170 98 OFFCURVE",
"170 202 CURVE SMOOTH",
"170 217 OFFCURVE",
"171 234 OFFCURVE",
"173 252 CURVE"
);
}
);
width = 651;
},
{
anchors = (
{
name = bottom;
position = "{296, 0}";
},
{
name = top;
position = "{355, 647}";
}
);
background = {
paths = (
{
closed = 1;
nodes = (
"292 509 LINE SMOOTH",
"297 541 OFFCURVE",
"311 554 OFFCURVE",
"344 558 CURVE",
"365 651 LINE",
"365 651 OFFCURVE",
"271 647 OFFCURVE",
"233 647 CURVE SMOOTH",
"155 647 OFFCURVE",
"59 650 OFFCURVE",
"59 650 CURVE",
"38 561 LINE",
"40 557 LINE",
"40 557 OFFCURVE",
"58 559 OFFCURVE",
"68 559 CURVE SMOOTH",
"90 559 OFFCURVE",
"93 549 OFFCURVE",
"88 505 CURVE SMOOTH",
"50 199 LINE SMOOTH",
"32 52 OFFCURVE",
"97 -12 OFFCURVE",
"264 -12 CURVE SMOOTH",
"436 -12 OFFCURVE",
"535 72 OFFCURVE",
"554 234 CURVE SMOOTH",
"589 516 LINE SMOOTH",
"594 554 OFFCURVE",
"599 568 OFFCURVE",
"663 604 CURVE SMOOTH",
"729 645 OFFCURVE",
"750 680 OFFCURVE",
"750 744 CURVE SMOOTH",
"750 791 OFFCURVE",
"722 822 OFFCURVE",
"676 822 CURVE SMOOTH",
"650 822 OFFCURVE",
"613 805 OFFCURVE",
"580 778 CURVE",
"575 764 LINE",
"588 749 OFFCURVE",
"595 727 OFFCURVE",
"595 706 CURVE SMOOTH",
"595 667 OFFCURVE",
"578 647 OFFCURVE",
"532 647 CURVE SMOOTH",
"489 647 OFFCURVE",
"400 650 OFFCURVE",
"400 650 CURVE",
"379 561 LINE",
"381 557 LINE",
"381 557 OFFCURVE",
"393 559 OFFCURVE",
"403 559 CURVE SMOOTH",
"422 559 OFFCURVE",
"426 546 OFFCURVE",
"421 505 CURVE",
"421 505 OFFCURVE",
"392 265 OFFCURVE",
"384 203 CURVE SMOOTH",
"377 141 OFFCURVE",
"354 115 OFFCURVE",
"308 115 CURVE SMOOTH",
"265 115 OFFCURVE",
"243 154 OFFCURVE",
"251 220 CURVE"
);
}
);
};
layerId = UUID1;
paths = (
{
closed = 1;
nodes = (
"589 516 LINE",
"594 554 OFFCURVE",
"599 568 OFFCURVE",
"663 604 CURVE SMOOTH",
"729 645 OFFCURVE",
"750 680 OFFCURVE",
"750 744 CURVE SMOOTH",
"750 791 OFFCURVE",
"722 822 OFFCURVE",
"676 822 CURVE SMOOTH",
"650 822 OFFCURVE",
"613 805 OFFCURVE",
"580 778 CURVE",
"575 764 LINE",
"588 749 OFFCURVE",
"595 727 OFFCURVE",
"595 706 CURVE SMOOTH",
"595 667 OFFCURVE",
"578 647 OFFCURVE",
"532 647 CURVE"
);
},
{
closed = 1;
nodes = (
"292 509 LINE",
"296 541 OFFCURVE",
"310 554 OFFCURVE",
"344 558 CURVE",
"365 651 LINE",
"365 651 OFFCURVE",
"271 647 OFFCURVE",
"233 647 CURVE SMOOTH",
"155 647 OFFCURVE",
"59 650 OFFCURVE",
"59 650 CURVE",
"38 561 LINE",
"40 557 LINE",
"40 557 OFFCURVE",
"58 559 OFFCURVE",
"68 559 CURVE SMOOTH",
"90 559 OFFCURVE",
"93 550 OFFCURVE",
"88 505 CURVE SMOOTH",
"50 199 LINE SMOOTH",
"48 185 OFFCURVE",
"47 172 OFFCURVE",
"47 159 CURVE SMOOTH",
"47 43 OFFCURVE",
"120 -12 OFFCURVE",
"274 -12 CURVE SMOOTH",
"442 -12 OFFCURVE",
"532 68 OFFCURVE",
"554 234 CURVE SMOOTH",
"589 516 LINE",
"532 647 LINE",
"497 647 OFFCURVE",
"400 650 OFFCURVE",
"400 650 CURVE",
"378 561 LINE",
"381 557 LINE",
"381 557 OFFCURVE",
"393 559 OFFCURVE",
"402 559 CURVE SMOOTH",
"421 559 OFFCURVE",
"425 547 OFFCURVE",
"420 505 CURVE",
"420 505 OFFCURVE",
"392 265 OFFCURVE",
"384 203 CURVE",
"375 139 OFFCURVE",
"354 115 OFFCURVE",
"308 115 CURVE SMOOTH",
"268 115 OFFCURVE",
"248 141 OFFCURVE",
"249 192 CURVE SMOOTH",
"249 198 OFFCURVE",
"250 211 OFFCURVE",
"251 220 CURVE"
);
}
);
width = 649;
}
);
leftKerningGroup = U;
rightKerningGroup = U;
unicode = 01AF;
},
{
color = 1;
glyphname = Uogonek;
lastChange = "2017-01-28 13:41:30 +0000";
layers = (
{
background = {
paths = (
{
closed = 1;
nodes = (
"671 646 OFFCURVE",
"618 636 OFFCURVE",
"577 636 CURVE SMOOTH",
"541 636 OFFCURVE",
"470 639 OFFCURVE",
"470 639 CURVE",
"459 598 LINE",
"459 594 LINE",
"459 594 OFFCURVE",
"490 596 OFFCURVE",
"502 596 CURVE SMOOTH",
"530 596 OFFCURVE",
"534 589 OFFCURVE",
"531 542 CURVE",
"531 542 OFFCURVE",
"505 285 OFFCURVE",
"496 215 CURVE SMOOTH",
"482 101 OFFCURVE",
"417 41 OFFCURVE",
"311 41 CURVE SMOOTH",
"220 41 OFFCURVE",
"171 97 OFFCURVE",
"171 202 CURVE SMOOTH",
"171 217 OFFCURVE",
"172 234 OFFCURVE",
"174 252 CURVE SMOOTH",
"218 546 LINE SMOOTH",
"224 584 OFFCURVE",
"238 596 OFFCURVE",
"287 603 CURVE",
"296 646 LINE",
"296 646 OFFCURVE",
"236 636 OFFCURVE",
"195 636 CURVE SMOOTH",
"159 636 OFFCURVE",
"89 639 OFFCURVE",
"89 639 CURVE",
"77 598 LINE",
"78 594 LINE",
"78 594 OFFCURVE",
"99 596 OFFCURVE",
"111 596 CURVE SMOOTH",
"140 596 OFFCURVE",
"146 586 OFFCURVE",
"141 542 CURVE SMOOTH",
"100 210 LINE SMOOTH",
"98 196 OFFCURVE",
"97 183 OFFCURVE",
"97 170 CURVE SMOOTH",
"96 53 OFFCURVE",
"162 -12 OFFCURVE",
"282 -12 CURVE SMOOTH",
"315 -12 OFFCURVE",
"347 -8 OFFCURVE",
"375 0 CURVE",
"303 -71 OFFCURVE",
"273 -118 OFFCURVE",
"273 -158 CURVE SMOOTH",
"273 -209 OFFCURVE",
"310 -241 OFFCURVE",
"369 -241 CURVE",
"420 -224 OFFCURVE",
"473 -178 OFFCURVE",
"473 -178 CURVE",
"463 -159 LINE",
"463 -159 OFFCURVE",
"423 -182 OFFCURVE",
"386 -182 CURVE SMOOTH",
"357 -182 OFFCURVE",
"337 -163 OFFCURVE",
"337 -134 CURVE SMOOTH",
"337 -97 OFFCURVE",
"358 -68 OFFCURVE",
"469 45 CURVE SMOOTH",
"510 86 OFFCURVE",
"538 143 OFFCURVE",
"546 206 CURVE SMOOTH",
"588 546 LINE SMOOTH",
"591 585 OFFCURVE",
"601 594 OFFCURVE",
"661 603 CURVE",
"671 646 LINE"
);
}
);
};
layerId = UUID0;
paths = (
{
closed = 1;
nodes = (
"89 639 CURVE",
"77 598 LINE",
"78 594 LINE",
"78 594 OFFCURVE",
"99 596 OFFCURVE",
"111 596 CURVE SMOOTH",
"140 596 OFFCURVE",
"146 586 OFFCURVE",
"141 542 CURVE SMOOTH",
"100 210 LINE SMOOTH",
"98 196 OFFCURVE",
"97 183 OFFCURVE",
"97 170 CURVE SMOOTH",
"96 53 OFFCURVE",
"162 -12 OFFCURVE",
"282 -12 CURVE SMOOTH",
"321 -12 OFFCURVE",
"359 -6 OFFCURVE",
"391 5 CURVE",
"396 21 LINE",
"309 -62 OFFCURVE",
"273 -114 OFFCURVE",
"273 -158 CURVE SMOOTH",
"273 -209 OFFCURVE",
"310 -241 OFFCURVE",
"369 -241 CURVE",
"420 -224 OFFCURVE",
"473 -178 OFFCURVE",
"473 -178 CURVE",
"463 -159 LINE",
"463 -159 OFFCURVE",
"423 -182 OFFCURVE",
"386 -182 CURVE SMOOTH",
"357 -182 OFFCURVE",
"337 -163 OFFCURVE",
"337 -134 CURVE SMOOTH",
"337 -36 OFFCURVE",
"524 30 OFFCURVE",
"546 206 CURVE SMOOTH",
"588 546 LINE SMOOTH",
"591 585 OFFCURVE",
"601 594 OFFCURVE",
"661 603 CURVE",
"671 646 LINE",
"671 646 OFFCURVE",
"618 636 OFFCURVE",
"577 636 CURVE SMOOTH",
"541 636 OFFCURVE",
"470 639 OFFCURVE",
"470 639 CURVE",
"459 598 LINE",
"459 594 LINE",
"459 594 OFFCURVE",
"490 596 OFFCURVE",
"502 596 CURVE SMOOTH",
"530 596 OFFCURVE",
"534 589 OFFCURVE",
"531 542 CURVE",
"531 542 OFFCURVE",
"505 285 OFFCURVE",
"496 215 CURVE SMOOTH",
"482 101 OFFCURVE",
"417 41 OFFCURVE",
"311 41 CURVE SMOOTH",
"220 41 OFFCURVE",
"171 97 OFFCURVE",
"171 202 CURVE SMOOTH",
"171 217 OFFCURVE",
"172 234 OFFCURVE",
"174 252 CURVE SMOOTH",
"218 546 LINE SMOOTH",
"224 584 OFFCURVE",
"238 596 OFFCURVE",
"287 603 CURVE",
"296 646 LINE",
"296 646 OFFCURVE",
"236 636 OFFCURVE",
"195 636 CURVE SMOOTH",
"159 636 OFFCURVE",
"89 639 OFFCURVE"
);
}
);
width = 649;
},
{
background = {
paths = (
{
closed = 1;
nodes = (
"365 651 OFFCURVE",
"271 647 OFFCURVE",
"233 647 CURVE SMOOTH",
"155 647 OFFCURVE",
"59 650 OFFCURVE",
"59 650 CURVE",
"38 561 LINE",
"40 557 LINE",
"40 557 OFFCURVE",
"58 559 OFFCURVE",
"68 559 CURVE SMOOTH",
"90 559 OFFCURVE",
"93 550 OFFCURVE",
"88 505 CURVE SMOOTH",
"50 199 LINE SMOOTH",
"48 185 OFFCURVE",
"47 172 OFFCURVE",
"47 159 CURVE SMOOTH",
"47 43 OFFCURVE",
"120 -12 OFFCURVE",
"274 -12 CURVE SMOOTH",
"310 -12 OFFCURVE",
"344 -7 OFFCURVE",
"370 1 CURVE",
"396 59 LINE",
"275 -58 OFFCURVE",
"243 -104 OFFCURVE",
"243 -151 CURVE SMOOTH",
"243 -208 OFFCURVE",
"290 -241 OFFCURVE",
"370 -241 CURVE",
"395 -232 OFFCURVE",
"439 -203 OFFCURVE",
"484 -167 CURVE",
"456 -120 LINE",
"433 -135 OFFCURVE",
"412 -143 OFFCURVE",
"397 -143 CURVE SMOOTH",
"382 -143 OFFCURVE",
"372 -134 OFFCURVE",
"372 -117 CURVE SMOOTH",
"372 -85 OFFCURVE",
"402 -39 OFFCURVE",
"461 30 CURVE SMOOTH",
"514 92 OFFCURVE",
"544 158 OFFCURVE",
"554 234 CURVE SMOOTH",
"589 516 LINE SMOOTH",
"592 540 OFFCURVE",
"598 546 OFFCURVE",
"640 560 CURVE",
"659 650 LINE",
"659 650 OFFCURVE",
"577 647 OFFCURVE",
"516 647 CURVE SMOOTH",
"481 647 OFFCURVE",
"400 650 OFFCURVE",
"400 650 CURVE",
"378 561 LINE",
"381 557 LINE",
"381 557 OFFCURVE",
"393 559 OFFCURVE",
"402 559 CURVE SMOOTH",
"421 559 OFFCURVE",
"425 547 OFFCURVE",
"420 505 CURVE",
"420 505 OFFCURVE",
"392 265 OFFCURVE",
"384 203 CURVE SMOOTH",
"375 139 OFFCURVE",
"354 115 OFFCURVE",
"308 115 CURVE SMOOTH",
"268 115 OFFCURVE",
"248 141 OFFCURVE",
"249 192 CURVE SMOOTH",
"249 197 OFFCURVE",
"250 210 OFFCURVE",
"251 220 CURVE",
"292 509 LINE SMOOTH",
"296 541 OFFCURVE",
"310 554 OFFCURVE",
"344 558 CURVE",
"365 651 LINE"
);
}
);
};
layerId = UUID1;
paths = (
{
closed = 1;
nodes = (
"59 650 CURVE",
"38 561 LINE",
"40 557 LINE",
"40 557 OFFCURVE",
"58 559 OFFCURVE",
"68 559 CURVE SMOOTH",
"90 559 OFFCURVE",
"93 550 OFFCURVE",
"88 505 CURVE SMOOTH",
"50 199 LINE SMOOTH",
"48 185 OFFCURVE",
"47 172 OFFCURVE",
"47 159 CURVE SMOOTH",
"47 43 OFFCURVE",
"120 -12 OFFCURVE",
"274 -12 CURVE SMOOTH",
"310 -12 OFFCURVE",
"344 -7 OFFCURVE",
"370 1 CURVE",
"396 59 LINE",
"275 -58 OFFCURVE",
"243 -104 OFFCURVE",
"243 -151 CURVE SMOOTH",
"243 -208 OFFCURVE",
"290 -241 OFFCURVE",
"370 -241 CURVE",
"395 -232 OFFCURVE",
"439 -203 OFFCURVE",
"484 -167 CURVE",
"456 -120 LINE",
"433 -135 OFFCURVE",
"412 -143 OFFCURVE",
"397 -143 CURVE SMOOTH",
"382 -143 OFFCURVE",
"372 -134 OFFCURVE",
"372 -117 CURVE SMOOTH",
"372 -32 OFFCURVE",
"530 47 OFFCURVE",
"554 234 CURVE SMOOTH",
"589 516 LINE SMOOTH",
"592 540 OFFCURVE",
"598 546 OFFCURVE",
"640 560 CURVE",
"659 650 LINE",
"659 650 OFFCURVE",
"577 647 OFFCURVE",
"516 647 CURVE SMOOTH",
"481 647 OFFCURVE",
"400 650 OFFCURVE",
"400 650 CURVE",
"378 561 LINE",
"381 557 LINE",
"381 557 OFFCURVE",
"393 559 OFFCURVE",
"402 559 CURVE SMOOTH",
"421 559 OFFCURVE",
"425 547 OFFCURVE",
"420 505 CURVE",
"420 505 OFFCURVE",
"392 265 OFFCURVE",
"384 203 CURVE SMOOTH",
"375 139 OFFCURVE",
"354 115 OFFCURVE",
"308 115 CURVE SMOOTH",
"268 115 OFFCURVE",
"248 141 OFFCURVE",
"249 192 CURVE SMOOTH",
"249 197 OFFCURVE",
"250 210 OFFCURVE",
"251 220 CURVE",
"292 509 LINE SMOOTH",
"296 541 OFFCURVE",
"310 554 OFFCURVE",
"344 558 CURVE",
"365 651 LINE",
"365 651 OFFCURVE",
"271 647 OFFCURVE",
"233 647 CURVE SMOOTH",
"155 647 OFFCURVE",
"59 650 OFFCURVE"
);
}
);
width = 605;
}
);
leftKerningGroup = U;
rightKerningGroup = U;
unicode = 0172;
},
{
color = 1;
glyphname = V;
lastChange = "2017-01-28 13:41:27 +0000";
layers = (
{
anchors = (
{
name = bottom;
position = "{256, 0}";
},
{
name = top;
position = "{334, 636}";
}
);
background = {
paths = (
{
closed = 1;
nodes = (
"165 269 OFFCURVE",
"219 -17 OFFCURVE",
"219 -17 CURVE",
"277 5 LINE",
"545 547 LINE SMOOTH",
"565 585 OFFCURVE",
"576 593 OFFCURVE",
"616 595 CURVE",
"629 640 LINE",
"629 640 OFFCURVE",
"569 636 OFFCURVE",
"523 636 CURVE SMOOTH",
"460 636 OFFCURVE",
"387 644 OFFCURVE",
"387 644 CURVE",
"376 603 LINE",
"378 599 LINE",
"429 599 LINE SMOOTH",
"472 599 OFFCURVE",
"491 588 OFFCURVE",
"491 563 CURVE SMOOTH",
"491 535 OFFCURVE",
"340 234 OFFCURVE",
"272 93 CURVE",
"264 93 LINE",
"264 93 OFFCURVE",
"198 514 OFFCURVE",
"198 560 CURVE SMOOTH",
"198 590 OFFCURVE",
"209 599 OFFCURVE",
"289 604 CURVE",
"298 641 LINE",
"296 648 LINE",
"296 648 OFFCURVE",
"201 636 OFFCURVE",
"151 636 CURVE SMOOTH",
"119 636 OFFCURVE",
"42 639 OFFCURVE",
"42 639 CURVE",
"30 599 LINE",
"31 595 LINE",
"81 594 OFFCURVE",
"107 576 OFFCURVE",
"114 538 CURVE SMOOTH"
);
}
);
};
layerId = UUID0;
paths = (
{
closed = 1;
nodes = (
"165 269 OFFCURVE",
"219 -17 OFFCURVE",
"219 -17 CURVE",
"277 5 LINE",
"545 547 LINE SMOOTH",
"565 585 OFFCURVE",
"576 593 OFFCURVE",
"616 595 CURVE",
"629 640 LINE",
"629 640 OFFCURVE",
"569 636 OFFCURVE",
"523 636 CURVE SMOOTH",
"460 636 OFFCURVE",
"382 644 OFFCURVE",
"382 644 CURVE",
"371 603 LINE",
"373 599 LINE",
"424 599 LINE SMOOTH",
"467 599 OFFCURVE",
"486 588 OFFCURVE",
"486 563 CURVE SMOOTH",
"486 535 OFFCURVE",
"335 234 OFFCURVE",
"267 93 CURVE",
"259 93 LINE",
"259 93 OFFCURVE",
"193 514 OFFCURVE",
"193 560 CURVE SMOOTH",
"193 590 OFFCURVE",
"204 599 OFFCURVE",
"284 604 CURVE",
"293 641 LINE",
"291 648 LINE",
"291 648 OFFCURVE",
"201 636 OFFCURVE",
"151 636 CURVE SMOOTH",
"119 636 OFFCURVE",
"42 639 OFFCURVE",
"42 639 CURVE",
"30 599 LINE",
"31 595 LINE",
"81 594 OFFCURVE",
"107 576 OFFCURVE",
"114 538 CURVE SMOOTH"
);
}
);
width = 564;
},
{
anchors = (
{
name = bottom;
position = "{283, 0}";
},
{
name = top;
position = "{362, 647}";
}
);
background = {
paths = (
{
closed = 1;
nodes = (
"97 385 OFFCURVE",
"138 -13 OFFCURVE",
"138 -13 CURVE",
"418 4 LINE",
"617 506 LINE SMOOTH",
"633 545 OFFCURVE",
"641 554 OFFCURVE",
"663 561 CURVE",
"680 648 LINE",
"680 648 OFFCURVE",
"616 647 OFFCURVE",
"560 647 CURVE SMOOTH",
"501 647 OFFCURVE",
"410 650 OFFCURVE",
"410 650 CURVE",
"392 567 LINE",
"399 557 LINE",
"423 557 LINE SMOOTH",
"443 557 OFFCURVE",
"449 550 OFFCURVE",
"449 537 CURVE SMOOTH",
"449 504 OFFCURVE",
"348 223 OFFCURVE",
"328 168 CURVE",
"306 168 LINE",
"306 168 OFFCURVE",
"300 423 OFFCURVE",
"300 507 CURVE SMOOTH",
"300 541 OFFCURVE",
"312 552 OFFCURVE",
"366 559 CURVE",
"382 643 LINE",
"376 652 LINE",
"376 652 OFFCURVE",
"282 647 OFFCURVE",
"188 647 CURVE SMOOTH",
"135 647 OFFCURVE",
"54 649 OFFCURVE",
"54 649 CURVE",
"36 570 LINE",
"42 560 LINE",
"68 556 OFFCURVE",
"79 538 OFFCURVE",
"85 493 CURVE SMOOTH"
);
}
);
};
layerId = UUID1;
paths = (
{
closed = 1;
nodes = (
"97 385 OFFCURVE",
"138 -13 OFFCURVE",
"138 -13 CURVE",
"418 4 LINE",
"617 506 LINE SMOOTH",
"633 545 OFFCURVE",
"641 554 OFFCURVE",
"663 561 CURVE",
"680 648 LINE",
"680 648 OFFCURVE",
"616 647 OFFCURVE",
"560 647 CURVE SMOOTH",
"501 647 OFFCURVE",
"410 650 OFFCURVE",
"410 650 CURVE",
"392 567 LINE",
"399 557 LINE",
"423 557 LINE SMOOTH",
"443 557 OFFCURVE",
"449 550 OFFCURVE",
"449 537 CURVE SMOOTH",
"449 504 OFFCURVE",
"348 223 OFFCURVE",
"328 168 CURVE",
"306 168 LINE",
"306 168 OFFCURVE",
"300 423 OFFCURVE",
"300 507 CURVE SMOOTH",
"300 541 OFFCURVE",
"312 552 OFFCURVE",
"366 559 CURVE",
"382 643 LINE",
"376 652 LINE",
"376 652 OFFCURVE",
"282 647 OFFCURVE",
"188 647 CURVE SMOOTH",
"135 647 OFFCURVE",
"54 649 OFFCURVE",
"54 649 CURVE",
"36 570 LINE",
"42 560 LINE",
"68 556 OFFCURVE",
"79 538 OFFCURVE",
"85 493 CURVE SMOOTH"
);
}
);
width = 623;
}
);
leftKerningGroup = V;
rightKerningGroup = V;
unicode = 0056;
},
{
color = 1;
glyphname = W;
lastChange = "2017-01-28 13:41:28 +0000";
layers = (
{
anchors = (
{
name = bottom;
position = "{411, 0}";
},
{
name = top;
position = "{489, 636}";
}
);
background = {
paths = (
{
closed = 1;
nodes = (
"584 5 LINE",
"854 547 LINE SMOOTH",
"873 586 OFFCURVE",
"885 593 OFFCURVE",
"922 595 CURVE",
"934 640 LINE",
"934 640 OFFCURVE",
"876 636 OFFCURVE",
"833 636 CURVE SMOOTH",
"772 636 OFFCURVE",
"701 644 OFFCURVE",
"701 644 CURVE",
"689 603 LINE",
"691 599 LINE",
"739 599 LINE SMOOTH",
"782 599 OFFCURVE",
"801 590 OFFCURVE",
"801 568 CURVE SMOOTH",
"801 539 OFFCURVE",
"651 231 OFFCURVE",
"586 93 CURVE",
"580 93 LINE",
"580 93 OFFCURVE",
"516 512 OFFCURVE",
"516 560 CURVE SMOOTH",
"516 590 OFFCURVE",
"527 598 OFFCURVE",
"606 604 CURVE",
"614 641 LINE",
"613 648 LINE",
"613 648 OFFCURVE",
"530 636 OFFCURVE",
"473 636 CURVE SMOOTH",
"442 636 OFFCURVE",
"367 639 OFFCURVE",
"367 639 CURVE",
"355 599 LINE",
"356 595 LINE",
"403 593 OFFCURVE",
"428 577 OFFCURVE",
"437 536 CURVE SMOOTH",
"440 517 OFFCURVE",
"442 496 OFFCURVE",
"448 480 CURVE",
"385 348 OFFCURVE",
"323 223 OFFCURVE",
"263 93 CURVE",
"257 93 LINE",
"257 93 OFFCURVE",
"194 503 OFFCURVE",
"194 559 CURVE SMOOTH",
"194 590 OFFCURVE",
"206 599 OFFCURVE",
"284 604 CURVE",
"291 641 LINE",
"289 648 LINE",
"289 648 OFFCURVE",
"217 636 OFFCURVE",
"149 636 CURVE SMOOTH",
"119 636 OFFCURVE",
"43 639 OFFCURVE",
"43 639 CURVE",
"32 599 LINE",
"34 595 LINE",
"82 594 OFFCURVE",
"106 576 OFFCURVE",
"113 538 CURVE SMOOTH",
"162 270 OFFCURVE",
"205 -17 OFFCURVE",
"205 -17 CURVE",
"264 5 LINE",
"453 415 LINE",
"459 415 LINE",
"527 -17 LINE"
);
}
);
};
layerId = UUID0;
paths = (
{
closed = 1;
nodes = (
"584 5 LINE",
"854 547 LINE SMOOTH",
"873 586 OFFCURVE",
"885 593 OFFCURVE",
"922 595 CURVE",
"934 640 LINE",
"934 640 OFFCURVE",
"876 636 OFFCURVE",
"833 636 CURVE SMOOTH",
"772 636 OFFCURVE",
"701 644 OFFCURVE",
"701 644 CURVE",
"689 603 LINE",
"691 599 LINE",
"734 599 LINE SMOOTH",
"777 599 OFFCURVE",
"796 590 OFFCURVE",
"796 568 CURVE SMOOTH",
"796 539 OFFCURVE",
"646 231 OFFCURVE",
"581 93 CURVE",
"575 93 LINE",
"575 93 OFFCURVE",
"511 512 OFFCURVE",
"511 560 CURVE SMOOTH",
"511 590 OFFCURVE",
"527 598 OFFCURVE",
"606 604 CURVE",
"614 641 LINE",
"613 648 LINE",
"613 648 OFFCURVE",
"530 636 OFFCURVE",
"473 636 CURVE SMOOTH",
"442 636 OFFCURVE",
"367 639 OFFCURVE",
"367 639 CURVE",
"355 599 LINE",
"356 595 LINE",
"403 593 OFFCURVE",
"423 577 OFFCURVE",
"432 536 CURVE SMOOTH",
"435 517 OFFCURVE",
"441 496 OFFCURVE",
"443 480 CURVE",
"380 348 OFFCURVE",
"318 223 OFFCURVE",
"258 93 CURVE",
"252 93 LINE",
"252 93 OFFCURVE",
"189 503 OFFCURVE",
"189 559 CURVE SMOOTH",
"189 590 OFFCURVE",
"206 599 OFFCURVE",
"284 604 CURVE",
"291 641 LINE",
"289 648 LINE",
"289 648 OFFCURVE",
"217 636 OFFCURVE",
"149 636 CURVE SMOOTH",
"119 636 OFFCURVE",
"43 639 OFFCURVE",
"43 639 CURVE",
"32 599 LINE",
"34 595 LINE",
"82 594 OFFCURVE",
"106 576 OFFCURVE",
"113 538 CURVE SMOOTH",
"162 270 OFFCURVE",
"205 -17 OFFCURVE",
"205 -17 CURVE",
"264 5 LINE",
"454 405 LINE",
"460 405 LINE",
"527 -17 LINE"
);
}
);
width = 870;
},
{
anchors = (
{
name = bottom;
position = "{457, 0}";
},
{
name = top;
position = "{536, 647}";
}
);
background = {
paths = (
{
closed = 1;
nodes = (
"778 4 LINE",
"966 506 LINE SMOOTH",
"980 542 OFFCURVE",
"988 553 OFFCURVE",
"1011 561 CURVE",
"1028 648 LINE",
"1028 648 OFFCURVE",
"967 647 OFFCURVE",
"913 647 CURVE SMOOTH",
"857 647 OFFCURVE",
"769 650 OFFCURVE",
"769 650 CURVE",
"751 567 LINE",
"757 557 LINE",
"780 557 LINE SMOOTH",
"801 557 OFFCURVE",
"805 554 OFFCURVE",
"805 540 CURVE SMOOTH",
"805 518 OFFCURVE",
"730 282 OFFCURVE",
"687 168 CURVE",
"666 168 LINE",
"666 168 OFFCURVE",
"660 422 OFFCURVE",
"660 508 CURVE SMOOTH",
"660 542 OFFCURVE",
"674 553 OFFCURVE",
"726 559 CURVE",
"743 643 LINE",
"736 652 LINE",
"736 652 OFFCURVE",
"646 647 OFFCURVE",
"556 647 CURVE SMOOTH",
"498 647 OFFCURVE",
"397 649 OFFCURVE",
"397 649 CURVE",
"378 570 LINE",
"384 560 LINE",
"428 560 OFFCURVE",
"436 555 OFFCURVE",
"433 529 CURVE SMOOTH",
"435 534 OFFCURVE",
"440 554 OFFCURVE",
"426 502 CURVE",
"407 440 OFFCURVE",
"346 258 OFFCURVE",
"314 168 CURVE",
"293 168 LINE",
"293 168 OFFCURVE",
"288 422 OFFCURVE",
"288 508 CURVE SMOOTH",
"288 539 OFFCURVE",
"304 551 OFFCURVE",
"353 559 CURVE",
"370 643 LINE",
"364 652 LINE",
"364 652 OFFCURVE",
"272 647 OFFCURVE",
"183 647 CURVE SMOOTH",
"132 647 OFFCURVE",
"55 649 OFFCURVE",
"55 649 CURVE",
"36 570 LINE",
"42 560 LINE",
"65 555 OFFCURVE",
"74 540 OFFCURVE",
"83 493 CURVE SMOOTH",
"93 385 OFFCURVE",
"131 -13 OFFCURVE",
"131 -13 CURVE",
"401 4 LINE",
"488 272 LINE",
"502 272 LINE",
"508 -13 LINE"
);
}
);
};
layerId = UUID1;
paths = (
{
closed = 1;
nodes = (
"778 4 LINE",
"966 506 LINE SMOOTH",
"980 542 OFFCURVE",
"988 553 OFFCURVE",
"1011 561 CURVE",
"1028 648 LINE",
"1028 648 OFFCURVE",
"967 647 OFFCURVE",
"913 647 CURVE SMOOTH",
"857 647 OFFCURVE",
"769 650 OFFCURVE",
"769 650 CURVE",
"751 567 LINE",
"757 557 LINE",
"780 557 LINE SMOOTH",
"801 557 OFFCURVE",
"805 554 OFFCURVE",
"805 540 CURVE SMOOTH",
"805 518 OFFCURVE",
"730 282 OFFCURVE",
"687 168 CURVE",
"666 168 LINE",
"666 168 OFFCURVE",
"660 422 OFFCURVE",
"660 508 CURVE SMOOTH",
"660 542 OFFCURVE",
"674 553 OFFCURVE",
"726 559 CURVE",
"743 643 LINE",
"736 652 LINE",
"736 652 OFFCURVE",
"646 647 OFFCURVE",
"556 647 CURVE SMOOTH",
"498 647 OFFCURVE",
"397 649 OFFCURVE",
"397 649 CURVE",
"378 570 LINE",
"384 560 LINE",
"428 560 OFFCURVE",
"436 555 OFFCURVE",
"433 529 CURVE SMOOTH",
"435 534 OFFCURVE",
"440 554 OFFCURVE",
"426 502 CURVE",
"407 440 OFFCURVE",
"346 258 OFFCURVE",
"314 168 CURVE",
"293 168 LINE",
"293 168 OFFCURVE",
"288 422 OFFCURVE",
"288 508 CURVE SMOOTH",
"288 539 OFFCURVE",
"304 551 OFFCURVE",
"353 559 CURVE",
"370 643 LINE",
"364 652 LINE",
"364 652 OFFCURVE",
"272 647 OFFCURVE",
"183 647 CURVE SMOOTH",
"132 647 OFFCURVE",
"55 649 OFFCURVE",
"55 649 CURVE",
"36 570 LINE",
"42 560 LINE",
"65 555 OFFCURVE",
"74 540 OFFCURVE",
"83 493 CURVE SMOOTH",
"93 385 OFFCURVE",
"131 -13 OFFCURVE",
"131 -13 CURVE",
"401 4 LINE",
"488 272 LINE",
"502 272 LINE",
"508 -13 LINE"
);
}
);
width = 971;
}
);
leftKerningGroup = V;
rightKerningGroup = V;
unicode = 0057;
},
{
color = 1;
glyphname = X;
lastChange = "2017-01-28 13:41:34 +0000";
layers = (
{
anchors = (
{
name = bottom;
position = "{268, 0}";
},
{
name = top;
position = "{387, 647}";
}
);
background = {
paths = (
{
closed = 1;
nodes = (
"290 316 LINE",
"187 517 LINE SMOOTH",
"162 565 OFFCURVE",
"124 592 OFFCURVE",
"65 600 CURVE",
"65 604 LINE",
"74 640 LINE",
"74 640 OFFCURVE",
"169 636 OFFCURVE",
"211 636 CURVE SMOOTH",
"288 636 OFFCURVE",
"341 645 OFFCURVE",
"341 645 CURVE",
"343 638 LINE",
"336 605 LINE",
"279 601 OFFCURVE",
"255 590 OFFCURVE",
"255 568 CURVE SMOOTH",
"255 550 OFFCURVE",
"289 476 OFFCURVE",
"339 374 CURVE",
"391 438 OFFCURVE",
"494 547 OFFCURVE",
"494 576 CURVE SMOOTH",
"494 592 OFFCURVE",
"477 599 OFFCURVE",
"441 603 CURVE",
"441 604 OFFCURVE",
"440 606 OFFCURVE",
"440 607 CURVE",
"449 644 LINE",
"448 644 OFFCURVE",
"519 636 OFFCURVE",
"554 636 CURVE SMOOTH",
"591 636 OFFCURVE",
"646 640 OFFCURVE",
"646 640 CURVE",
"649 634 LINE",
"639 599 LINE",
"580 589 OFFCURVE",
"558 565 OFFCURVE",
"496 496 CURVE SMOOTH",
"359 342 LINE",
"475 124 LINE SMOOTH",
"503 72 OFFCURVE",
"536 47 OFFCURVE",
"597 41 CURVE",
"586 -3 LINE",
"586 -3 OFFCURVE",
"512 0 OFFCURVE",
"468 0 CURVE SMOOTH",
"414 0 OFFCURVE",
"320 -8 OFFCURVE",
"320 -8 CURVE",
"318 -1 LINE",
"326 35 LINE",
"381 38 OFFCURVE",
"407 49 OFFCURVE",
"407 74 CURVE SMOOTH",
"407 85 OFFCURVE",
"401 99 OFFCURVE",
"393 116 CURVE SMOOTH",
"310 284 LINE",
"202 159 LINE SMOOTH",
"151 100 OFFCURVE",
"141 84 OFFCURVE",
"141 64 CURVE SMOOTH",
"141 48 OFFCURVE",
"157 40 OFFCURVE",
"193 37 CURVE",
"195 34 LINE",
"183 -7 LINE",
"183 -7 OFFCURVE",
"115 0 OFFCURVE",
"79 0 CURVE SMOOTH",
"43 0 OFFCURVE",
"-14 -4 OFFCURVE",
"-14 -4 CURVE",
"-17 3 LINE",
"-7 41 LINE",
"53 59 OFFCURVE",
"99 105 OFFCURVE",
"167 180 CURVE SMOOTH"
);
}
);
};
layerId = UUID0;
paths = (
{
closed = 1;
nodes = (
"320 -8 OFFCURVE",
"414 0 OFFCURVE",
"468 0 CURVE SMOOTH",
"512 0 OFFCURVE",
"586 -3 OFFCURVE",
"586 -3 CURVE",
"597 41 LINE",
"536 47 OFFCURVE",
"503 72 OFFCURVE",
"475 124 CURVE SMOOTH",
"359 342 LINE",
"496 496 LINE SMOOTH",
"558 565 OFFCURVE",
"580 589 OFFCURVE",
"639 599 CURVE",
"649 634 LINE",
"646 640 LINE",
"646 640 OFFCURVE",
"591 636 OFFCURVE",
"554 636 CURVE SMOOTH",
"519 636 OFFCURVE",
"448 644 OFFCURVE",
"449 644 CURVE",
"440 607 LINE",
"440 606 OFFCURVE",
"441 604 OFFCURVE",
"441 603 CURVE",
"477 599 OFFCURVE",
"489 592 OFFCURVE",
"489 576 CURVE SMOOTH",
"489 547 OFFCURVE",
"386 438 OFFCURVE",
"334 374 CURVE",
"284 476 OFFCURVE",
"250 550 OFFCURVE",
"250 568 CURVE SMOOTH",
"250 590 OFFCURVE",
"279 601 OFFCURVE",
"336 605 CURVE",
"343 638 LINE",
"341 645 LINE",
"341 645 OFFCURVE",
"288 636 OFFCURVE",
"211 636 CURVE SMOOTH",
"169 636 OFFCURVE",
"74 640 OFFCURVE",
"74 640 CURVE",
"65 604 LINE",
"65 600 LINE",
"124 592 OFFCURVE",
"162 565 OFFCURVE",
"187 517 CURVE SMOOTH",
"290 316 LINE",
"167 180 LINE SMOOTH",
"99 105 OFFCURVE",
"53 59 OFFCURVE",
"-7 41 CURVE",
"-17 3 LINE",
"-14 -4 LINE",
"-14 -4 OFFCURVE",
"43 0 OFFCURVE",
"79 0 CURVE SMOOTH",
"115 0 OFFCURVE",
"183 -7 OFFCURVE",
"183 -7 CURVE",
"195 34 LINE",
"193 37 LINE",
"157 40 OFFCURVE",
"146 48 OFFCURVE",
"146 64 CURVE SMOOTH",
"146 84 OFFCURVE",
"156 100 OFFCURVE",
"207 159 CURVE SMOOTH",
"313 280 LINE",
"398 116 LINE SMOOTH",
"407 99 OFFCURVE",
"412 85 OFFCURVE",
"412 74 CURVE SMOOTH",
"412 49 OFFCURVE",
"381 38 OFFCURVE",
"326 35 CURVE",
"318 -1 LINE",
"320 -8 LINE"
);
}
);
width = 625;
},
{
anchors = (
{
name = bottom;
position = "{271, 0}";
},
{
name = top;
position = "{390, 647}";
}
);
background = {
paths = (
{
closed = 1;
nodes = (
"224 346 LINE",
"162 467 LINE SMOOTH",
"129 531 OFFCURVE",
"103 539 OFFCURVE",
"58 551 CURVE",
"54 557 LINE",
"74 648 LINE",
"74 648 OFFCURVE",
"140 647 OFFCURVE",
"246 647 CURVE SMOOTH",
"287 647 OFFCURVE",
"416 653 OFFCURVE",
"416 653 CURVE",
"421 642 LINE",
"404 560 LINE",
"377 560 OFFCURVE",
"365 551 OFFCURVE",
"365 532 CURVE SMOOTH",
"365 506 OFFCURVE",
"385 472 OFFCURVE",
"410 424 CURVE",
"439 469 OFFCURVE",
"480 526 OFFCURVE",
"480 544 CURVE SMOOTH",
"480 557 OFFCURVE",
"472 561 OFFCURVE",
"447 561 CURVE",
"446 563 OFFCURVE",
"446 565 OFFCURVE",
"445 567 CURVE",
"461 647 LINE",
"514 647 OFFCURVE",
"562 647 OFFCURVE",
"614 647 CURVE SMOOTH",
"671 647 OFFCURVE",
"741 650 OFFCURVE",
"741 650 CURVE",
"744 642 LINE",
"728 555 LINE",
"662 524 OFFCURVE",
"630 499 OFFCURVE",
"591 446 CURVE SMOOTH",
"484 301 LINE",
"550 179 LINE SMOOTH",
"584 120 OFFCURVE",
"614 94 OFFCURVE",
"660 93 CURVE",
"644 -1 LINE",
"644 -1 OFFCURVE",
"549 2 OFFCURVE",
"512 2 CURVE SMOOTH",
"467 2 OFFCURVE",
"308 -5 OFFCURVE",
"308 -5 CURVE",
"302 2 LINE",
"319 86 LINE",
"338 87 OFFCURVE",
"348 94 OFFCURVE",
"348 109 CURVE SMOOTH",
"348 116 OFFCURVE",
"345 124 OFFCURVE",
"340 133 CURVE SMOOTH",
"294 221 LINE",
"253 158 LINE SMOOTH",
"242 141 OFFCURVE",
"233 125 OFFCURVE",
"233 113 CURVE SMOOTH",
"233 96 OFFCURVE",
"243 88 OFFCURVE",
"266 88 CURVE",
"271 77 LINE",
"256 -4 LINE",
"256 -4 OFFCURVE",
"139 2 OFFCURVE",
"108 2 CURVE SMOOTH",
"69 2 OFFCURVE",
"-24 -4 OFFCURVE",
"-24 -4 CURVE",
"-27 10 LINE",
"-12 90 LINE",
"17 104 OFFCURVE",
"83 166 OFFCURVE",
"124 219 CURVE SMOOTH"
);
}
);
};
layerId = UUID1;
paths = (
{
closed = 1;
nodes = (
"308 -5 OFFCURVE",
"467 2 OFFCURVE",
"512 2 CURVE SMOOTH",
"549 2 OFFCURVE",
"644 -1 OFFCURVE",
"644 -1 CURVE",
"660 93 LINE",
"614 94 OFFCURVE",
"584 120 OFFCURVE",
"550 179 CURVE SMOOTH",
"484 301 LINE",
"591 446 LINE SMOOTH",
"630 499 OFFCURVE",
"662 524 OFFCURVE",
"728 555 CURVE",
"744 642 LINE",
"741 650 LINE",
"741 650 OFFCURVE",
"671 647 OFFCURVE",
"614 647 CURVE SMOOTH",
"562 647 OFFCURVE",
"514 647 OFFCURVE",
"461 647 CURVE",
"445 567 LINE",
"446 565 OFFCURVE",
"446 563 OFFCURVE",
"447 561 CURVE",
"472 561 OFFCURVE",
"480 557 OFFCURVE",
"480 544 CURVE SMOOTH",
"480 526 OFFCURVE",
"439 469 OFFCURVE",
"410 424 CURVE",
"385 472 OFFCURVE",
"365 506 OFFCURVE",
"365 532 CURVE SMOOTH",
"365 551 OFFCURVE",
"377 560 OFFCURVE",
"404 560 CURVE",
"421 642 LINE",
"416 653 LINE",
"416 653 OFFCURVE",
"287 647 OFFCURVE",
"246 647 CURVE SMOOTH",
"140 647 OFFCURVE",
"74 648 OFFCURVE",
"74 648 CURVE",
"54 557 LINE",
"58 551 LINE",
"103 539 OFFCURVE",
"129 531 OFFCURVE",
"162 467 CURVE SMOOTH",
"224 346 LINE",
"124 219 LINE SMOOTH",
"83 166 OFFCURVE",
"17 104 OFFCURVE",
"-12 90 CURVE",
"-27 10 LINE",
"-24 -4 LINE",
"-24 -4 OFFCURVE",
"69 2 OFFCURVE",
"108 2 CURVE SMOOTH",
"139 2 OFFCURVE",
"256 -4 OFFCURVE",
"256 -4 CURVE",
"271 77 LINE",
"266 88 LINE",
"243 88 OFFCURVE",
"233 96 OFFCURVE",
"233 113 CURVE SMOOTH",
"233 125 OFFCURVE",
"242 141 OFFCURVE",
"253 158 CURVE SMOOTH",
"294 221 LINE",
"340 133 LINE SMOOTH",
"345 124 OFFCURVE",
"348 116 OFFCURVE",
"348 109 CURVE SMOOTH",
"348 94 OFFCURVE",
"338 87 OFFCURVE",
"319 86 CURVE",
"302 2 LINE",
"308 -5 LINE"
);
}
);
width = 693;
}
);
leftKerningGroup = X;
rightKerningGroup = X;
unicode = 0058;
},
{
color = 1;
glyphname = Y;
lastChange = "2017-01-28 13:41:34 +0000";
layers = (
{
anchors = (
{
name = bottom;
position = "{226, 0}";
},
{
name = top;
position = "{324, 636}";
},
{
name = topleft;
position = "{68, 636}";
}
);
background = {
paths = (
{
closed = 1;
nodes = (
"193 591 OFFCURVE",
"205 599 OFFCURVE",
"271 605 CURVE",
"279 638 LINE",
"277 645 LINE",
"277 645 OFFCURVE",
"195 636 OFFCURVE",
"140 636 CURVE SMOOTH",
"96 636 OFFCURVE",
"37 640 OFFCURVE",
"37 640 CURVE",
"26 604 LINE",
"28 600 LINE",
"104 593 OFFCURVE",
"106 567 OFFCURVE",
"135 483 CURVE SMOOTH",
"198 301 LINE",
"216 252 OFFCURVE",
"216 226 OFFCURVE",
"212 186 CURVE SMOOTH",
"207 141 LINE SMOOTH",
"199 66 OFFCURVE",
"189 46 OFFCURVE",
"119 31 CURVE",
"108 -12 LINE",
"108 -12 OFFCURVE",
"169 0 OFFCURVE",
"217 0 CURVE SMOOTH",
"258 0 OFFCURVE",
"336 -3 OFFCURVE",
"336 -3 CURVE",
"350 40 LINE",
"348 44 LINE",
"348 44 OFFCURVE",
"320 41 OFFCURVE",
"301 41 CURVE SMOOTH",
"266 41 OFFCURVE",
"261 58 OFFCURVE",
"268 110 CURVE SMOOTH",
"284 223 OFFCURVE",
"285 257 OFFCURVE",
"312 294 CURVE",
"429 469 LINE SMOOTH",
"494 566 OFFCURVE",
"503 587 OFFCURVE",
"571 599 CURVE",
"582 634 LINE",
"579 640 LINE",
"579 640 OFFCURVE",
"527 636 OFFCURVE",
"490 636 CURVE SMOOTH",
"455 636 OFFCURVE",
"385 644 OFFCURVE",
"386 644 CURVE",
"375 607 LINE",
"377 603 LINE",
"416 600 OFFCURVE",
"434 591 OFFCURVE",
"434 575 CURVE SMOOTH",
"434 562 OFFCURVE",
"426 542 OFFCURVE",
"413 522 CURVE SMOOTH",
"274 304 LINE",
"270 304 LINE",
"270 302 OFFCURVE",
"193 531 OFFCURVE",
"193 567 CURVE SMOOTH"
);
}
);
};
layerId = UUID0;
paths = (
{
closed = 1;
nodes = (
"188 591 OFFCURVE",
"205 599 OFFCURVE",
"271 605 CURVE",
"279 638 LINE",
"277 645 LINE",
"277 645 OFFCURVE",
"195 636 OFFCURVE",
"140 636 CURVE SMOOTH",
"96 636 OFFCURVE",
"37 640 OFFCURVE",
"37 640 CURVE",
"26 604 LINE",
"28 600 LINE",
"104 593 OFFCURVE",
"106 567 OFFCURVE",
"135 483 CURVE SMOOTH",
"198 301 LINE",
"216 252 OFFCURVE",
"216 226 OFFCURVE",
"212 186 CURVE SMOOTH",
"207 141 LINE SMOOTH",
"199 66 OFFCURVE",
"189 46 OFFCURVE",
"119 31 CURVE",
"108 -12 LINE",
"108 -12 OFFCURVE",
"169 0 OFFCURVE",
"217 0 CURVE SMOOTH",
"258 0 OFFCURVE",
"336 -3 OFFCURVE",
"336 -3 CURVE",
"350 40 LINE",
"348 44 LINE",
"348 44 OFFCURVE",
"320 41 OFFCURVE",
"301 41 CURVE SMOOTH",
"266 41 OFFCURVE",
"261 58 OFFCURVE",
"268 110 CURVE SMOOTH",
"284 223 OFFCURVE",
"285 257 OFFCURVE",
"312 294 CURVE",
"429 469 LINE SMOOTH",
"494 566 OFFCURVE",
"503 587 OFFCURVE",
"571 599 CURVE",
"582 634 LINE",
"579 640 LINE",
"579 640 OFFCURVE",
"527 636 OFFCURVE",
"490 636 CURVE SMOOTH",
"455 636 OFFCURVE",
"385 644 OFFCURVE",
"386 644 CURVE",
"375 607 LINE",
"377 603 LINE",
"416 600 OFFCURVE",
"429 591 OFFCURVE",
"429 575 CURVE SMOOTH",
"429 562 OFFCURVE",
"421 542 OFFCURVE",
"408 522 CURVE SMOOTH",
"269 304 LINE",
"265 304 LINE",
"265 302 OFFCURVE",
"188 531 OFFCURVE",
"188 567 CURVE SMOOTH"
);
}
);
width = 511;
},
{
anchors = (
{
name = bottom;
position = "{296, 0}";
},
{
name = top;
position = "{385, 647}";
},
{
name = topleft;
position = "{70, 647}";
}
);
background = {
paths = (
{
closed = 1;
nodes = (
"332 551 OFFCURVE",
"345 560 OFFCURVE",
"373 560 CURVE",
"392 642 LINE",
"386 653 LINE",
"386 653 OFFCURVE",
"253 646 OFFCURVE",
"209 646 CURVE SMOOTH",
"177 646 OFFCURVE",
"61 648 OFFCURVE",
"61 648 CURVE",
"40 557 LINE",
"44 551 LINE",
"83 532 OFFCURVE",
"114 504 OFFCURVE",
"128 467 CURVE SMOOTH",
"208 268 LINE",
"224 229 OFFCURVE",
"228 207 OFFCURVE",
"224 178 CURVE SMOOTH",
"222 162 LINE SMOOTH",
"215 103 OFFCURVE",
"195 89 OFFCURVE",
"111 83 CURVE",
"92 -9 LINE",
"92 -9 OFFCURVE",
"230 0 OFFCURVE",
"293 0 CURVE SMOOTH",
"350 0 OFFCURVE",
"497 -6 OFFCURVE",
"497 -6 CURVE",
"517 88 LINE",
"513 94 LINE",
"513 94 OFFCURVE",
"488 91 OFFCURVE",
"463 91 CURVE SMOOTH",
"426 91 OFFCURVE",
"416 107 OFFCURVE",
"422 154 CURVE SMOOTH",
"426 188 OFFCURVE",
"429 212 OFFCURVE",
"448 247 CURVE",
"558 429 LINE SMOOTH",
"590 485 OFFCURVE",
"637 531 OFFCURVE",
"680 555 CURVE",
"698 642 LINE",
"695 650 LINE",
"695 650 OFFCURVE",
"635 646 OFFCURVE",
"584 646 CURVE SMOOTH",
"532 646 OFFCURVE",
"483 646 OFFCURVE",
"429 646 CURVE",
"411 567 LINE",
"413 561 LINE",
"438 561 OFFCURVE",
"447 557 OFFCURVE",
"447 547 CURVE SMOOTH",
"447 538 OFFCURVE",
"440 521 OFFCURVE",
"429 501 CURVE SMOOTH",
"379 387 LINE",
"365 387 LINE",
"351 435 OFFCURVE",
"332 514 OFFCURVE",
"332 533 CURVE SMOOTH"
);
}
);
};
layerId = UUID1;
paths = (
{
closed = 1;
nodes = (
"332 551 OFFCURVE",
"345 560 OFFCURVE",
"373 560 CURVE",
"392 642 LINE",
"386 653 LINE",
"386 653 OFFCURVE",
"253 646 OFFCURVE",
"209 646 CURVE SMOOTH",
"177 646 OFFCURVE",
"61 648 OFFCURVE",
"61 648 CURVE",
"40 557 LINE",
"44 551 LINE",
"83 532 OFFCURVE",
"114 504 OFFCURVE",
"128 467 CURVE SMOOTH",
"208 268 LINE",
"224 229 OFFCURVE",
"228 207 OFFCURVE",
"224 178 CURVE SMOOTH",
"222 162 LINE SMOOTH",
"215 103 OFFCURVE",
"195 89 OFFCURVE",
"111 83 CURVE",
"92 -9 LINE",
"92 -9 OFFCURVE",
"230 0 OFFCURVE",
"293 0 CURVE SMOOTH",
"350 0 OFFCURVE",
"497 -6 OFFCURVE",
"497 -6 CURVE",
"517 88 LINE",
"513 94 LINE",
"513 94 OFFCURVE",
"488 91 OFFCURVE",
"463 91 CURVE SMOOTH",
"426 91 OFFCURVE",
"416 107 OFFCURVE",
"422 154 CURVE SMOOTH",
"426 188 OFFCURVE",
"429 212 OFFCURVE",
"448 247 CURVE",
"558 429 LINE SMOOTH",
"590 485 OFFCURVE",
"637 531 OFFCURVE",
"680 555 CURVE",
"698 642 LINE",
"695 650 LINE",
"695 650 OFFCURVE",
"635 646 OFFCURVE",
"584 646 CURVE SMOOTH",
"532 646 OFFCURVE",
"483 646 OFFCURVE",
"429 646 CURVE",
"411 567 LINE",
"413 561 LINE",
"438 561 OFFCURVE",
"447 557 OFFCURVE",
"447 547 CURVE SMOOTH",
"447 538 OFFCURVE",
"440 521 OFFCURVE",
"429 501 CURVE SMOOTH",
"379 387 LINE",
"365 387 LINE",
"351 435 OFFCURVE",
"332 514 OFFCURVE",
"332 533 CURVE SMOOTH"
);
}
);
width = 650;
}
);
leftKerningGroup = Y;
rightKerningGroup = Y;
unicode = 0059;
},
{
color = 1;
glyphname = Z;
lastChange = "2017-01-28 13:41:20 +0000";
layers = (
{
anchors = (
{
name = bottom;
position = "{252, 0}";
},
{
name = top;
position = "{350, 636}";
}
);
background = {
paths = (
{
closed = 1;
nodes = (
"455 13 LINE",
"471 108 OFFCURVE",
"504 215 OFFCURVE",
"504 215 CURVE",
"461 210 LINE",
"425 95 OFFCURVE",
"379 44 OFFCURVE",
"313 43 CURVE SMOOTH",
"114 36 LINE",
"163 103 OFFCURVE",
"342 348 OFFCURVE",
"556 602 CURVE",
"549 630 LINE",
"305 637 LINE",
"138 648 LINE",
"127 639 LINE",
"114 548 OFFCURVE",
"86 447 OFFCURVE",
"86 447 CURVE",
"130 451 LINE",
"153 553 OFFCURVE",
"189 588 OFFCURVE",
"277 590 CURVE SMOOTH",
"447 596 LINE",
"18 28 LINE",
"26 -3 LINE",
"95 3 LINE",
"439 -3 LINE"
);
}
);
};
layerId = UUID0;
paths = (
{
closed = 1;
nodes = (
"455 13 LINE",
"471 108 OFFCURVE",
"504 215 OFFCURVE",
"504 215 CURVE",
"461 210 LINE",
"425 95 OFFCURVE",
"379 48 OFFCURVE",
"313 47 CURVE SMOOTH",
"119 40 LINE",
"168 107 OFFCURVE",
"351 352 OFFCURVE",
"556 602 CURVE",
"549 630 LINE",
"305 637 LINE",
"138 648 LINE",
"127 639 LINE",
"114 548 OFFCURVE",
"86 447 OFFCURVE",
"86 447 CURVE",
"130 451 LINE",
"153 553 OFFCURVE",
"189 584 OFFCURVE",
"277 586 CURVE SMOOTH",
"447 592 LINE",
"18 28 LINE",
"26 -3 LINE",
"95 3 LINE",
"439 -3 LINE"
);
}
);
width = 559;
},
{
anchors = (
{
name = bottom;
position = "{260, 0}";
},
{
name = top;
position = "{359, 647}";
}
);
background = {
paths = (
{
closed = 1;
nodes = (
"531 19 LINE",
"545 119 OFFCURVE",
"585 275 OFFCURVE",
"585 275 CURVE",
"457 266 LINE",
"438 173 OFFCURVE",
"409 134 OFFCURVE",
"346 124 CURVE SMOOTH",
"247 109 LINE",
"311 194 OFFCURVE",
"460 396 OFFCURVE",
"627 595 CURVE",
"609 649 LINE",
"284 649 LINE",
"109 660 LINE",
"97 649 LINE",
"83 556 OFFCURVE",
"53 409 OFFCURVE",
"53 409 CURVE",
"181 418 LINE",
"194 503 OFFCURVE",
"205 521 OFFCURVE",
"282 532 CURVE SMOOTH",
"353 542 LINE",
"-21 51 LINE",
"8 -7 LINE",
"89 3 LINE",
"508 -3 LINE"
);
}
);
};
layerId = UUID1;
paths = (
{
closed = 1;
nodes = (
"531 19 LINE",
"545 119 OFFCURVE",
"585 275 OFFCURVE",
"585 275 CURVE",
"457 266 LINE",
"438 173 OFFCURVE",
"409 134 OFFCURVE",
"346 124 CURVE SMOOTH",
"247 109 LINE",
"311 194 OFFCURVE",
"460 396 OFFCURVE",
"627 595 CURVE",
"609 649 LINE",
"284 649 LINE",
"109 660 LINE",
"97 649 LINE",
"83 556 OFFCURVE",
"53 409 OFFCURVE",
"53 409 CURVE",
"181 418 LINE",
"194 503 OFFCURVE",
"205 521 OFFCURVE",
"282 532 CURVE SMOOTH",
"353 542 LINE",
"-21 51 LINE",
"8 -7 LINE",
"89 3 LINE",
"508 -3 LINE"
);
}
);
width = 578;
}
);
leftKerningGroup = Z;
rightKerningGroup = Z;
unicode = 005A;
},
{
color = 1;
glyphname = C.ss01;
lastChange = "2017-01-28 13:41:25 +0000";
layers = (
{
anchors = (
{
name = bottom;
position = "{288, 0}";
},
{
name = top;
position = "{366, 636}";
}
);
background = {
paths = (
{
closed = 1;
nodes = (
"417 -9 OFFCURVE",
"482 22 OFFCURVE",
"482 22 CURVE",
"488 30 LINE",
"500 87 OFFCURVE",
"524 161 OFFCURVE",
"524 161 CURVE",
"478 157 LINE",
"449 74 OFFCURVE",
"404 37 OFFCURVE",
"336 37 CURVE SMOOTH",
"245 37 OFFCURVE",
"191 108 OFFCURVE",
"191 220 CURVE SMOOTH",
"191 364 OFFCURVE",
"268 455 OFFCURVE",
"381 455 CURVE SMOOTH",
"449 455 OFFCURVE",
"482 434 OFFCURVE",
"482 392 CURVE SMOOTH",
"482 377 OFFCURVE",
"475 344 OFFCURVE",
"475 344 CURVE",
"521 348 LINE",
"535 422 OFFCURVE",
"558 482 OFFCURVE",
"558 482 CURVE",
"555 488 LINE",
"555 488 OFFCURVE",
"474 507 OFFCURVE",
"409 507 CURVE SMOOTH",
"233 507 OFFCURVE",
"106 378 OFFCURVE",
"106 200 CURVE SMOOTH",
"106 71 OFFCURVE",
"192 -9 OFFCURVE",
"322 -9 CURVE SMOOTH"
);
}
);
};
layerId = UUID0;
paths = (
{
closed = 1;
nodes = (
"485 22 LINE",
"492 30 LINE",
"504 89 OFFCURVE",
"528 163 OFFCURVE",
"528 163 CURVE",
"478 159 LINE",
"450 77 OFFCURVE",
"406 45 OFFCURVE",
"339 45 CURVE SMOOTH",
"248 45 OFFCURVE",
"195 112 OFFCURVE",
"195 222 CURVE SMOOTH",
"195 365 OFFCURVE",
"269 452 OFFCURVE",
"382 452 CURVE SMOOTH",
"449 452 OFFCURVE",
"482 432 OFFCURVE",
"482 390 CURVE SMOOTH",
"482 376 OFFCURVE",
"475 343 OFFCURVE",
"475 343 CURVE",
"525 346 LINE",
"539 422 OFFCURVE",
"562 482 OFFCURVE",
"562 482 CURVE",
"559 488 LINE",
"294 483 LINE",
"181 437 OFFCURVE",
"104 333 OFFCURVE",
"104 200 CURVE SMOOTH",
"104 119 OFFCURVE",
"136 54 OFFCURVE",
"191 21 CURVE"
);
},
{
closed = 1;
nodes = (
"76 462 LINE",
"632 462 LINE",
"636 497 LINE",
"81 497 LINE"
);
},
{
closed = 1;
nodes = (
"20 0 LINE",
"575 0 LINE",
"579 35 LINE",
"24 35 LINE"
);
}
);
width = 633;
},
{
anchors = (
{
name = bottom;
position = "{219, 0}";
},
{
name = top;
position = "{298, 647}";
}
);
background = {
paths = (
{
closed = 1;
nodes = (
"340 -8 OFFCURVE",
"425 21 OFFCURVE",
"425 21 CURVE",
"438 34 LINE",
"446 112 OFFCURVE",
"466 207 OFFCURVE",
"466 207 CURVE",
"326 198 LINE",
"313 129 OFFCURVE",
"302 114 OFFCURVE",
"266 114 CURVE SMOOTH",
"231 114 OFFCURVE",
"221 136 OFFCURVE",
"221 218 CURVE SMOOTH",
"221 350 OFFCURVE",
"237 395 OFFCURVE",
"288 395 CURVE SMOOTH",
"318 395 OFFCURVE",
"336 380 OFFCURVE",
"336 355 CURVE SMOOTH",
"336 341 OFFCURVE",
"327 295 OFFCURVE",
"327 295 CURVE",
"469 303 LINE",
"487 402 OFFCURVE",
"513 475 OFFCURVE",
"513 475 CURVE",
"507 493 LINE",
"507 493 OFFCURVE",
"387 514 OFFCURVE",
"318 514 CURVE SMOOTH",
"117 514 OFFCURVE",
"16 411 OFFCURVE",
"16 206 CURVE SMOOTH",
"16 67 OFFCURVE",
"93 -8 OFFCURVE",
"234 -8 CURVE SMOOTH"
);
}
);
};
layerId = UUID1;
paths = (
{
closed = 1;
nodes = (
"424 21 LINE",
"437 34 LINE",
"446 112 OFFCURVE",
"466 207 OFFCURVE",
"466 207 CURVE",
"327 198 LINE",
"316 135 OFFCURVE",
"301 114 OFFCURVE",
"266 114 CURVE SMOOTH",
"234 114 OFFCURVE",
"220 137 OFFCURVE",
"220 208 CURVE SMOOTH",
"220 369 OFFCURVE",
"243 395 OFFCURVE",
"296 395 CURVE SMOOTH",
"325 395 OFFCURVE",
"335 384 OFFCURVE",
"335 355 CURVE SMOOTH",
"335 346 OFFCURVE",
"328 295 OFFCURVE",
"328 295 CURVE",
"468 303 LINE",
"486 402 OFFCURVE",
"512 475 OFFCURVE",
"512 475 CURVE",
"508 493 LINE",
"200 492 LINE",
"78 450 OFFCURVE",
"16 376 OFFCURVE",
"16 204 CURVE SMOOTH",
"16 120 OFFCURVE",
"45 55 OFFCURVE",
"100 22 CURVE"
);
},
{
closed = 1;
nodes = (
"5 438 LINE",
"543 438 LINE",
"551 503 LINE",
"13 503 LINE"
);
},
{
closed = 1;
nodes = (
"-48 0 LINE",
"489 0 LINE",
"497 65 LINE",
"-40 65 LINE"
);
}
);
width = 496;
}
);
},
{
color = 1;
glyphname = D.ss01;
lastChange = "2017-01-28 13:41:14 +0000";
layers = (
{
anchors = (
{
name = bottom;
position = "{296, 0}";
},
{
name = center;
position = "{335, 318}";
},
{
name = top;
position = "{374, 636}";
}
);
background = {
paths = (
{
closed = 1;
nodes = (
"449 -9 OFFCURVE",
"583 126 OFFCURVE",
"583 295 CURVE SMOOTH",
"583 419 OFFCURVE",
"485 501 OFFCURVE",
"344 501 CURVE SMOOTH",
"344 501 OFFCURVE",
"267 497 OFFCURVE",
"230 497 CURVE SMOOTH",
"200 497 OFFCURVE",
"144 500 OFFCURVE",
"144 500 CURVE",
"134 463 LINE",
"135 459 LINE",
"135 459 OFFCURVE",
"153 460 OFFCURVE",
"163 460 CURVE SMOOTH",
"185 460 OFFCURVE",
"189 452 OFFCURVE",
"185 418 CURVE SMOOTH",
"146 97 LINE",
"140 53 OFFCURVE",
"126 40 OFFCURVE",
"76 31 CURVE",
"67 -9 LINE",
"67 -9 OFFCURVE",
"121 0 OFFCURVE",
"161 0 CURVE SMOOTH",
"202 0 OFFCURVE",
"282 -9 OFFCURVE",
"282 -9 CURVE"
);
},
{
closed = 1;
nodes = (
"427 457 OFFCURVE",
"498 395 OFFCURVE",
"498 281 CURVE SMOOTH",
"498 135 OFFCURVE",
"419 37 OFFCURVE",
"297 37 CURVE SMOOTH",
"232 37 OFFCURVE",
"211 48 OFFCURVE",
"211 88 CURVE SMOOTH",
"211 114 OFFCURVE",
"234 254 OFFCURVE",
"266 439 CURVE SMOOTH",
"268 453 OFFCURVE",
"274 457 OFFCURVE",
"294 457 CURVE SMOOTH"
);
}
);
};
layerId = UUID0;
paths = (
{
closed = 1;
nodes = (
"420 25 LINE",
"523 78 OFFCURVE",
"590 181 OFFCURVE",
"590 294 CURVE SMOOTH",
"590 366 OFFCURVE",
"560 429 OFFCURVE",
"506 465 CURVE",
"164 462 LINE",
"186 462 OFFCURVE",
"191 453 OFFCURVE",
"187 420 CURVE SMOOTH",
"147 101 LINE SMOOTH",
"142 57 OFFCURVE",
"124 35 OFFCURVE",
"79 35 CURVE"
);
},
{
closed = 1;
nodes = (
"54 462 LINE",
"671 462 LINE",
"675 497 LINE",
"59 497 LINE"
);
},
{
closed = 1;
nodes = (
"-2 0 LINE",
"614 0 LINE",
"618 35 LINE",
"2 35 LINE"
);
},
{
closed = 1;
nodes = (
"427 457 OFFCURVE",
"498 395 OFFCURVE",
"498 281 CURVE SMOOTH",
"498 135 OFFCURVE",
"419 37 OFFCURVE",
"297 37 CURVE SMOOTH",
"232 37 OFFCURVE",
"211 48 OFFCURVE",
"211 88 CURVE SMOOTH",
"211 114 OFFCURVE",
"234 254 OFFCURVE",
"266 439 CURVE SMOOTH",
"268 453 OFFCURVE",
"274 457 OFFCURVE",
"294 457 CURVE SMOOTH"
);
}
);
width = 688;
},
{
anchors = (
{
name = bottom;
position = "{251, 0}";
},
{
name = center;
position = "{291, 324}";
},
{
name = top;
position = "{330, 647}";
}
);
background = {
paths = (
{
closed = 1;
nodes = (
"431 -9 OFFCURVE",
"556 116 OFFCURVE",
"556 313 CURVE SMOOTH",
"556 445 OFFCURVE",
"472 509 OFFCURVE",
"320 509 CURVE SMOOTH",
"320 509 OFFCURVE",
"229 504 OFFCURVE",
"191 504 CURVE SMOOTH",
"158 504 OFFCURVE",
"62 507 OFFCURVE",
"62 507 CURVE",
"46 438 LINE",
"54 426 LINE",
"54 426 OFFCURVE",
"67 428 OFFCURVE",
"79 428 CURVE SMOOTH",
"93 428 OFFCURVE",
"96 418 OFFCURVE",
"93 386 CURVE SMOOTH",
"62 137 LINE",
"55 92 OFFCURVE",
"42 79 OFFCURVE",
"4 73 CURVE",
"-13 -6 LINE",
"-13 -6 OFFCURVE",
"62 0 OFFCURVE",
"108 0 CURVE SMOOTH",
"160 0 OFFCURVE",
"236 -9 OFFCURVE",
"236 -9 CURVE"
);
},
{
closed = 1;
nodes = (
"337 399 OFFCURVE",
"350 380 OFFCURVE",
"350 309 CURVE SMOOTH",
"350 168 OFFCURVE",
"315 98 OFFCURVE",
"246 98 CURVE SMOOTH",
"237 98 OFFCURVE",
"234 104 OFFCURVE",
"234 118 CURVE SMOOTH",
"234 122 OFFCURVE",
"272 384 OFFCURVE",
"274 378 CURVE SMOOTH",
"277 394 OFFCURVE",
"281 399 OFFCURVE",
"291 399 CURVE SMOOTH"
);
}
);
};
layerId = UUID1;
paths = (
{
closed = 1;
nodes = (
"388 23 LINE",
"493 74 OFFCURVE",
"555 177 OFFCURVE",
"555 313 CURVE SMOOTH",
"555 388 OFFCURVE",
"532 443 OFFCURVE",
"483 474 CURVE",
"80 438 LINE",
"94 438 OFFCURVE",
"98 428 OFFCURVE",
"94 396 CURVE SMOOTH",
"61 127 LINE SMOOTH",
"56 84 OFFCURVE",
"42 65 OFFCURVE",
"3 65 CURVE"
);
},
{
closed = 1;
nodes = (
"5 438 LINE",
"607 438 LINE",
"615 503 LINE",
"13 503 LINE"
);
},
{
closed = 1;
nodes = (
"-48 0 LINE",
"553 0 LINE",
"561 65 LINE",
"-40 65 LINE"
);
},
{
closed = 1;
nodes = (
"337 399 OFFCURVE",
"350 380 OFFCURVE",
"350 309 CURVE SMOOTH",
"350 168 OFFCURVE",
"315 98 OFFCURVE",
"246 98 CURVE SMOOTH",
"237 98 OFFCURVE",
"234 104 OFFCURVE",
"234 118 CURVE SMOOTH",
"234 122 OFFCURVE",
"272 384 OFFCURVE",
"274 378 CURVE SMOOTH",
"277 394 OFFCURVE",
"281 399 OFFCURVE",
"291 399 CURVE SMOOTH"
);
}
);
width = 560;
}
);
},
{
color = 1;
glyphname = I.ss01;
lastChange = "2017-01-28 13:41:27 +0000";
layers = (
{
anchors = (
{
name = bottom;
position = "{162, 0}";
},
{
name = ogonek;
position = "{286, 10}";
},
{
name = top;
position = "{240, 636}";
},
{
name = topleft;
position = "{105, 636}";
}
);
background = {
paths = (
{
closed = 1;
nodes = (
"159 95 LINE",
"159 51 OFFCURVE",
"148 35 OFFCURVE",
"95 35 CURVE SMOOTH",
"265 35 LINE SMOOTH",
"237 35 OFFCURVE",
"230 46 OFFCURVE",
"230 89 CURVE"
);
},
{
closed = 1;
nodes = (
"376 35 LINE",
"17 35 LINE"
);
},
{
closed = 1;
nodes = (
"270 451 OFFCURVE",
"282 460 OFFCURVE",
"325 465 CURVE",
"334 505 LINE",
"334 505 OFFCURVE",
"274 497 OFFCURVE",
"238 497 CURVE SMOOTH",
"205 497 OFFCURVE",
"145 500 OFFCURVE",
"141 500 CURVE",
"131 463 LINE SMOOTH",
"131 461 OFFCURVE",
"132 460 OFFCURVE",
"132 459 CURVE SMOOTH",
"132 459 OFFCURVE",
"153 460 OFFCURVE",
"164 460 CURVE SMOOTH",
"188 460 OFFCURVE",
"192 451 OFFCURVE",
"188 419 CURVE SMOOTH",
"148 97 LINE SMOOTH",
"143 54 OFFCURVE",
"127 39 OFFCURVE",
"78 30 CURVE",
"68 -9 LINE",
"68 -9 OFFCURVE",
"123 0 OFFCURVE",
"164 0 CURVE SMOOTH",
"201 0 OFFCURVE",
"270 -2 OFFCURVE",
"270 -2 CURVE",
"282 37 LINE",
"280 40 LINE",
"280 40 OFFCURVE",
"259 38 OFFCURVE",
"240 38 CURVE SMOOTH",
"220 38 OFFCURVE",
"211 46 OFFCURVE",
"211 71 CURVE SMOOTH",
"211 104 OFFCURVE",
"242 292 OFFCURVE",
"265 422 CURVE SMOOTH"
);
}
);
};
layerId = UUID0;
paths = (
{
closed = 1;
nodes = (
"274 460 OFFCURVE",
"283 462 OFFCURVE",
"326 462 CURVE",
"163 462 LINE",
"186 462 OFFCURVE",
"192 460 OFFCURVE",
"188 427 CURVE SMOOTH",
"146 95 LINE SMOOTH",
"141 51 OFFCURVE",
"128 35 OFFCURVE",
"77 35 CURVE",
"243 35 LINE",
"222 35 OFFCURVE",
"214 43 OFFCURVE",
"214 69 CURVE SMOOTH",
"214 100 OFFCURVE",
"245 299 OFFCURVE",
"269 430 CURVE SMOOTH"
);
},
{
closed = 1;
nodes = (
"54 462 LINE",
"403 462 LINE",
"407 497 LINE",
"59 497 LINE"
);
},
{
closed = 1;
nodes = (
"-2 0 LINE",
"346 0 LINE",
"350 35 LINE",
"2 35 LINE"
);
}
);
width = 399;
},
{
anchors = (
{
name = bottom;
position = "{127, 0}";
},
{
name = ogonek;
position = "{252, 10}";
},
{
name = top;
position = "{206, 647}";
},
{
name = topleft;
position = "{70, 647}";
}
);
background = {
paths = (
{
closed = 1;
nodes = (
"74 132 LINE",
"74 97 OFFCURVE",
"69 75 OFFCURVE",
"27 75 CURVE SMOOTH",
"277 75 LINE SMOOTH",
"256 75 OFFCURVE",
"251 84 OFFCURVE",
"251 127 CURVE"
);
},
{
closed = 1;
nodes = (
"342 75 LINE",
"-23 75 LINE"
);
},
{
closed = 1;
nodes = (
"284 420 OFFCURVE",
"289 426 OFFCURVE",
"326 431 CURVE",
"341 507 LINE",
"341 507 OFFCURVE",
"227 504 OFFCURVE",
"193 504 CURVE SMOOTH",
"148 504 OFFCURVE",
"109 504 OFFCURVE",
"57 504 CURVE",
"43 441 LINE SMOOTH",
"45 437 OFFCURVE",
"47 433 OFFCURVE",
"50 429 CURVE SMOOTH",
"50 429 OFFCURVE",
"60 429 OFFCURVE",
"68 429 CURVE SMOOTH",
"90 429 OFFCURVE",
"96 422 OFFCURVE",
"92 390 CURVE SMOOTH",
"59 132 LINE SMOOTH",
"55 89 OFFCURVE",
"45 78 OFFCURVE",
"1 69 CURVE",
"-13 -3 LINE",
"-13 -3 OFFCURVE",
"75 0 OFFCURVE",
"128 0 CURVE SMOOTH",
"162 0 OFFCURVE",
"267 -3 OFFCURVE",
"267 -3 CURVE",
"283 67 LINE",
"278 76 LINE",
"278 76 OFFCURVE",
"270 74 OFFCURVE",
"254 74 CURVE SMOOTH",
"240 74 OFFCURVE",
"234 80 OFFCURVE",
"234 103 CURVE SMOOTH",
"234 134 OFFCURVE",
"265 330 OFFCURVE",
"277 391 CURVE SMOOTH"
);
}
);
};
layerId = UUID1;
paths = (
{
closed = 1;
nodes = (
"284 430 OFFCURVE",
"290 438 OFFCURVE",
"326 438 CURVE",
"70 438 LINE",
"92 438 OFFCURVE",
"96 432 OFFCURVE",
"93 400 CURVE SMOOTH",
"58 122 LINE SMOOTH",
"54 87 OFFCURVE",
"47 65 OFFCURVE",
"7 65 CURVE",
"253 65 LINE",
"238 65 OFFCURVE",
"232 71 OFFCURVE",
"232 94 CURVE SMOOTH",
"232 126 OFFCURVE",
"264 336 OFFCURVE",
"277 401 CURVE SMOOTH"
);
},
{
closed = 1;
nodes = (
"5 438 LINE",
"360 438 LINE",
"368 503 LINE",
"13 503 LINE"
);
},
{
closed = 1;
nodes = (
"-48 0 LINE",
"306 0 LINE",
"314 65 LINE",
"-40 65 LINE"
);
}
);
width = 312;
}
);
},
